<svg width="18" height="18" viewBox="0 0 18 18" fill="none" xmlns="http://www.w3.org/2000/svg">
<path d="M13.4451 0.899994C14.652 0.899994 15.813 1.37699 16.6671 2.23289C17.5221 3.08699 18 4.23899 18 5.44499V12.555C18 15.066 15.957 17.1 13.4451 17.1H4.554C2.0421 17.1 0 15.066 0 12.555V5.44499C0 2.93399 2.0331 0.899994 4.554 0.899994H13.4451ZM14.463 5.57999C14.274 5.57009 14.094 5.63399 13.9581 5.75999L9.9 8.99999C9.378 9.43289 8.6301 9.43289 8.1 8.99999L4.05 5.75999C3.7701 5.55299 3.3831 5.57999 3.15 5.82299C2.907 6.06599 2.88 6.45299 3.0861 6.72299L3.204 6.83999L7.299 10.035C7.803 10.431 8.4141 10.647 9.054 10.647C9.6921 10.647 10.314 10.431 10.8171 10.035L14.877 6.78599L14.949 6.71399C15.1641 6.45299 15.1641 6.07499 14.9391 5.81399C14.814 5.67989 14.6421 5.59799 14.463 5.57999Z" fill="white"/>
</svg>
