<svg width="18" height="18" viewBox="0 0 18 18" fill="none" xmlns="http://www.w3.org/2000/svg">
<path d="M11.1765 3.14094C10.748 3.0618 10.3546 3.33521 10.273 3.75342C10.1914 4.17164 10.4657 4.57996 10.8825 4.6618C12.1373 4.90643 13.1062 5.87776 13.3518 7.1369V7.1378C13.4217 7.50025 13.7408 7.76377 14.1083 7.76377C14.1576 7.76377 14.2069 7.75927 14.2571 7.75028C14.6739 7.66664 14.9482 7.25922 14.8666 6.8401C14.5 4.9595 13.0525 3.50699 11.1765 3.14094Z" fill="white"/>
<path d="M11.1205 0.00713679C10.9197 -0.0216434 10.718 0.0377158 10.5576 0.165428C10.3927 0.294939 10.2896 0.482011 10.2672 0.691567C10.2197 1.11518 10.5253 1.49831 10.9484 1.54598C13.8659 1.87156 16.1335 4.1443 16.4616 7.07089C16.5055 7.46302 16.8344 7.75891 17.227 7.75891C17.2566 7.75891 17.2853 7.75711 17.3149 7.75352C17.5201 7.73103 17.703 7.6294 17.832 7.46751C17.9602 7.30562 18.0185 7.10416 17.9952 6.8982C17.5865 3.24671 14.7604 0.412758 11.1205 0.00713679Z" fill="white"/>
<path fill-rule="evenodd" clip-rule="evenodd" d="M8.12857 9.87515C11.7187 13.4643 12.5332 9.31205 14.8191 11.5963C17.0229 13.7995 18.2895 14.2409 15.4973 17.0322C15.1476 17.3133 12.9255 20.6948 5.11614 12.8877C-2.69413 5.0796 0.685426 2.8552 0.966573 2.50555C3.76548 -0.293539 4.19928 0.980445 6.40304 3.1836C8.68893 5.46885 4.53839 6.28597 8.12857 9.87515Z" fill="white"/>
</svg>
