<svg width="18" height="16" viewBox="0 0 18 16" fill="none" xmlns="http://www.w3.org/2000/svg">
<path fill-rule="evenodd" clip-rule="evenodd" d="M0.383708 8.31045C-0.149735 8.04098 -0.0847196 7.70778 0.319655 7.47353C2.68224 6.10587 11.8036 2.55302 15.9842 1.01037C16.7688 0.720774 17.5324 0.712947 17.845 1.09497C18.0352 1.32755 18.018 1.65683 17.9628 2.08396C17.4529 6.0399 16.7671 10.1168 16.0347 14.0411C15.8528 15.0149 14.7199 15.4943 13.9521 15.0081C11.903 13.7103 9.98588 12.3987 8.18201 11.2273C7.6476 10.8803 7.70625 10.067 8.4577 9.37584C10.1929 7.77971 11.7103 6.56077 13.1723 5.09061C13.3714 4.89047 13.4948 4.59547 13.3878 4.49484C13.2901 4.40296 12.9859 4.48608 12.6577 4.69014C10.5731 5.98698 8.13301 7.83581 5.68766 9.1729C4.90669 9.59984 4.20096 9.56779 3.48193 9.40119C2.44745 9.16135 1.36744 8.80765 0.383708 8.31045Z" fill="white"/>
</svg>
