<svg width="90" height="79" viewBox="0 0 90 79" fill="none" xmlns="http://www.w3.org/2000/svg">
<path fill-rule="evenodd" clip-rule="evenodd" d="M14.4732 18.6045L0.57312 28.3556C0.214873 28.6068 0 29.027 0 29.4765V47.1823C0 47.929 0.582089 48.5343 1.30005 48.5343C1.55915 48.5343 1.81224 48.4538 2.02704 48.3032L15.927 38.5521C16.2854 38.3007 16.5 37.8808 16.5 37.4313V19.7254C16.5 18.9787 15.918 18.3734 15.2001 18.3734C14.941 18.3734 14.6879 18.4539 14.4732 18.6045ZM21.5001 14.3938V76.7843C21.5001 77.5311 22.0821 78.1364 22.8001 78.1364C23.0591 78.1364 23.3123 78.0559 23.527 77.9053L41.927 64.9975C42.2852 64.7461 42.5 64.326 42.5 63.8765V1.48606C42.5 0.739373 41.918 0.134033 41.2 0.134033C40.941 0.134033 40.6878 0.214576 40.4731 0.365222L22.0731 13.2729C21.7149 13.5243 21.5001 13.9444 21.5001 14.3938ZM47.5 14.3938V76.7843C47.5 77.5311 48.082 78.1364 48.8 78.1364C49.0591 78.1364 49.3122 78.0559 49.5269 77.9053L67.9269 64.9975C68.2852 64.7461 68.5 64.326 68.5 63.8765V1.48606C68.5 0.739373 67.918 0.134033 67.2 0.134033C66.941 0.134033 66.6877 0.214576 66.473 0.365222L48.073 13.2729C47.7148 13.5243 47.5 13.9444 47.5 14.3938ZM87.973 18.6045L74.073 28.3556C73.7147 28.6068 73.4999 29.027 73.4999 29.4765V47.1823C73.4999 47.929 74.082 48.5343 74.8 48.5343C75.059 48.5343 75.3122 48.4538 75.5269 48.3032L89.4269 38.5521C89.7852 38.3007 90 37.8808 90 37.4313V19.7254C90 18.9787 89.418 18.3734 88.7 18.3734C88.4409 18.3734 88.1878 18.4539 87.973 18.6045Z" fill="#B4C8FF"/>
</svg>
