<svg width="56" height="56" viewBox="0 0 56 56" fill="none" xmlns="http://www.w3.org/2000/svg">
<path d="M25.75 47.8096C25.75 49.0424 26.7672 50.0596 28 50.0596C29.2285 50.0596 30.25 49.07 30.25 47.8096V12.8096C30.25 11.5768 29.2328 10.5596 28 10.5596C26.7672 10.5596 25.75 11.5768 25.75 12.8096V47.8096Z" fill="url(#paint0_linear_101_44)" stroke="url(#paint1_linear_101_44)"/>
<path d="M9.10167 45.9955L9.10501 45.9959C13.8482 46.6176 21.4641 49.1171 25.7751 51.4679C26.442 51.8407 27.2271 52.0202 28 52.0202C28.76 52.0202 29.5279 51.8692 30.1831 51.4886C34.3994 49.1629 42.0334 46.6418 46.7755 46.0196C46.7765 46.0195 46.7774 46.0194 46.7783 46.0193L47.5435 45.9265C50.8759 45.5226 53.5833 42.4616 53.5833 39.0835V10.9202C53.5833 8.94227 52.8052 7.12699 51.3685 5.81551C49.9679 4.51592 48.0894 3.85745 46.2466 4.02685H46.2465H46.246H46.2456H46.2451H46.2446H46.2442H46.2437H46.2432H46.2428H46.2423H46.2418H46.2413H46.2409H46.2404H46.2399H46.2394H46.2389H46.2384H46.2379H46.2374H46.2369H46.2365H46.2359H46.2354H46.2349H46.2344H46.2339H46.2334H46.2329H46.2324H46.2319H46.2313H46.2308H46.2303H46.2298H46.2292H46.2287H46.2282H46.2276H46.2271H46.2266H46.226H46.2255H46.2249H46.2244H46.2238H46.2233H46.2227H46.2222H46.2216H46.2211H46.2205H46.22H46.2194H46.2188H46.2183H46.2177H46.2171H46.2166H46.216H46.2154H46.2148H46.2143H46.2137H46.2131H46.2125H46.2119H46.2114H46.2108H46.2102H46.2096H46.209H46.2084H46.2078H46.2072H46.2066H46.206H46.2054H46.2048H46.2042H46.2036H46.203H46.2024H46.2018H46.2012H46.2006H46.2H46.1993H46.1987H46.1981H46.1975H46.1969H46.1963H46.1956H46.195H46.1944H46.1938H46.1931H46.1925H46.1919H46.1912H46.1906H46.19H46.1894H46.1887H46.1881H46.1874H46.1868H46.1862H46.1855H46.1849H46.1842H46.1836H46.183H46.1823H46.1817H46.181H46.1804H46.1797H46.1791H46.1784H46.1778H46.1771H46.1765H46.1758H46.1752H46.1745H46.1738H46.1732H46.1725H46.1719H46.1712H46.1705H46.1699H46.1692H46.1686H46.1679H46.1672H46.1666H46.1659H46.1652H46.1646H46.1639H46.1632H46.1626H46.1619H46.1612H46.1606H46.1599H46.1592H46.1585H46.1579H46.1572H46.1565H46.1558H46.1552H46.1545H46.1538H46.1531H46.1525H46.1518H46.1511H46.1504H46.1498H46.1491H46.1484H46.1477H46.147H46.1464H46.1457H46.145H46.1443H46.1436H46.143H46.1423H46.1416H46.1409H46.1402H46.1395H46.1389H46.1382H46.1375H46.1368H46.1361H46.1355H46.1348H46.1341H46.1334H46.1327H46.132H46.1314H46.1307H46.13H46.1293H46.1286H46.1279H46.1273H46.1266H46.1259H46.1252H46.1245H46.1238H46.1231H46.1225H46.1218H46.1211H46.1204H46.1197H46.1191H46.1184H46.1177H46.117H46.1163H46.1156H46.115H46.1143H46.1136H46.1129H46.1122H46.1116H46.1109H46.1102H46.1095H46.1089H46.1082H46.1075H46.1068H46.1061H46.1055H46.1048H46.1041H46.1034H46.1028H46.1021H46.1014H46.1008H46.1001H46.0994H46.0987H46.0981H46.0974H46.0967H46.0961H46.0954H46.0947H46.0941H46.0934H46.0927H46.0921H46.0914H46.0907H46.0901H46.0894H46.0888H46.0881H46.0874H46.0868H46.0861H46.0855H46.0848H46.0842H46.0835H46.0828H46.0822H46.0815H46.0809H46.0802H46.0796H46.0789H46.0783H46.0777H46.077H46.0764H46.0757H46.0751H46.0744H46.0738H46.0732H46.0725H46.0719H46.0712H46.0706H46.07H46.0693H46.0687H46.0681H46.0675H46.0668H46.0662H46.0656H46.065H46.0643H46.0637H46.0631H46.0625H46.0619H46.0612H46.0606H46.06H46.0594H46.0588H46.0582H46.0576H46.057H46.0564H46.0557H46.0551H46.0545H46.0539H46.0533H46.0527H46.0522H46.0516H46.051H46.0504H46.0498H46.0492H46.0486H46.048H46.0474H46.0469H46.0463H46.0457H46.0451H46.0445H46.044H46.0434H46.0428H46.0423H46.0417H46.0411H46.0406H46.04H46.0394H46.0389H46.0383H46.0378H46.0372H46.0367H46.0361H46.0356H46.035H46.0345H46.0339H46.0334H46.0329H46.0323H46.0318H46.0313H46.0307H46.0302H46.0297H46.0292H46.0286H46.0281H46.0276H46.0271H46.0266H46.0261H46.0255H46.025H46.0245H46.024H46.0235H46.023H46.0225H46.022H46.0215H46.021H46.0206H46.0201H46.0196H46.0191H46.0186H46.0181H46.0177H46.0172H46.0167H46.0163H46.0158H46.0153H46.0149H46.0144H46.014H46.0135H46.013H46.0126H46.0121H46.0117H46.0113H46.0108H46.0104H46.01H46.0095H46.0091H46.0087H46.0082H46.0078H46.0074H46.007H46.0066H46.0062H46.0057H46.0053H46.0049H46.0045H46.0041H46.0037H46.0033H46.003H46.0026H46.0022H46.0018H46.0014H46.001H46.0007H46.0003H45.9999H45.9996H45.9992H45.9988H45.9985H45.9981H45.9978H45.9974H45.9971H45.9967H45.9964H45.9961H45.9957H45.9954H45.9951H45.9948H45.9944H45.9941H45.9938H45.9935H45.9932H45.9929H45.9926H45.9923H45.992H45.9917H45.9914H45.9911H45.9908H45.9905H45.9903H45.99H45.9685L45.9472 4.02869C40.7105 4.47889 32.888 7.11806 28.4347 9.91301C28.4345 9.91313 28.4344 9.91324 28.4342 9.91335L28.1113 10.1152C28.0884 10.1185 28.0565 10.1207 28.0204 10.1199C27.9831 10.119 27.9503 10.1151 27.9262 10.1101C27.9191 10.1087 27.9139 10.1073 27.9106 10.1064L27.3722 9.79234C22.9172 6.99853 15.1002 4.40876 9.88822 4.00524C7.93058 3.8304 6.06644 4.45978 4.63301 5.76746C3.19531 7.07905 2.41666 8.89492 2.41666 10.8735V39.0602C2.41666 42.4114 5.11961 45.4963 8.42864 45.9027L9.10167 45.9955ZM46.2116 41.5503L46.2116 41.5502L46.2042 41.5512C40.8963 42.2558 32.7946 44.9121 28.0621 47.5202C28.0464 47.5201 28.0264 47.5192 28.0031 47.5168C27.933 47.5098 27.8661 47.4936 27.8207 47.4759C23.0974 44.9072 15.0056 42.2583 9.70274 41.5512L9.00615 41.4584C9.00567 41.4583 9.00518 41.4582 9.0047 41.4582C8.47834 41.3839 7.95209 41.0768 7.55355 40.6231C7.15506 40.1695 6.91666 39.6063 6.91666 39.0602V10.8735C6.91666 10.1645 7.1911 9.53134 7.6645 9.09545C8.10558 8.69303 8.66048 8.48018 9.28666 8.48018H9.2872H9.28775H9.2883H9.28884H9.28939H9.28994H9.29048H9.29103H9.29158H9.29212H9.29267H9.29322H9.29377H9.29431H9.29486H9.29541H9.29595H9.2965H9.29705H9.29759H9.29814H9.29869H9.29923H9.29978H9.30033H9.30087H9.30142H9.30197H9.30252H9.30306H9.30361H9.30416H9.3047H9.30525H9.3058H9.30634H9.30689H9.30744H9.30798H9.30853H9.30908H9.30962H9.31017H9.31072H9.31127H9.31181H9.31236H9.31291H9.31345H9.314H9.31455H9.31509H9.31564H9.31619H9.31673H9.31728H9.31783H9.31837H9.31892H9.31947H9.32002H9.32056H9.32111H9.32166H9.3222H9.32275H9.3233H9.32384H9.32439H9.32494H9.32548H9.32603H9.32658H9.32712H9.32767H9.32822H9.32877H9.32931H9.32986H9.33041H9.33095H9.3315H9.33205H9.33259H9.33314H9.33369H9.33423H9.33478H9.33533H9.33587H9.33642H9.33697H9.33752H9.33806H9.33861H9.33916H9.3397H9.34025H9.3408H9.34134H9.34189H9.34244H9.34298H9.34353H9.34408H9.34462H9.34517H9.34572H9.34627H9.34681H9.34736H9.34791H9.34845H9.349H9.34955H9.35009H9.35064H9.35119H9.35173H9.35228H9.35283H9.35337H9.35392H9.35447H9.35502H9.35556H9.35611H9.35666H9.3572H9.35775H9.3583H9.35884H9.35939H9.35994H9.36048H9.36103H9.36158H9.36212H9.36267H9.36322H9.36377H9.36431H9.36486H9.36541H9.36595H9.3665H9.36705H9.36759H9.36814H9.36869H9.36923H9.36978H9.37033H9.37087H9.37142H9.37197H9.37252H9.37306H9.37361H9.37416H9.3747H9.37525H9.3758H9.37634H9.37689H9.37744H9.37798H9.37853H9.37908H9.37962H9.38017H9.38072H9.38127H9.38181H9.38236H9.38291H9.38345H9.384H9.38455H9.38509H9.38564H9.38619H9.38673H9.38728H9.38783H9.38837H9.38892H9.38947H9.39002H9.39056H9.39111H9.39166H9.3922H9.39275H9.3933H9.39384H9.39439H9.39494H9.39548H9.39603H9.39658H9.39712H9.39767H9.39822H9.39877H9.39931H9.39986H9.40041H9.40095H9.4015H9.40205H9.40259H9.40314H9.40369H9.40423H9.40478H9.40533H9.40587H9.40642H9.40697H9.40752H9.40806H9.40861H9.40916H9.4097H9.41025H9.4108H9.41134H9.41189H9.41244H9.41298H9.41353H9.41408H9.41462H9.41517H9.41572H9.41627H9.41681H9.41736H9.41791H9.41845H9.419H9.41955H9.42009H9.42064H9.42119H9.42173H9.42228H9.42283H9.42337H9.42392H9.42447H9.42501H9.42556H9.42611H9.42666H9.4272H9.42775H9.4283H9.42884H9.42939H9.42994H9.43048H9.43103H9.43158H9.43212H9.43267H9.43322H9.43376H9.43431H9.43486H9.43541H9.43595H9.4365H9.43705H9.43759H9.43814H9.43869H9.43923H9.43978H9.44033H9.44087H9.44142H9.44197H9.44251H9.44306H9.44361H9.44416H9.4447H9.44525H9.4458H9.44634H9.44689H9.44744H9.44798H9.44853H9.44908H9.44962H9.45017H9.45072H9.45126H9.45181H9.45236H9.45291H9.45345H9.454H9.45455H9.45509H9.45564H9.45619H9.45673H9.45728H9.45783H9.45837H9.45892H9.45947H9.46001H9.46056H9.46111H9.46166H9.4622H9.46275H9.4633H9.46384H9.46439H9.46494H9.46548H9.46603H9.46658H9.46712H9.46767H9.46822H9.46876H9.46931H9.46986H9.47041H9.47095H9.4715H9.47205H9.47259H9.47314H9.47369H9.47423H9.47478H9.47533H9.47587H9.47642H9.47697H9.47751H9.47806H9.47861H9.47916H9.4797H9.48025H9.4808H9.48134H9.48189H9.48244H9.48298H9.48353H9.48408H9.48462H9.48517H9.48572H9.48626H9.48681H9.48736H9.48791H9.48845H9.489H9.48955H9.49009H9.49064H9.49119H9.49173H9.49228H9.49283H9.49337H9.49392H9.49447H9.49501H9.49556H9.49611H9.49666H9.4972H9.49775H9.4983H9.49884H9.49939H9.49994H9.50048H9.50103H9.50158H9.50212H9.50267H9.50322H9.50376H9.50431H9.50486H9.50541H9.50595H9.5065H9.50705H9.50759H9.50814H9.50869H9.50923H9.50978H9.51033H9.51087H9.51142H9.51197H9.51251H9.51306H9.51361H9.51416H9.5147H9.51525H9.5158H9.51634H9.51689H9.51744H9.51798H9.51853H9.51908H9.51962H9.52017H9.52072H9.52126H9.52181H9.52236H9.52291H9.52345H9.524H9.52455H9.52509H9.52564H9.52619H9.52673H9.52728H9.52783H9.52837H9.52892H9.52947H9.53001H9.53056H9.53111H9.53166H9.5322H9.53275H9.5333H9.53384H9.53439H9.53494H9.53548H9.53603H9.53658H9.53712H9.53767H9.53822H9.53876H9.53931H9.53986H9.54041H9.54095H9.5415H9.54205H9.54259H9.54314H9.54369H9.54423H9.54478H9.54533H9.54587H9.54613C11.7764 8.66488 14.6662 9.33978 17.5035 10.2778C20.3487 11.2185 23.104 12.4116 25.055 13.6096L25.055 13.6097L25.0647 13.6154L25.6187 13.9386C27.02 14.8073 29.0404 14.8018 30.4796 13.9121L30.4899 13.9058L30.4999 13.8989L30.8642 13.6484C32.7788 12.4534 35.5116 11.2572 38.3298 10.3091C41.1434 9.36256 44.0035 8.67641 46.1757 8.48018H46.1759H46.1764H46.1768H46.1773H46.1777H46.1782H46.1787H46.1791H46.1796H46.1801H46.1805H46.181H46.1815H46.182H46.1824H46.1829H46.1834H46.1839H46.1844H46.1849H46.1854H46.1859H46.1864H46.1869H46.1874H46.1879H46.1884H46.1889H46.1894H46.1899H46.1904H46.1909H46.1914H46.192H46.1925H46.193H46.1935H46.1941H46.1946H46.1951H46.1957H46.1962H46.1967H46.1973H46.1978H46.1984H46.1989H46.1995H46.2H46.2006H46.2011H46.2017H46.2022H46.2028H46.2033H46.2039H46.2045H46.205H46.2056H46.2062H46.2067H46.2073H46.2079H46.2085H46.209H46.2096H46.2102H46.2108H46.2114H46.2119H46.2125H46.2131H46.2137H46.2143H46.2149H46.2155H46.2161H46.2167H46.2173H46.2179H46.2185H46.2191H46.2197H46.2203H46.2209H46.2215H46.2221H46.2227H46.2233H46.224H46.2246H46.2252H46.2258H46.2264H46.227H46.2277H46.2283H46.2289H46.2295H46.2302H46.2308H46.2314H46.2321H46.2327H46.2333H46.234H46.2346H46.2352H46.2359H46.2365H46.2371H46.2378H46.2384H46.2391H46.2397H46.2403H46.241H46.2416H46.2423H46.2429H46.2436H46.2442H46.2449H46.2455H46.2462H46.2468H46.2475H46.2481H46.2488H46.2495H46.2501H46.2508H46.2514H46.2521H46.2528H46.2534H46.2541H46.2547H46.2554H46.2561H46.2567H46.2574H46.2581H46.2587H46.2594H46.2601H46.2607H46.2614H46.2621H46.2627H46.2634H46.2641H46.2648H46.2654H46.2661H46.2668H46.2675H46.2681H46.2688H46.2695H46.2702H46.2708H46.2715H46.2722H46.2729H46.2735H46.2742H46.2749H46.2756H46.2763H46.2769H46.2776H46.2783H46.279H46.2797H46.2803H46.281H46.2817H46.2824H46.2831H46.2838H46.2844H46.2851H46.2858H46.2865H46.2872H46.2878H46.2885H46.2892H46.2899H46.2906H46.2913H46.292H46.2926H46.2933H46.294H46.2947H46.2954H46.2961H46.2967H46.2974H46.2981H46.2988H46.2995H46.3002H46.3008H46.3015H46.3022H46.3029H46.3036H46.3042H46.3049H46.3056H46.3063H46.307H46.3077H46.3083H46.309H46.3097H46.3104H46.3111H46.3117H46.3124H46.3131H46.3138H46.3144H46.3151H46.3158H46.3165H46.3172H46.3178H46.3185H46.3192H46.3199H46.3205H46.3212H46.3219H46.3225H46.3232H46.3239H46.3246H46.3252H46.3259H46.3266H46.3272H46.3279H46.3286H46.3292H46.3299H46.3306H46.3312H46.3319H46.3326H46.3332H46.3339H46.3345H46.3352H46.3359H46.3365H46.3372H46.3378H46.3385H46.3391H46.3398H46.3405H46.3411H46.3418H46.3424H46.3431H46.3437H46.3444H46.345H46.3456H46.3463H46.3469H46.3476H46.3482H46.3489H46.3495H46.3501H46.3508H46.3514H46.3521H46.3527H46.3533H46.354H46.3546H46.3552H46.3558H46.3565H46.3571H46.3577H46.3583H46.359H46.3596H46.3602H46.3608H46.3614H46.3621H46.3627H46.3633H46.3639H46.3645H46.3651H46.3657H46.3663H46.3669H46.3676H46.3682H46.3688H46.3694H46.37H46.3706H46.3711H46.3717H46.3723H46.3729H46.3735H46.3741H46.3747H46.3753H46.3759H46.3764H46.377H46.3776H46.3782H46.3788H46.3793H46.3799H46.3805H46.381H46.3816H46.3822H46.3827H46.3833H46.3839H46.3844H46.385H46.3855H46.3861H46.3866H46.3872H46.3877H46.3883H46.3888H46.3894H46.3899H46.3904H46.391H46.3915H46.392H46.3926H46.3931H46.3936H46.3941H46.3947H46.3952H46.3957H46.3962H46.3967H46.3973H46.3978H46.3983H46.3988H46.3993H46.3998H46.4003H46.4008H46.4013H46.4018H46.4023H46.4027H46.4032H46.4037H46.4042H46.4047H46.4052H46.4056H46.4061H46.4066H46.407H46.4075H46.408H46.4084H46.4089H46.4093H46.4098H46.4103H46.4107H46.4111H46.4116H46.412H46.4125H46.4129H46.4133H46.4138H46.4142H46.4146H46.4151H46.4155H46.4159H46.4163H46.4167H46.4171H46.4175H46.418H46.4184H46.4188H46.4192H46.4196H46.4199H46.4203H46.4207H46.4211H46.4215H46.4219H46.4222H46.4226H46.423H46.4234H46.4237H46.4241H46.4244H46.4248H46.4252H46.4255H46.4259H46.4262H46.4265H46.4269H46.4272H46.4276H46.4279H46.4282H46.4285H46.4289H46.4292H46.4295H46.4298H46.4301H46.4304H46.4307H46.431H46.4313H46.4316H46.4319H46.4322H46.4325H46.4328H46.433H46.4333H46.4468L46.4603 8.47945C47.1985 8.43955 47.8344 8.65579 48.3344 9.09461C48.8139 9.55855 49.0833 10.172 49.0833 10.8968V39.0602C49.0833 39.6071 48.8442 40.1765 48.4455 40.6329C48.0466 41.0896 47.523 41.3931 47.0032 41.4571C47.0029 41.4572 47.0026 41.4572 47.0024 41.4572L46.2116 41.5503Z" fill="url(#paint2_linear_101_44)" stroke="url(#paint3_linear_101_44)"/>
<path d="M18.0833 21.5596H12.8333C11.8767 21.5596 11.0833 20.7662 11.0833 19.8096C11.0833 18.8529 11.8767 18.0596 12.8333 18.0596H18.0833C19.04 18.0596 19.8333 18.8529 19.8333 19.8096C19.8333 20.7662 19.04 21.5596 18.0833 21.5596Z" fill="url(#paint4_linear_101_44)"/>
<path d="M19.8333 28.5596H12.8333C11.8767 28.5596 11.0833 27.7662 11.0833 26.8096C11.0833 25.8529 11.8767 25.0596 12.8333 25.0596H19.8333C20.79 25.0596 21.5833 25.8529 21.5833 26.8096C21.5833 27.7662 20.79 28.5596 19.8333 28.5596Z" fill="url(#paint5_linear_101_44)"/>
<defs>
<linearGradient id="paint0_linear_101_44" x1="27.5833" y1="11.2125" x2="31.7316" y2="11.4227" gradientUnits="userSpaceOnUse">
<stop stop-color="#DEE6FF"/>
<stop offset="1" stop-color="#AE56F2"/>
</linearGradient>
<linearGradient id="paint1_linear_101_44" x1="27.5833" y1="11.2125" x2="31.7316" y2="11.4227" gradientUnits="userSpaceOnUse">
<stop stop-color="#DEE6FF"/>
<stop offset="1" stop-color="#AE56F2"/>
</linearGradient>
<linearGradient id="paint2_linear_101_44" x1="22.0277" y1="4.66343" x2="66.0738" y2="30.8469" gradientUnits="userSpaceOnUse">
<stop stop-color="#DEE6FF"/>
<stop offset="1" stop-color="#AE56F2"/>
</linearGradient>
<linearGradient id="paint3_linear_101_44" x1="22.0277" y1="4.66343" x2="66.0738" y2="30.8469" gradientUnits="userSpaceOnUse">
<stop stop-color="#DEE6FF"/>
<stop offset="1" stop-color="#AE56F2"/>
</linearGradient>
<linearGradient id="paint4_linear_101_44" x1="14.4167" y1="18.0735" x2="17.9505" y2="22.9983" gradientUnits="userSpaceOnUse">
<stop stop-color="#DEE6FF"/>
<stop offset="1" stop-color="#AE56F2"/>
</linearGradient>
<linearGradient id="paint5_linear_101_44" x1="15.0833" y1="25.0735" x2="18.3695" y2="30.5691" gradientUnits="userSpaceOnUse">
<stop stop-color="#DEE6FF"/>
<stop offset="1" stop-color="#AE56F2"/>
</linearGradient>
</defs>
</svg>
