<svg width="56" height="56" viewBox="0 0 56 56" fill="none" xmlns="http://www.w3.org/2000/svg">
<path d="M37.95 41.7998H47.95C51.1256 41.7998 53.7 39.2313 53.7 36.0498V30.7998V8.0498C53.7 4.86834 51.1256 2.2998 47.95 2.2998H9.45001C6.27445 2.2998 3.70001 4.86834 3.70001 8.0498V36.0498C3.70001 39.2313 6.27445 41.7998 9.45001 41.7998H19.45V47.7998H18.2C16.9572 47.7998 15.95 48.8118 15.95 50.0498C15.95 51.2878 16.9572 52.2998 18.2 52.2998H39.2C40.4428 52.2998 41.45 51.2878 41.45 50.0498C41.45 48.8118 40.4428 47.7998 39.2 47.7998H37.95V41.7998ZM8.20001 33.0498H49.2V36.0498C49.2 36.7368 48.6392 37.2998 47.95 37.2998H9.45001C8.7608 37.2998 8.20001 36.7368 8.20001 36.0498V33.0498ZM23.95 47.7998V41.7998H33.45V47.7998H23.95ZM8.20001 28.5498V8.0498C8.20001 7.3628 8.76081 6.7998 9.45001 6.7998H47.95C48.6392 6.7998 49.2 7.3628 49.2 8.0498V28.5498H8.20001Z" fill="url(#paint0_linear_36_6843)" stroke="url(#paint1_linear_36_6843)"/>
<defs>
<linearGradient id="paint0_linear_36_6843" x1="22.8666" y1="2.99444" x2="67.2875" y2="27.7568" gradientUnits="userSpaceOnUse">
<stop stop-color="#DEE6FF"/>
<stop offset="1" stop-color="#AE56F2"/>
</linearGradient>
<linearGradient id="paint1_linear_36_6843" x1="22.8666" y1="2.99444" x2="67.2875" y2="27.7568" gradientUnits="userSpaceOnUse">
<stop stop-color="#DEE6FF"/>
<stop offset="1" stop-color="#AE56F2"/>
</linearGradient>
</defs>
</svg>
