<svg width="56" height="56" viewBox="0 0 56 56" fill="none" xmlns="http://www.w3.org/2000/svg">
<path d="M47.386 53.6998L47.3888 53.6998C50.9132 53.6802 53.7 50.7654 53.7 47.2777V18.9998C53.7 15.4927 50.8931 12.5777 47.35 12.5777H43.084C42.1413 12.5777 41.334 11.7987 41.334 10.7737C41.334 6.13095 37.6075 2.2998 32.95 2.2998C28.291 2.2998 24.584 6.13245 24.584 10.7737C24.584 11.7961 23.7613 12.5777 22.834 12.5777H18.784C15.2409 12.5777 12.434 15.4927 12.434 18.9998V22.8516C12.434 23.8946 11.6087 24.6737 10.684 24.6737C6.00773 24.6737 2.29999 28.506 2.29999 33.148C2.29999 37.79 6.00777 41.6219 10.684 41.6219C11.6113 41.6219 12.434 42.4035 12.434 43.4259V47.2777C12.434 50.8039 15.2419 53.6998 18.784 53.6998H26.884C28.1501 53.6998 29.184 52.6659 29.184 51.3998V47.2777C29.184 45.1171 30.8929 43.4219 32.95 43.4219C35.0098 43.4219 36.734 45.1198 36.734 47.2777V51.3998C36.734 52.6627 37.7466 53.6998 39.034 53.6998H47.3139H47.3141H47.3142H47.3143H47.3144H47.3145H47.3146H47.3147H47.3148H47.3149H47.315H47.3151H47.3152H47.3153H47.3154H47.3155H47.3156H47.3157H47.3158H47.3159H47.316H47.3161H47.3162H47.3163H47.3164H47.3165H47.3166H47.3167H47.3167H47.3168H47.3169H47.317H47.3171H47.3172H47.3173H47.3174H47.3175H47.3176H47.3177H47.3178H47.3179H47.3179H47.318H47.3181H47.3182H47.3183H47.3184H47.3185H47.3186H47.3187H47.3187H47.3188H47.3189H47.319H47.3191H47.3192H47.3193H47.3193H47.3194H47.3195H47.3196H47.3197H47.3198H47.3198H47.3199H47.32H47.3201H47.3202H47.3203H47.3203H47.3204H47.3205H47.3206H47.3207H47.3207H47.3208H47.3209H47.321H47.3211H47.3211H47.3212H47.3213H47.3214H47.3214H47.3215H47.3216H47.3217H47.3217H47.3218H47.3219H47.322H47.322H47.3221H47.3222H47.3223H47.3223H47.3224H47.3225H47.3226H47.3226H47.3227H47.3228H47.3229H47.3229H47.323H47.3231H47.3231H47.3232H47.3233H47.3233H47.3234H47.3235H47.3236H47.3236H47.3237H47.3238H47.3238H47.3239H47.324H47.324H47.3241H47.3242H47.3242H47.3243H47.3244H47.3244H47.3245H47.3246H47.3246H47.3247H47.3248H47.3248H47.3249H47.325H47.325H47.3251H47.3252H47.3252H47.3253H47.3254H47.3254H47.3255H47.3255H47.3256H47.3257H47.3257H47.3258H47.3259H47.3259H47.326H47.326H47.3261H47.3262H47.3262H47.3263H47.3264H47.3264H47.3265H47.3265H47.3266H47.3267H47.3267H47.3268H47.3268H47.3269H47.327H47.327H47.3271H47.3271H47.3272H47.3273H47.3273H47.3274H47.3274H47.3275H47.3275H47.3276H47.3277H47.3277H47.3278H47.3278H47.3279H47.3279H47.328H47.3281H47.3281H47.3282H47.3282H47.3283H47.3283H47.3284H47.3285H47.3285H47.3286H47.3286H47.3287H47.3287H47.3288H47.3288H47.3289H47.329H47.329H47.3291H47.3291H47.3292H47.3292H47.3293H47.3293H47.3294H47.3295H47.3295H47.3296H47.3296H47.3297H47.3297H47.3298H47.3298H47.3299H47.3299H47.33H47.3301H47.3301H47.3302H47.3302H47.3303H47.3303H47.3304H47.3304H47.3305H47.3305H47.3306H47.3306H47.3307H47.3307H47.3308H47.3309H47.3309H47.331H47.331H47.3311H47.3311H47.3312H47.3312H47.3313H47.3313H47.3314H47.3314H47.3315H47.3315H47.3316H47.3316H47.3317H47.3318H47.3318H47.3319H47.3319H47.332H47.332H47.3321H47.3321H47.3322H47.3322H47.3323H47.3323H47.3324H47.3324H47.3325H47.3325H47.3326H47.3327H47.3327H47.3328H47.3328H47.3329H47.3329H47.333H47.333H47.3331H47.3331H47.3332H47.3332H47.3333H47.3333H47.3334H47.3335H47.3335H47.3336H47.3336H47.3337H47.3337H47.3338H47.3338H47.3339H47.3339H47.334H47.334H47.3341H47.3342H47.3342H47.3343H47.3343H47.3344H47.3344H47.3345H47.3345H47.3346H47.3346H47.3347H47.3348H47.3348H47.3349H47.3349H47.335H47.335H47.3351H47.3351H47.3352H47.3353H47.3353H47.3354H47.3354H47.3355H47.3355H47.3356H47.3356H47.3357H47.3358H47.3358H47.3359H47.3359H47.336H47.336H47.3361H47.3362H47.3362H47.3363H47.3363H47.3364H47.3364H47.3365H47.3366H47.3366H47.3367H47.3367H47.3368H47.3369H47.3369H47.337H47.337H47.3371H47.3372H47.3372H47.3373H47.3373H47.3374H47.3375H47.3375H47.3376H47.3376H47.3377H47.3378H47.3378H47.3379H47.3379H47.338H47.3381H47.3381H47.3382H47.3383H47.3383H47.3384H47.3385H47.3385H47.3386H47.3386H47.3387H47.3388H47.3388H47.3389H47.339H47.339H47.3391H47.3392H47.3392H47.3393H47.3394H47.3394H47.3395H47.3396H47.3396H47.3397H47.3398H47.3398H47.3399H47.34H47.34H47.3401H47.3402H47.3402H47.3403H47.3404H47.3404H47.3405H47.3406H47.3407H47.3407H47.3408H47.3409H47.3409H47.341H47.3411H47.3412H47.3412H47.3413H47.3414H47.3414H47.3415H47.3416H47.3417H47.3417H47.3418H47.3419H47.342H47.342H47.3421H47.3422H47.3423H47.3423H47.3424H47.3425H47.3426H47.3426H47.3427H47.3428H47.3429H47.343H47.343H47.3431H47.3432H47.3433H47.3434H47.3434H47.3435H47.3436H47.3437H47.3438H47.3438H47.3439H47.344H47.3441H47.3442H47.3443H47.3443H47.3444H47.3445H47.3446H47.3447H47.3448H47.3448H47.3449H47.345H47.3451H47.3452H47.3453H47.3454H47.3455H47.3455H47.3456H47.3457H47.3458H47.3459H47.346H47.3461H47.3462H47.3463H47.3463H47.3464H47.3465H47.3466H47.3467H47.3468H47.3469H47.347H47.3471H47.3472H47.3473H47.3474H47.3475H47.3476H47.3477H47.3478H47.3479H47.348H47.3481H47.3481H47.3482H47.3483H47.3484H47.3485H47.3486H47.3487H47.3488H47.3489H47.3491H47.3492H47.3493H47.3494H47.3495H47.3496H47.3497H47.3498H47.3499H47.35L47.386 53.6998ZM49.1 47.2777C49.1 48.3025 48.2922 49.084 47.3641 49.0998H41.334V47.2777C41.334 42.6335 37.606 38.8219 32.95 38.8219C28.2925 38.8219 24.584 42.635 24.584 47.2777V49.0998H18.784C17.8438 49.0998 17.034 48.3233 17.034 47.2777V43.4259C17.034 39.9158 14.2061 37.0219 10.684 37.0219C8.62686 37.0219 6.89999 35.3086 6.89999 33.148C6.89999 30.9707 8.62559 29.2737 10.684 29.2737C14.2081 29.2737 17.034 26.3598 17.034 22.8516V18.9998C17.034 17.9696 17.8463 17.1777 18.784 17.1777H22.834C26.3561 17.1777 29.184 14.2838 29.184 10.7737C29.184 8.59365 30.8942 6.8998 32.95 6.8998C35.0085 6.8998 36.734 8.59641 36.734 10.7737C36.734 14.2828 39.5429 17.1777 43.084 17.1777H47.35C48.2722 17.1777 49.1 17.9722 49.1 18.9998V47.2777Z" fill="url(#paint0_linear_36_6849)" stroke="url(#paint1_linear_36_6849)"/>
<defs>
<linearGradient id="paint0_linear_36_6849" x1="21.9999" y1="3" x2="67.69" y2="28.4699" gradientUnits="userSpaceOnUse">
<stop stop-color="#DEE6FF"/>
<stop offset="1" stop-color="#AE56F2"/>
</linearGradient>
<linearGradient id="paint1_linear_36_6849" x1="21.9999" y1="3" x2="67.69" y2="28.4699" gradientUnits="userSpaceOnUse">
<stop stop-color="#DEE6FF"/>
<stop offset="1" stop-color="#AE56F2"/>
</linearGradient>
</defs>
</svg>
