<svg width="56" height="56" viewBox="0 0 56 56" fill="none" xmlns="http://www.w3.org/2000/svg">
<path d="M10.8633 41.4608C10.8392 45.3883 13.755 49.4295 17.4823 50.664L10.8633 41.4608ZM10.8633 41.4608C10.8633 41.4604 10.8633 41.4601 10.8633 41.4597L10.8867 30.5195C10.8867 30.5193 10.8867 30.5192 10.8867 30.519L10.8867 30.5185L10.8633 41.4608ZM15.3867 30.5206V30.5195L24.9257 53.1374C25.8289 53.4384 26.9346 53.5829 28 53.5829C29.0665 53.5829 30.1669 53.4381 31.0628 53.1644L31.0628 53.1645L31.0743 53.1607L38.5177 50.6874L38.52 50.6866C42.2457 49.4282 45.1367 45.4115 45.1367 41.4862V30.6595C45.1367 29.4267 44.1195 28.4095 42.8867 28.4095C41.6539 28.4095 40.6367 29.4267 40.6367 30.6595V41.4862C40.6367 42.4401 40.232 43.5123 39.5618 44.4396C38.8922 45.3661 37.9972 46.093 37.0815 46.402C37.0811 46.4021 37.0807 46.4023 37.0803 46.4024L29.6421 48.874C29.6416 48.8742 29.6411 48.8743 29.6406 48.8745C29.2435 49.0032 28.6375 49.077 28 49.077C27.3625 49.077 26.7565 49.0032 26.3594 48.8745C26.3589 48.8743 26.3584 48.8742 26.3579 48.874L18.9197 46.4024C18.9193 46.4023 18.9189 46.4021 18.9185 46.402C18.0029 46.093 17.1081 45.3663 16.4386 44.4372C15.7689 43.5079 15.3635 42.4299 15.3633 41.4635C15.3633 41.4633 15.3633 41.4631 15.3633 41.4629L15.3867 30.5206ZM17.4828 50.6642L24.9252 53.1372L17.4828 50.6642Z" fill="url(#paint0_linear_36_6861)" stroke="url(#paint1_linear_36_6861)"/>
<path d="M47.6833 35C47.6833 36.2328 48.7005 37.25 49.9333 37.25C51.1662 37.25 52.1833 36.2328 52.1833 35V21C52.1833 19.7672 51.1662 18.75 49.9333 18.75C48.7005 18.75 47.6833 19.7672 47.6833 21V35Z" fill="url(#paint2_linear_36_6861)" stroke="url(#paint3_linear_36_6861)"/>
<path d="M22.1999 38.5711L22.1967 38.569L8.15032 29.3992L22.1999 38.5711ZM22.1999 38.5711C23.8568 39.6344 25.9608 40.167 28.0233 40.167C30.1041 40.167 32.2119 39.66 33.8743 38.5684C33.8743 38.5683 33.8744 38.5683 33.8745 38.5683L47.851 29.3984L47.8514 29.3981C50.5806 27.6032 52.23 24.5769 52.23 21.3037C52.23 18.0304 50.5806 15.0041 47.8514 13.2092L47.851 13.2089L33.8759 4.04C33.8757 4.03983 33.8754 4.03966 33.8751 4.03949C32.2271 2.94935 30.1322 2.41711 28.0562 2.41408C25.9797 2.41104 23.8798 2.93735 22.2211 4.01429L22.2208 4.01445L8.15082 13.1611L8.15032 13.1614M22.1999 38.5711L8.15032 13.1614M8.15032 13.1614C5.39597 14.9567 3.74667 17.984 3.74667 21.2803C3.74667 24.5766 5.39585 27.6037 8.15001 29.399L8.15032 13.1614ZM24.6795 7.79266L24.6796 7.79276L24.6887 7.78656C25.5357 7.2081 26.7561 6.91699 28.0233 6.91699C29.3029 6.91699 30.5342 7.22681 31.418 7.77208L45.3887 16.9382C46.8815 17.9191 47.73 19.4887 47.73 21.2803C47.73 23.0719 46.8815 24.6416 45.3887 25.6225L31.414 34.7912C31.4137 34.7914 31.4135 34.7916 31.4132 34.7917C30.548 35.3543 29.3153 35.6553 28.0467 35.6553C26.7777 35.6553 25.5446 35.3542 24.6793 34.7912L10.6333 25.6216L10.6319 25.6207C9.1177 24.6397 8.27001 23.0711 8.27001 21.2803C8.27001 19.4933 9.13803 17.922 10.6337 16.9387C10.634 16.9386 10.6343 16.9384 10.6346 16.9382L24.6795 7.79266Z" fill="url(#paint4_linear_36_6861)" stroke="url(#paint5_linear_36_6861)"/>
<defs>
<linearGradient id="paint0_linear_36_6861" x1="24.0388" y1="28.8661" x2="49.031" y2="47.9323" gradientUnits="userSpaceOnUse">
<stop stop-color="#DEE6FF"/>
<stop offset="1" stop-color="#AE56F2"/>
</linearGradient>
<linearGradient id="paint1_linear_36_6861" x1="24.0388" y1="28.8661" x2="49.031" y2="47.9323" gradientUnits="userSpaceOnUse">
<stop stop-color="#DEE6FF"/>
<stop offset="1" stop-color="#AE56F2"/>
</linearGradient>
<linearGradient id="paint2_linear_36_6861" x1="49.5167" y1="19.3195" x2="53.6245" y2="19.7775" gradientUnits="userSpaceOnUse">
<stop stop-color="#DEE6FF"/>
<stop offset="1" stop-color="#AE56F2"/>
</linearGradient>
<linearGradient id="paint3_linear_36_6861" x1="49.5167" y1="19.3195" x2="53.6245" y2="19.7775" gradientUnits="userSpaceOnUse">
<stop stop-color="#DEE6FF"/>
<stop offset="1" stop-color="#AE56F2"/>
</linearGradient>
<linearGradient id="paint4_linear_36_6861" x1="22.3355" y1="3.06005" x2="59.4876" y2="29.817" gradientUnits="userSpaceOnUse">
<stop stop-color="#DEE6FF"/>
<stop offset="1" stop-color="#AE56F2"/>
</linearGradient>
<linearGradient id="paint5_linear_36_6861" x1="22.3355" y1="3.06005" x2="59.4876" y2="29.817" gradientUnits="userSpaceOnUse">
<stop stop-color="#DEE6FF"/>
<stop offset="1" stop-color="#AE56F2"/>
</linearGradient>
</defs>
</svg>
