<svg width="62" height="62" viewBox="0 0 62 62" fill="none" xmlns="http://www.w3.org/2000/svg">
<path id="Icon" fill-rule="evenodd" clip-rule="evenodd" d="M27.1978 19.8772L41.3596 28.9812C42.4048 29.6531 42.9273 29.989 43.1078 30.4162C43.2655 30.7894 43.2655 31.2106 43.1078 31.5838C42.9273 32.011 42.4048 32.3469 41.3596 33.0188L27.1978 42.1228C25.9934 42.8971 25.3912 43.2843 24.8931 43.2487C24.4591 43.2177 24.06 42.9998 23.7992 42.6515C23.5 42.2518 23.5 41.5359 23.5 40.104V21.896C23.5 20.4641 23.5 19.7482 23.7992 19.3485C24.06 19.0002 24.4591 18.7823 24.8931 18.7513C25.3912 18.7157 25.9934 19.1029 27.1978 19.8772Z" stroke="#DCDCF0" stroke-width="2" stroke-linecap="round" stroke-linejoin="round"/>
</svg>
