<svg width="70" height="70" viewBox="0 0 70 70" fill="none" xmlns="http://www.w3.org/2000/svg">
<g filter="url(#filter0_d_1397_11732)">
<circle cx="33" cy="34" r="25" fill="url(#paint0_linear_1397_11732)"/>
</g>
<path fill-rule="evenodd" clip-rule="evenodd" d="M38.3925 21.8411H27.6075C27.061 21.8411 26.7877 22.259 26.8278 22.6143C27.0355 24.4425 27.4253 26.5413 28.0775 27.8834C28.9465 29.6747 31.0434 31.687 32.6265 33.0181C32.73 33.1093 32.8627 33.1595 33 33.1595C33.1373 33.1595 33.27 33.1093 33.3735 33.0181C34.9584 31.687 37.0535 29.6747 37.9225 27.8816C38.5747 26.5413 38.9645 24.4425 39.174 22.6143C39.2141 22.259 38.939 21.8411 38.3943 21.8411H38.3925ZM27.6075 20C26.0699 20 24.8402 21.2814 25.0169 22.8242C25.2283 24.6744 25.6418 27.0476 26.4416 28.6935C27.5 30.8733 29.8811 33.1046 31.4624 34.4339C32.3624 35.1887 33.6376 35.1887 34.5376 34.4339C36.1189 33.1046 38.5 30.8733 39.5584 28.6935C40.3582 27.0476 40.7717 24.6744 40.9831 22.8242C41.1598 21.2814 39.9301 20 38.3925 20H27.6075Z" fill="#252200"/>
<path fill-rule="evenodd" clip-rule="evenodd" d="M27.5733 47.1875H38.4267C38.9767 47.1875 39.2517 46.776 39.2113 46.4262C39.0023 44.6264 38.61 42.5602 37.9537 41.2407C37.0792 39.4753 34.969 37.4924 33.3758 36.1838C33.2717 36.094 33.1382 36.0446 33 36.0446C32.8618 36.0446 32.7283 36.094 32.6242 36.1838C31.0292 37.4942 28.9208 39.4753 28.0463 41.2407C27.39 42.5602 26.9977 44.6264 26.7868 46.4262C26.7465 46.776 27.0233 47.1875 27.5715 47.1875H27.5733ZM38.4267 49C39.974 49 41.2115 47.7385 41.0337 46.2196C40.821 44.3962 40.4048 42.0617 39.6 40.4413C38.5348 38.2954 36.1387 36.0986 34.5473 34.79C34.1141 34.4296 33.5661 34.2321 33 34.2321C32.4339 34.2321 31.8859 34.4296 31.4527 34.79C29.8613 36.0986 27.4652 38.2954 26.4 40.4413C25.5952 42.0617 25.179 44.398 24.9663 46.2196C24.7885 47.7385 26.026 49 27.5715 49H38.4267ZM22 20.9062C22 20.6659 22.0966 20.4354 22.2685 20.2654C22.4404 20.0955 22.6736 20 22.9167 20H43.0833C43.3264 20 43.5596 20.0955 43.7315 20.2654C43.9034 20.4354 44 20.6659 44 20.9062C44 21.1466 43.9034 21.3771 43.7315 21.5471C43.5596 21.717 43.3264 21.8125 43.0833 21.8125H22.9167C22.6736 21.8125 22.4404 21.717 22.2685 21.5471C22.0966 21.3771 22 21.1466 22 20.9062Z" fill="#252200"/>
<path fill-rule="evenodd" clip-rule="evenodd" d="M22 48C22 47.7348 22.0966 47.4804 22.2685 47.2929C22.4404 47.1054 22.6736 47 22.9167 47H43.0833C43.3264 47 43.5596 47.1054 43.7315 47.2929C43.9034 47.4804 44 47.7348 44 48C44 48.2652 43.9034 48.5196 43.7315 48.7071C43.5596 48.8946 43.3264 49 43.0833 49H22.9167C22.6736 49 22.4404 48.8946 22.2685 48.7071C22.0966 48.5196 22 48.2652 22 48Z" fill="#252200"/>
<defs>
<filter id="filter0_d_1397_11732" x="0" y="0" width="70" height="70" filterUnits="userSpaceOnUse" color-interpolation-filters="sRGB">
<feFlood flood-opacity="0" result="BackgroundImageFix"/>
<feColorMatrix in="SourceAlpha" type="matrix" values="0 0 0 0 0 0 0 0 0 0 0 0 0 0 0 0 0 0 127 0" result="hardAlpha"/>
<feOffset dx="2" dy="1"/>
<feGaussianBlur stdDeviation="5"/>
<feComposite in2="hardAlpha" operator="out"/>
<feColorMatrix type="matrix" values="0 0 0 0 1 0 0 0 0 0.965667 0 0 0 0 0.141667 0 0 0 0.52 0"/>
<feBlend mode="normal" in2="BackgroundImageFix" result="effect1_dropShadow_1397_11732"/>
<feBlend mode="normal" in="SourceGraphic" in2="effect1_dropShadow_1397_11732" result="shape"/>
</filter>
<linearGradient id="paint0_linear_1397_11732" x1="8" y1="9" x2="58" y2="9" gradientUnits="userSpaceOnUse">
<stop stop-color="#FAF344"/>
<stop offset="0.852083" stop-color="#FCD81B"/>
</linearGradient>
</defs>
</svg>
