<svg width="51" height="50" viewBox="0 0 51 50" fill="none" xmlns="http://www.w3.org/2000/svg">
<g filter="url(#filter0_d_2303_3864)">
<circle cx="23.5" cy="24" r="15" fill="url(#paint0_linear_2303_3864)"/>
</g>
<path fill-rule="evenodd" clip-rule="evenodd" d="M26.7357 16.7047H20.2647C19.9368 16.7047 19.7728 16.9555 19.7969 17.1687C19.9215 18.2656 20.1554 19.5249 20.5467 20.3301C21.0681 21.4049 22.3262 22.6123 23.2761 23.411C23.3382 23.4657 23.4178 23.4958 23.5002 23.4958C23.5826 23.4958 23.6622 23.4657 23.7243 23.411C24.6752 22.6123 25.9323 21.4049 26.4537 20.329C26.845 19.5249 27.0789 18.2656 27.2046 17.1687C27.2287 16.9555 27.0636 16.7047 26.7368 16.7047H26.7357ZM20.2647 15.6001C19.3422 15.6001 18.6043 16.3689 18.7104 17.2946C18.8372 18.4048 19.0853 19.8286 19.5651 20.8162C20.2002 22.1241 21.6289 23.4629 22.5776 24.2604C23.1176 24.7133 23.8828 24.7133 24.4227 24.2604C25.3715 23.4629 26.8002 22.1241 27.4353 20.8162C27.9151 19.8286 28.1632 18.4048 28.29 17.2946C28.3961 16.3689 27.6582 15.6001 26.7357 15.6001H20.2647Z" fill="#252200"/>
<path fill-rule="evenodd" clip-rule="evenodd" d="M20.2444 31.9126H26.7564C27.0864 31.9126 27.2514 31.6657 27.2272 31.4558C27.1018 30.3759 26.8664 29.1362 26.4726 28.3445C25.9479 27.2853 24.6818 26.0955 23.7259 25.3104C23.6634 25.2565 23.5833 25.2269 23.5004 25.2269C23.4175 25.2269 23.3374 25.2565 23.2749 25.3104C22.3179 26.0966 21.0529 27.2853 20.5282 28.3445C20.1344 29.1362 19.899 30.3759 19.7725 31.4558C19.7483 31.6657 19.9144 31.9126 20.2433 31.9126H20.2444ZM26.7564 33.0001C27.6848 33.0001 28.4273 32.2432 28.3206 31.3319C28.193 30.2378 27.9433 28.8371 27.4604 27.8649C26.8213 26.5773 25.3836 25.2593 24.4288 24.4741C24.1689 24.2579 23.8401 24.1393 23.5004 24.1393C23.1607 24.1393 22.8319 24.2579 22.572 24.4741C21.6172 25.2593 20.1795 26.5773 19.5404 27.8649C19.0575 28.8371 18.8078 30.2389 18.6802 31.3319C18.5735 32.2432 19.316 33.0001 20.2433 33.0001H26.7564ZM16.9004 16.1438C16.9004 15.9996 16.9583 15.8613 17.0615 15.7594C17.1646 15.6574 17.3045 15.6001 17.4504 15.6001H29.5504C29.6963 15.6001 29.8362 15.6574 29.9393 15.7594C30.0424 15.8613 30.1004 15.9996 30.1004 16.1438C30.1004 16.2881 30.0424 16.4264 29.9393 16.5283C29.8362 16.6303 29.6963 16.6876 29.5504 16.6876H17.4504C17.3045 16.6876 17.1646 16.6303 17.0615 16.5283C16.9583 16.4264 16.9004 16.2881 16.9004 16.1438Z" fill="#252200"/>
<path fill-rule="evenodd" clip-rule="evenodd" d="M16.9004 32.4003C16.9004 32.2412 16.9583 32.0886 17.0615 31.976C17.1646 31.8635 17.3045 31.8003 17.4504 31.8003H29.5504C29.6963 31.8003 29.8362 31.8635 29.9393 31.976C30.0424 32.0886 30.1004 32.2412 30.1004 32.4003C30.1004 32.5594 30.0424 32.712 29.9393 32.8246C29.8362 32.9371 29.6963 33.0003 29.5504 33.0003H17.4504C17.3045 33.0003 17.1646 32.9371 17.0615 32.8246C16.9583 32.712 16.9004 32.5594 16.9004 32.4003Z" fill="#252200"/>
<defs>
<filter id="filter0_d_2303_3864" x="0.5" y="0" width="50" height="50" filterUnits="userSpaceOnUse" color-interpolation-filters="sRGB">
<feFlood flood-opacity="0" result="BackgroundImageFix"/>
<feColorMatrix in="SourceAlpha" type="matrix" values="0 0 0 0 0 0 0 0 0 0 0 0 0 0 0 0 0 0 127 0" result="hardAlpha"/>
<feOffset dx="2" dy="1"/>
<feGaussianBlur stdDeviation="5"/>
<feComposite in2="hardAlpha" operator="out"/>
<feColorMatrix type="matrix" values="0 0 0 0 1 0 0 0 0 0.965667 0 0 0 0 0.141667 0 0 0 0.52 0"/>
<feBlend mode="normal" in2="BackgroundImageFix" result="effect1_dropShadow_2303_3864"/>
<feBlend mode="normal" in="SourceGraphic" in2="effect1_dropShadow_2303_3864" result="shape"/>
</filter>
<linearGradient id="paint0_linear_2303_3864" x1="8.5" y1="9" x2="38.5" y2="9" gradientUnits="userSpaceOnUse">
<stop stop-color="#FAF344"/>
<stop offset="0.852083" stop-color="#FCD81B"/>
</linearGradient>
</defs>
</svg>
