<svg width="259" height="282" viewBox="0 0 259 282" fill="none" xmlns="http://www.w3.org/2000/svg">
<path fill-rule="evenodd" clip-rule="evenodd" d="M72.1991 197.385C86.5629 196.806 102.239 196.844 118.38 196.883C122.487 196.893 126.624 196.903 130.777 196.903C196.119 187.488 253.273 194.67 257.524 236.939C264.137 270.595 200.778 279.209 130.777 279.209C58.0346 283.816 7.47012 280.152 1.38774 236.939C-2.42923 209.822 22.3089 200.99 58.7075 198.162C58.111 192.552 55.847 186.669 50.9482 180.997C56.7913 183.901 66.236 189.962 72.1991 197.385ZM33.1275 35.4459C30.4238 44.3112 28.9998 55.5023 28.9998 69.6177C28.9998 146.109 56.4999 156.243 131.469 156.243C224.5 150.243 263.273 134.163 257.886 60.2971C253.335 -2.11652 209.521 -0.314636 159.456 1.74437C150.27 2.12218 140.873 2.50864 131.469 2.50864C125.276 2.50864 119.279 2.41081 113.503 2.31659L113.501 2.31654C80.7419 1.78207 55.0869 1.36351 41.0007 19.5639C29.6796 18.9445 15.6205 27.6263 8.9999 32.9762C18.7295 30.1526 26.8036 31.8662 33.1275 35.4459Z" fill="white"/>
<path d="M72.1991 197.385L71.8093 197.698L71.9672 197.895L72.2192 197.885L72.1991 197.385ZM118.38 196.883L118.381 196.383L118.38 196.883ZM130.777 196.903V197.403H130.813L130.848 197.398L130.777 196.903ZM257.524 236.939L257.027 236.989L257.029 237.013L257.034 237.036L257.524 236.939ZM130.777 279.209V278.709H130.761L130.745 278.71L130.777 279.209ZM1.38774 236.939L0.892619 237.009H0.892619L1.38774 236.939ZM58.7075 198.162L58.7462 198.66L59.259 198.62L59.2047 198.109L58.7075 198.162ZM50.9482 180.997L51.1707 180.549L50.5698 181.324L50.9482 180.997ZM33.1275 35.4459L33.6057 35.5917L33.7227 35.2082L33.3738 35.0107L33.1275 35.4459ZM131.469 156.243V156.743H131.485L131.501 156.742L131.469 156.243ZM257.886 60.2971L257.388 60.3335L257.886 60.2971ZM159.456 1.74437L159.436 1.24479L159.456 1.74437ZM113.503 2.31659L113.493 2.81648L113.495 2.81652L113.503 2.31659ZM113.501 2.31654L113.512 1.81665L113.509 1.81661L113.501 2.31654ZM41.0007 19.5639L40.9733 20.0632L41.2354 20.0775L41.3961 19.87L41.0007 19.5639ZM8.9999 32.9762L8.68564 32.5873L9.13925 33.4563L8.9999 32.9762ZM72.2192 197.885C86.5704 197.306 102.235 197.344 118.379 197.383L118.381 196.383C102.243 196.344 86.5555 196.306 72.1789 196.886L72.2192 197.885ZM118.379 197.383C122.486 197.393 126.623 197.403 130.777 197.403V196.403C126.624 196.403 122.488 196.393 118.381 196.383L118.379 197.383ZM130.848 197.398C163.494 192.694 194.042 192.146 216.935 198.024C228.379 200.962 237.879 205.498 244.775 211.894C251.663 218.281 255.976 226.543 257.027 236.989L258.022 236.889C256.947 226.201 252.522 217.714 245.455 211.16C238.398 204.616 228.728 200.019 217.184 197.055C194.102 191.129 163.401 191.697 130.705 196.409L130.848 197.398ZM257.034 237.036C258.65 245.26 256.005 251.937 250.018 257.372C244.001 262.833 234.604 267.039 222.751 270.212C199.055 276.554 165.77 278.709 130.777 278.709V279.709C165.785 279.709 199.18 277.556 223.01 271.178C234.921 267.99 244.499 263.732 250.69 258.112C256.91 252.467 259.705 245.446 258.015 236.843L257.034 237.036ZM130.745 278.71C94.3699 281.014 63.6169 281.242 41.2085 275.522C30.0118 272.664 20.935 268.329 14.2844 262.058C7.6422 255.795 3.38912 247.571 1.88286 236.87L0.892619 237.009C2.42755 247.914 6.77591 256.353 13.5984 262.786C20.4125 269.211 29.6636 273.607 40.9612 276.491C63.5411 282.255 94.4414 282.011 130.808 279.708L130.745 278.71ZM1.88286 236.87C0.939829 230.17 1.76505 224.64 4.06201 220.062C6.35969 215.483 10.1521 211.813 15.2177 208.874C25.3705 202.984 40.5561 200.074 58.7462 198.66L58.6687 197.663C40.4603 199.078 25.0776 201.998 14.7159 208.009C9.52426 211.022 5.57289 214.821 3.16823 219.613C0.76285 224.407 -0.0728359 230.15 0.892619 237.009L1.88286 236.87ZM59.2047 198.109C58.5974 192.398 56.2915 186.419 51.3266 180.67L50.5698 181.324C55.4025 186.919 57.6247 192.707 58.2103 198.215L59.2047 198.109ZM50.7257 181.445C56.5351 184.332 65.9092 190.354 71.8093 197.698L72.5889 197.072C66.5628 189.57 57.0475 183.47 51.1707 180.549L50.7257 181.445ZM29.4998 69.6177C29.4998 55.5325 30.9212 44.3944 33.6057 35.5917L32.6492 35.3C29.9265 44.2281 28.4998 55.4721 28.4998 69.6177H29.4998ZM131.469 155.743C112.733 155.743 96.9904 155.11 83.9114 152.971C70.8334 150.833 60.4544 147.195 52.4196 141.214C36.3784 129.271 29.4998 107.839 29.4998 69.6177H28.4998C28.4998 107.888 35.3712 129.768 51.8224 142.016C60.0338 148.129 70.5866 151.806 83.75 153.958C96.9124 156.11 112.721 156.743 131.469 156.743V155.743ZM257.388 60.3335C258.732 78.7603 257.317 93.5382 253.018 105.437C248.724 117.324 241.543 126.362 231.304 133.306C210.783 147.223 177.967 152.743 131.437 155.744L131.501 156.742C178.003 153.743 211.088 148.224 231.865 134.134C242.275 127.074 249.591 117.867 253.959 105.777C258.322 93.6988 259.735 78.767 258.385 60.2608L257.388 60.3335ZM159.477 2.24395C184.547 1.2129 207.894 0.262208 225.554 7.30791C234.36 10.8214 241.74 16.3213 247.207 24.7989C252.678 33.2839 256.254 44.7854 257.388 60.3335L258.385 60.2608C257.243 44.602 253.636 32.9237 248.047 24.257C242.454 15.583 234.898 9.95944 225.924 6.3791C208.023 -0.762917 184.431 0.216835 159.436 1.24479L159.477 2.24395ZM131.469 3.00864C140.885 3.00864 150.292 2.62169 159.477 2.24395L159.436 1.24479C150.247 1.62267 140.861 2.00864 131.469 2.00864V3.00864ZM113.495 2.81652C119.271 2.91074 125.271 3.00864 131.469 3.00864V2.00864C125.281 2.00864 119.288 1.91089 113.511 1.81666L113.495 2.81652ZM113.49 2.81643L113.493 2.81648L113.514 1.8167L113.512 1.81666L113.49 2.81643ZM41.3961 19.87C48.3358 10.9034 58.1356 6.49872 70.333 4.40746C82.5467 2.31341 97.0986 2.549 113.493 2.81648L113.509 1.81661C97.1444 1.54962 82.4892 1.30869 70.164 3.42184C57.8226 5.53779 47.7518 10.0241 40.6053 19.2579L41.3961 19.87ZM9.31415 33.3651C12.5981 30.7114 17.7354 27.2254 23.4538 24.4824C29.182 21.7347 35.4365 19.7603 40.9733 20.0632L41.028 19.0647C35.2438 18.7482 28.8081 20.8049 23.0213 23.5808C17.2248 26.3612 12.0223 29.891 8.68564 32.5873L9.31415 33.3651ZM33.3738 35.0107C26.9409 31.3694 18.7283 29.6323 8.86055 32.496L9.13925 33.4563C18.7307 30.6729 26.6663 32.363 32.8812 35.881L33.3738 35.0107Z" fill="black"/>
</svg>
