<svg width="37" height="41" viewBox="0 0 37 41" fill="none" xmlns="http://www.w3.org/2000/svg">
<path id="Vector" fill-rule="evenodd" clip-rule="evenodd" d="M6.88372 15.3564V12.8721C6.88372 5.76304 12.0845 0 18.5 0C24.9155 0 30.1163 5.76304 30.1163 12.8721V15.3564C30.5066 15.3869 30.8745 15.4264 31.2208 15.478C32.7698 15.7088 34.0739 16.2025 35.1099 17.3502C36.1457 18.4982 36.5913 19.9434 36.7995 21.6598C37 23.3132 37 25.4152 37 28.0232V28.2326C37 30.8406 37 32.9426 36.7995 34.596C36.5913 36.3125 36.1457 37.7576 35.1099 38.9054C34.0739 40.0534 32.7698 40.5471 31.2208 40.7778C29.7287 41 27.8317 41 25.4782 41H11.5219C9.16833 41 7.27131 41 5.77931 40.7778C4.23029 40.5471 2.92605 40.0534 1.89018 38.9054C0.854322 37.7576 0.408791 36.3125 0.200524 34.596C-6.78537e-05 32.9426 -3.3517e-05 30.8406 9.01582e-07 28.2326V28.0232C-3.3517e-05 25.4152 -6.78537e-05 23.3132 0.200524 21.6598C0.408791 19.9434 0.854322 18.4982 1.89018 17.3502C2.92605 16.2025 4.23029 15.7088 5.77931 15.478C6.12545 15.4264 6.49336 15.3869 6.88372 15.3564ZM9.46512 12.8721C9.46512 7.34283 13.5102 2.86047 18.5 2.86047C23.4898 2.86047 27.5349 7.34283 27.5349 12.8721V15.2624C26.8921 15.2558 26.207 15.2558 25.4782 15.2558H11.5219C10.793 15.2558 10.1079 15.2558 9.46512 15.2624V12.8721ZM3.71551 19.373C4.19179 18.8451 4.86051 18.5011 6.12328 18.3129C7.42318 18.1193 9.14604 18.1163 11.6163 18.1163H25.3837C27.8539 18.1163 29.5768 18.1193 30.8768 18.3129C32.1396 18.5011 32.8082 18.8451 33.2845 19.373C33.7609 19.9008 34.0713 20.6417 34.2412 22.041C34.4159 23.4816 34.4186 25.3906 34.4186 28.1279C34.4186 30.8652 34.4159 32.7743 34.2412 34.2148C34.0713 35.6141 33.7609 36.355 33.2845 36.8828C32.8082 37.4107 32.1396 37.7547 30.8768 37.9429C29.5768 38.1365 27.8539 38.1395 25.3837 38.1395H11.6163C9.14604 38.1395 7.42318 38.1365 6.12328 37.9429C4.86051 37.7547 4.19179 37.4107 3.71551 36.8828C3.23922 36.355 2.92868 35.6141 2.75891 34.2148C2.58413 32.7743 2.5814 30.8652 2.5814 28.1279C2.5814 25.3906 2.58413 23.4816 2.75891 22.041C2.92868 20.6417 3.23922 19.9008 3.71551 19.373Z" fill="white"/>
</svg>
