<svg width="30" height="30" viewBox="0 0 30 30" fill="none" xmlns="http://www.w3.org/2000/svg">
<g id="Condition">
<path id="Vector" d="M15 29C22.732 29 29 22.732 29 15C29 7.26801 22.732 1 15 1C7.26801 1 1 7.26801 1 15C1 22.732 7.26801 29 15 29Z" stroke="white" stroke-width="1.5" stroke-linecap="round" stroke-linejoin="round"/>
<path id="Vector_2" d="M15 16.7509V15.0009L17.4745 12.5264C18.1309 11.8702 18.4998 10.9801 18.5 10.0519V9.75094C18.5 8.67819 17.8945 7.69819 16.9355 7.21869L16.5645 7.03319C16.0787 6.79044 15.5431 6.66406 15 6.66406C14.4569 6.66406 13.9213 6.79044 13.4355 7.03319L13.25 7.12594C12.1773 7.66144 11.5 8.75869 11.5 9.95744V11.5009" stroke="white" stroke-width="1.5" stroke-linecap="round" stroke-linejoin="round"/>
<path id="Vector_3" d="M14.9335 22.551C15.5035 22.551 15.9656 22.0916 15.9656 21.5248C15.9656 20.958 15.5035 20.4985 14.9335 20.4985C14.3635 20.4985 13.9014 20.958 13.9014 21.5248C13.9014 22.0916 14.3635 22.551 14.9335 22.551Z" fill="white"/>
</g>
</svg>
