<svg width="525" height="234" viewBox="0 0 525 234" fill="none" xmlns="http://www.w3.org/2000/svg">
<path d="M74.9691 117.552C82.1034 101.813 18.646 76.6866 18.646 76.6866C18.646 76.6866 91.8661 86.6269 114.02 78.3433C136.174 70.0597 104.633 24.7761 104.633 24.7761C104.633 24.7761 169.592 52.6642 188.366 49.3507C207.141 46.0373 235.302 6 235.302 6C235.302 6 256.33 56.2537 295.756 49.3507C335.182 42.4478 364.47 10.1418 364.47 10.1418C364.47 10.1418 362.968 57.3582 380.616 61.2239C398.264 65.0896 467.354 57.6343 467.354 57.6343C467.354 57.6343 425.299 76.6866 439.192 102.642C453.085 128.597 524.803 127.216 524.803 127.216C524.803 127.216 435.813 134.119 426.426 141.022C417.038 147.925 439.192 184.097 439.192 184.097C439.192 184.097 374.233 165.597 358.462 172.776C342.692 179.955 358.462 224.41 358.462 224.41C358.462 224.41 319.275 183.964 284.116 190.448C256.606 195.521 231.923 228 231.923 228C231.923 228 219.375 192.119 193.999 184.097C163.405 174.426 113.644 205.082 113.644 205.082C113.644 205.082 120.779 175.261 113.644 162.56C106.51 149.858 0.998047 155.381 0.998047 155.381C0.998047 155.381 67.8349 133.291 74.9691 117.552Z" fill="#A36CB6" stroke="black" stroke-width="5"/>
</svg>
