<svg width="1115" height="359" viewBox="0 0 1115 359" fill="none" xmlns="http://www.w3.org/2000/svg">
<path fill-rule="evenodd" clip-rule="evenodd" d="M67.1675 109.115C67.5161 100.337 68.4855 92.2671 70.0358 84.8525C51.9974 75.5804 29.1562 70.3799 1.00195 73.8149C19.6954 64.2364 53.993 50.8162 85.7028 48.1818C123.266 -3.11979 212.879 2.61832 312.14 8.97413C367.546 12.5219 425.958 16.2621 480.001 10.3819C659.133 -9.10862 935.336 -1.55154 905.814 109.115C899.813 131.612 888.493 149.246 872.32 163.066C1004.11 157.292 1101.72 173.441 1111.49 249.649C1132.5 333.574 931.203 355.055 708.808 355.055C477.704 366.545 315.632 326.58 306.128 249.649C303.355 239.014 302.466 229.69 303.301 221.529C161.331 230.738 62.365 230.052 67.1675 109.115Z" fill="white"/>
<path d="M70.0358 84.8525L71.504 85.1594L71.7379 84.0408L70.7215 83.5184L70.0358 84.8525ZM67.1675 109.115L68.6663 109.174V109.174L67.1675 109.115ZM1.00195 73.8149L0.317924 72.4799L1.18362 75.3039L1.00195 73.8149ZM85.7028 48.1818L85.827 49.6766L86.5088 49.62L86.913 49.0679L85.7028 48.1818ZM312.14 8.97413L312.044 10.4711L312.14 8.97413ZM480.001 10.3819L480.164 11.8731L480.001 10.3819ZM905.814 109.115L904.365 108.728L905.814 109.115ZM872.32 163.066L871.346 161.925L868.034 164.755L872.386 164.564L872.32 163.066ZM1111.49 249.649L1110 249.839L1110.01 249.927L1110.03 250.013L1111.49 249.649ZM708.808 355.055V353.555H708.771L708.734 353.557L708.808 355.055ZM306.128 249.649L307.616 249.465L307.604 249.366L307.579 249.27L306.128 249.649ZM303.301 221.529L304.793 221.681L304.974 219.917L303.204 220.032L303.301 221.529ZM68.5675 84.5455C66.9983 92.0507 66.0201 100.204 65.6687 109.055L68.6663 109.174C69.012 100.47 69.9727 92.4835 71.504 85.1594L68.5675 84.5455ZM1.18362 75.3039C29.0434 71.9048 51.582 77.0534 69.35 86.1865L70.7215 83.5184C52.4127 74.1073 29.269 68.855 0.82029 72.3259L1.18362 75.3039ZM85.5786 46.6869C53.6023 49.3435 19.1083 62.8518 0.317924 72.4799L1.68598 75.1499C20.2826 65.621 54.3838 52.2889 85.827 49.6766L85.5786 46.6869ZM312.236 7.47719C262.645 4.30182 215.286 1.26486 175.627 5.46478C135.981 9.66324 103.652 21.1281 84.4925 47.2956L86.913 49.0679C105.316 23.9339 136.576 12.617 175.943 8.4481C215.296 4.28063 262.374 7.29064 312.044 10.4711L312.236 7.47719ZM479.839 8.89071C425.948 14.7543 367.67 11.0267 312.236 7.47719L312.044 10.4711C367.423 14.017 425.969 17.7698 480.164 11.8731L479.839 8.89071ZM907.264 109.502C911.035 95.3629 909.941 82.7729 904.697 71.6596C899.467 60.5743 890.168 51.0855 877.744 43.0023C852.928 26.8575 815.314 16.1087 771.377 9.45645C683.449 -3.85649 569.474 -0.862081 479.839 8.89071L480.164 11.8731C569.66 2.13537 683.353 -0.836945 770.928 12.4226C814.744 19.0566 851.841 29.7289 876.108 45.5169C888.225 53.4001 897.061 62.5057 901.984 72.9398C906.894 83.3458 907.974 95.2003 904.365 108.728L907.264 109.502ZM873.295 164.206C889.703 150.185 901.186 132.286 907.264 109.502L904.365 108.728C898.44 130.937 887.283 148.307 871.346 161.925L873.295 164.206ZM872.386 164.564C938.246 161.679 995.383 164.286 1037.22 177.049C1079.01 189.795 1105.22 212.543 1110 249.839L1112.98 249.458C1107.99 210.547 1080.51 187.117 1038.1 174.179C995.745 161.26 938.179 158.679 872.254 161.567L872.386 164.564ZM1110.03 250.013C1112.58 260.201 1111.75 269.365 1107.97 277.652C1104.19 285.963 1097.39 293.498 1087.84 300.303C1068.7 313.935 1038.81 324.437 1001.12 332.356C925.781 348.183 819.989 353.555 708.808 353.555V356.555C820.022 356.555 926.075 351.187 1001.73 335.292C1039.54 327.349 1069.93 316.745 1089.58 302.746C1099.42 295.735 1106.64 287.823 1110.7 278.896C1114.78 269.943 1115.65 260.078 1112.94 249.284L1110.03 250.013ZM708.734 353.557C593.262 359.298 495.134 352.177 424.742 334.057C389.541 324.996 361.364 313.207 341.429 298.969C321.504 284.739 309.925 268.15 307.616 249.465L304.639 249.832C307.083 269.613 319.326 286.869 339.685 301.41C360.034 315.944 388.601 327.852 423.994 336.963C494.79 355.186 593.25 362.302 708.883 356.553L708.734 353.557ZM307.579 249.27C304.84 238.762 303.981 229.623 304.793 221.681L301.809 221.376C300.951 229.758 301.871 239.266 304.676 250.027L307.579 249.27ZM65.6687 109.055C64.4604 139.483 69.771 162.536 80.809 179.803C91.8583 197.087 108.536 208.399 129.715 215.548C150.868 222.687 176.572 225.695 205.802 226.356C235.041 227.016 267.904 225.328 303.398 223.026L303.204 220.032C267.713 222.334 234.966 224.014 205.87 223.356C176.765 222.699 151.409 219.703 130.674 212.705C109.966 205.716 93.9293 194.757 83.3366 178.187C72.7326 161.599 67.4734 139.215 68.6663 109.174L65.6687 109.055Z" fill="black"/>
</svg>
