<svg width="278" height="185" viewBox="0 0 278 185" fill="none" xmlns="http://www.w3.org/2000/svg">
<path fill-rule="evenodd" clip-rule="evenodd" d="M24.0307 57.7502C24.222 54.5319 24.488 51.4903 24.8256 48.6165C18.9874 41.8042 10.9402 37.1945 1 41.0176C6.86176 34.1144 20.0499 22.6492 29.9214 26.4946C41.4509 -3.03934 67.5726 0.446069 96.7972 4.3455C112.987 6.50571 130.129 8.79298 146.27 5.66397C199.311 -4.61819 281.094 -0.631483 272.353 57.7502C269.683 75.5781 263.461 87.6177 254.151 95.7417C266.948 101.719 275.151 113.052 276.58 132.43C282.416 172.936 226.501 183.303 164.725 183.303C100.529 188.849 55.5088 169.56 52.8688 132.43C52.3292 128.834 52.0464 125.548 52.0052 122.548C32.5128 119.359 21.2911 103.857 24.0307 57.7502Z" fill="white"/>
<path d="M24.8256 48.6165L25.3222 48.6748L25.3478 48.4574L25.2053 48.2911L24.8256 48.6165ZM24.0307 57.7502L23.5316 57.7205V57.7205L24.0307 57.7502ZM1 41.0176L0.618867 40.694L1.17949 41.4843L1 41.0176ZM29.9214 26.4946L29.7399 26.9605L30.2055 27.1418L30.3872 26.6764L29.9214 26.4946ZM96.7972 4.3455L96.8633 3.84989L96.7972 4.3455ZM146.27 5.66397L146.175 5.1731L146.27 5.66397ZM272.353 57.7502L271.858 57.6762V57.6762L272.353 57.7502ZM254.151 95.7417L253.822 95.365L253.244 95.8698L253.94 96.1947L254.151 95.7417ZM276.58 132.43L276.082 132.467L276.083 132.484L276.085 132.501L276.58 132.43ZM164.725 183.303V182.803H164.703L164.681 182.805L164.725 183.303ZM52.8688 132.43L53.3675 132.395L53.3661 132.375L53.3632 132.356L52.8688 132.43ZM52.0052 122.548L52.5052 122.541L52.4994 122.122L52.086 122.054L52.0052 122.548ZM24.3291 48.5581C23.9902 51.4423 23.7234 54.4935 23.5316 57.7205L24.5299 57.7799C24.7206 54.5703 24.9858 51.5384 25.3222 48.6748L24.3291 48.5581ZM1.17949 41.4843C6.03351 39.6174 10.4027 39.8136 14.2722 41.2957C18.1543 42.7827 21.561 45.5755 24.446 48.9418L25.2053 48.2911C22.252 44.8452 18.716 41.927 14.6299 40.3619C10.5312 38.7919 5.90665 38.5948 0.820513 40.5509L1.17949 41.4843ZM30.1029 26.0287C24.9371 24.0164 18.9897 26.0319 13.6945 29.2999C8.37492 32.5829 3.57391 37.2139 0.618867 40.694L1.38113 41.3412C4.28785 37.9181 9.01181 33.3649 14.2197 30.1508C19.4518 26.9218 25.0342 25.1274 29.7399 26.9605L30.1029 26.0287ZM96.8633 3.84989C82.2769 1.90363 68.3488 0.0395151 56.6252 2.39231C50.7487 3.57168 45.4083 5.81258 40.8053 9.64141C36.2024 13.4702 32.3631 18.865 29.4556 26.3127L30.3872 26.6764C33.2444 19.3572 36.9939 14.1125 41.4448 10.4102C45.8955 6.70799 51.0739 4.52635 56.822 3.37276C68.3479 1.05964 82.0929 2.88794 96.7311 4.84111L96.8633 3.84989ZM146.175 5.1731C130.128 8.28383 113.07 6.01229 96.8633 3.84989L96.7311 4.84111C112.904 6.99912 130.13 9.30213 146.365 6.15483L146.175 5.1731ZM272.847 57.8242C275.052 43.1016 271.55 31.755 264.178 23.2094C256.821 14.6822 245.654 8.99408 232.61 5.4754C206.525 -1.56103 172.736 0.0242234 146.175 5.1731L146.365 6.15483C172.845 1.02156 206.468 -0.540917 232.35 6.44089C245.289 9.93133 256.244 15.5438 263.42 23.8626C270.581 32.1631 274.025 43.2079 271.858 57.6762L272.847 57.8242ZM254.48 96.1185C263.902 87.8959 270.166 75.7345 272.847 57.8242L271.858 57.6762C269.201 75.4216 263.019 87.3395 253.822 95.365L254.48 96.1185ZM253.94 96.1947C260.261 99.1479 265.434 103.415 269.207 109.33C272.982 115.247 275.372 122.84 276.082 132.467L277.079 132.393C276.36 122.642 273.933 114.879 270.05 108.792C266.165 102.701 260.838 98.3134 254.363 95.2887L253.94 96.1947ZM276.085 132.501C277.526 142.499 275.157 150.6 269.863 157.153C264.555 163.724 256.276 168.776 245.835 172.587C224.95 180.21 195.601 182.803 164.725 182.803V183.803C195.624 183.803 225.121 181.213 246.178 173.526C256.71 169.682 265.176 164.547 270.641 157.782C276.12 150.999 278.553 142.614 277.075 132.359L276.085 132.501ZM164.681 182.805C132.633 185.574 105.423 182.137 85.9175 173.414C66.4256 164.696 54.6709 150.726 53.3675 132.395L52.37 132.466C53.7066 151.264 65.7821 165.504 85.5092 174.326C105.223 183.143 132.62 186.578 164.768 183.801L164.681 182.805ZM53.3632 132.356C52.8264 128.778 52.546 125.515 52.5052 122.541L51.5053 122.555C51.5468 125.581 51.8319 128.889 52.3743 132.504L53.3632 132.356ZM23.5316 57.7205C22.1602 80.7995 24.2746 96.3072 29.2316 106.462C34.2116 116.665 42.0405 121.424 51.9245 123.041L52.086 122.054C42.4775 120.482 34.9493 115.896 30.1303 106.024C25.2882 96.1039 23.1615 80.8073 24.5299 57.7799L23.5316 57.7205Z" fill="black"/>
</svg>
