<svg width="106" height="34" viewBox="0 0 106 34" fill="none" xmlns="http://www.w3.org/2000/svg">
<path d="M9.29404 13.5752C9.01783 12.3597 10.2262 11.2825 11.8005 11.2825C13.1815 11.2825 14.6246 11.6001 15.1632 13.5752H16.9792V16.5718C15.9561 15.7334 14.3899 15.5128 12.9341 15.3079C11.1773 15.0607 9.581 14.8361 9.29404 13.5752Z" fill="#DCDCF0"/>
<path fill-rule="evenodd" clip-rule="evenodd" d="M8.49996 0C6.24562 0 4.08361 0.895482 2.48959 2.48955C0.895524 4.08361 0 6.24579 0 8.5V25.5C0 27.7542 0.895524 29.916 2.48959 31.5101C4.08361 33.1042 6.24562 34 8.49996 34H25.4999C27.7542 34 29.9162 33.1042 31.5102 31.5101C33.1043 29.916 33.9998 27.7542 33.9998 25.5V0H8.49996ZM28.0961 12.7465H24.0153L20.1279 17V8.5H16.9792V10.5715C16.8779 10.438 16.7674 10.3068 16.6478 10.1777C16.0035 9.54484 15.2338 9.05394 14.3882 8.73635C13.5427 8.41875 12.64 8.28186 11.7384 8.33412C10.8728 8.29434 10.0099 8.45651 9.21772 8.80749C8.42557 9.1588 7.72598 9.68914 7.17422 10.3574C6.72771 10.9039 6.40412 11.5401 6.22539 12.2229C6.0467 12.9056 6.01703 13.6187 6.13849 14.3139C6.87041 17.587 9.90855 18.1116 12.1389 18.4016C13.8996 18.6295 15.5913 18.9541 15.543 20.5216C15.4946 22.0887 13.658 22.5378 12.4289 22.5378C9.28713 22.5378 9.18354 20.2175 9.18354 20.2175H5.82776C5.88575 21.4912 6.37239 22.7077 7.20874 23.6699C8.38259 24.9889 10.1433 25.6517 12.4427 25.6517C14.0964 25.6891 15.7069 25.1221 16.9723 24.0566V25.4376H20.121V21.4673L21.2395 20.2522L24.4227 25.4791H28.0892L23.4767 17.8216L28.0961 12.7465Z" fill="#DCDCF0"/>
<path d="M48.1932 16H49.4261C49.3333 15.4763 49.1643 15.0107 48.919 14.603C48.6738 14.192 48.3688 13.844 48.0043 13.5589C47.6397 13.2706 47.2304 13.0518 46.7763 12.9027C46.3255 12.7536 45.8433 12.679 45.3295 12.679C44.4612 12.679 43.6889 12.8911 43.0128 13.3153C42.3366 13.7396 41.8047 14.3428 41.4169 15.125C41.0291 15.9072 40.8352 16.8352 40.8352 17.9091C40.8352 18.983 41.0291 19.911 41.4169 20.6932C41.8047 21.4754 42.3366 22.0786 43.0128 22.5028C43.6889 22.9271 44.4612 23.1392 45.3295 23.1392C45.8433 23.1392 46.3255 23.0646 46.7763 22.9155C47.2304 22.7663 47.6397 22.5492 48.0043 22.2642C48.3688 21.9759 48.6738 21.6262 48.919 21.2152C49.1643 20.8042 49.3333 20.3385 49.4261 19.8182H48.1932C48.1203 20.1695 47.9927 20.4811 47.8104 20.7528C47.6314 21.0213 47.4126 21.2483 47.1541 21.4339C46.8989 21.6162 46.6155 21.7538 46.304 21.8466C45.9924 21.9394 45.6676 21.9858 45.3295 21.9858C44.7131 21.9858 44.1546 21.83 43.6541 21.5185C43.157 21.2069 42.7609 20.7479 42.4659 20.1413C42.1742 19.5348 42.0284 18.7907 42.0284 17.9091C42.0284 17.0275 42.1742 16.2834 42.4659 15.6768C42.7609 15.0703 43.157 14.6113 43.6541 14.2997C44.1546 13.9882 44.7131 13.8324 45.3295 13.8324C45.6676 13.8324 45.9924 13.8788 46.304 13.9716C46.6155 14.0644 46.8989 14.2036 47.1541 14.3892C47.4126 14.5715 47.6314 14.7969 47.8104 15.0653C47.9927 15.3338 48.1203 15.6454 48.1932 16Z" fill="#DCDCF0"/>
<path d="M51.2594 15.3636V23H52.4327V19.7784H53.4867L55.9924 23H57.5037L54.3816 19.0426L57.464 15.3636H55.9526L53.2083 18.6847H52.4327V15.3636H51.2594Z" fill="#DCDCF0"/>
<path fill-rule="evenodd" clip-rule="evenodd" d="M59.7521 22.6669C60.2725 22.995 60.8774 23.1591 61.5668 23.1591C62.2562 23.1591 62.8594 22.995 63.3764 22.6669C63.8968 22.3388 64.3011 21.8797 64.5895 21.2898C64.8812 20.6998 65.027 20.0104 65.027 19.2216C65.027 18.4261 64.8812 17.7318 64.5895 17.1385C64.3011 16.5452 63.8968 16.0845 63.3764 15.7564C62.8594 15.4283 62.2562 15.2642 61.5668 15.2642C60.8774 15.2642 60.2725 15.4283 59.7521 15.7564C59.2351 16.0845 58.8307 16.5452 58.5391 17.1385C58.2507 17.7318 58.1065 18.4261 58.1065 19.2216C58.1065 20.0104 58.2507 20.6998 58.5391 21.2898C58.8307 21.8797 59.2351 22.3388 59.7521 22.6669ZM62.8594 21.7024C62.5213 21.9709 62.0904 22.1051 61.5668 22.1051C61.0431 22.1051 60.6122 21.9709 60.2741 21.7024C59.9361 21.4339 59.6858 21.081 59.5234 20.6435C59.361 20.206 59.2798 19.732 59.2798 19.2216C59.2798 18.7112 59.361 18.2356 59.5234 17.7947C59.6858 17.3539 59.9361 16.9976 60.2741 16.7259C60.6122 16.4541 61.0431 16.3182 61.5668 16.3182C62.0904 16.3182 62.5213 16.4541 62.8594 16.7259C63.1974 16.9976 63.4477 17.3539 63.6101 17.7947C63.7725 18.2356 63.8537 18.7112 63.8537 19.2216C63.8537 19.732 63.7725 20.206 63.6101 20.6435C63.4477 21.081 63.1974 21.4339 62.8594 21.7024Z" fill="#DCDCF0"/>
<path d="M66.1419 21.9062V23H66.5396C66.9638 23 67.3168 22.9188 67.5985 22.7564C67.8803 22.594 68.1056 22.352 68.2747 22.0305C68.447 21.709 68.5746 21.3113 68.6575 20.8374C68.7437 20.3601 68.8 19.8082 68.8265 19.1818L68.9458 16.4574H71.7498V23H72.9231V15.3636H67.8322L67.693 18.7443C67.6698 19.384 67.6317 19.911 67.5787 20.3253C67.5289 20.7363 67.456 21.0578 67.3599 21.2898C67.2671 21.5185 67.1445 21.6792 66.992 21.772C66.8395 21.8615 66.649 21.9062 66.4203 21.9062H66.1419Z" fill="#DCDCF0"/>
<path d="M76.2491 15.3636H75.0758V23H76.2491V19.7784H77.3031L79.8088 23H81.3201L78.198 19.0426L81.2804 15.3636H79.769L77.0247 18.6847H76.2491V15.3636Z" fill="#DCDCF0"/>
<path fill-rule="evenodd" clip-rule="evenodd" d="M83.5685 22.6669C84.0889 22.995 84.6938 23.1591 85.3832 23.1591C86.0726 23.1591 86.6758 22.995 87.1928 22.6669C87.7132 22.3388 88.1175 21.8797 88.4059 21.2898C88.6976 20.6998 88.8434 20.0104 88.8434 19.2216C88.8434 18.4261 88.6976 17.7318 88.4059 17.1385C88.1175 16.5452 87.7132 16.0845 87.1928 15.7564C86.6758 15.4283 86.0726 15.2642 85.3832 15.2642C84.6938 15.2642 84.0889 15.4283 83.5685 15.7564C83.0515 16.0845 82.6471 16.5452 82.3555 17.1385C82.0671 17.7318 81.9229 18.4261 81.9229 19.2216C81.9229 20.0104 82.0671 20.6998 82.3555 21.2898C82.6471 21.8797 83.0515 22.3388 83.5685 22.6669ZM86.6758 21.7024C86.3377 21.9709 85.9068 22.1051 85.3832 22.1051C84.8595 22.1051 84.4286 21.9709 84.0906 21.7024C83.7525 21.4339 83.5023 21.081 83.3398 20.6435C83.1774 20.206 83.0962 19.732 83.0962 19.2216C83.0962 18.7112 83.1774 18.2356 83.3398 17.7947C83.5023 17.3539 83.7525 16.9976 84.0906 16.7259C84.4286 16.4541 84.8595 16.3182 85.3832 16.3182C85.9068 16.3182 86.3377 16.4541 86.6758 16.7259C87.0138 16.9976 87.2641 17.3539 87.4265 17.7947C87.5889 18.2356 87.6701 18.7112 87.6701 19.2216C87.6701 19.732 87.5889 20.206 87.4265 20.6435C87.2641 21.081 87.0138 21.4339 86.6758 21.7024Z" fill="#DCDCF0"/>
<path fill-rule="evenodd" clip-rule="evenodd" d="M93.7566 15.3636H90.6344V23H94.2338C94.7509 23 95.195 22.9105 95.5662 22.7315C95.9374 22.5526 96.2225 22.3089 96.4213 22.0007C96.6202 21.6925 96.7196 21.3428 96.7196 20.9517C96.7196 20.5507 96.6318 20.2126 96.4561 19.9375C96.2805 19.6591 96.0584 19.4403 95.7899 19.2812C95.5248 19.1222 95.2514 19.0227 94.9696 18.983C95.4005 18.8935 95.7535 18.7228 96.0286 18.4709C96.3037 18.2157 96.4412 17.8561 96.4412 17.392C96.4412 16.7822 96.1993 16.2917 95.7154 15.9205C95.2315 15.5492 94.5785 15.3636 93.7566 15.3636ZM94.2338 21.9261H91.748V19.5795H94.2338C94.6382 19.5795 94.9547 19.6939 95.1834 19.9226C95.4121 20.148 95.5265 20.4579 95.5265 20.8523C95.5265 21.1837 95.4121 21.4455 95.1834 21.6378C94.9547 21.83 94.6382 21.9261 94.2338 21.9261ZM93.7566 18.5653H91.748V16.4375H93.7566C94.2272 16.4375 94.5968 16.5303 94.8652 16.7159C95.1337 16.8982 95.2679 17.1501 95.2679 17.4716C95.2679 17.697 95.2066 17.8925 95.084 18.0582C94.9647 18.2206 94.7923 18.3466 94.5669 18.4361C94.3416 18.5223 94.0714 18.5653 93.7566 18.5653Z" fill="#DCDCF0"/>
<path fill-rule="evenodd" clip-rule="evenodd" d="M99.7834 22.6669C100.304 22.995 100.909 23.1591 101.598 23.1591C102.287 23.1591 102.891 22.995 103.408 22.6669C103.928 22.3388 104.332 21.8797 104.621 21.2898C104.912 20.6998 105.058 20.0104 105.058 19.2216C105.058 18.4261 104.912 17.7318 104.621 17.1385C104.332 16.5452 103.928 16.0845 103.408 15.7564C102.891 15.4283 102.287 15.2642 101.598 15.2642C100.909 15.2642 100.304 15.4283 99.7834 15.7564C99.2663 16.0845 98.862 16.5452 98.5703 17.1385C98.282 17.7318 98.1378 18.4261 98.1378 19.2216C98.1378 20.0104 98.282 20.6998 98.5703 21.2898C98.862 21.8797 99.2663 22.3388 99.7834 22.6669ZM102.891 21.7024C102.553 21.9709 102.122 22.1051 101.598 22.1051C101.074 22.1051 100.643 21.9709 100.305 21.7024C99.9673 21.4339 99.7171 21.081 99.5547 20.6435C99.3923 20.206 99.3111 19.732 99.3111 19.2216C99.3111 18.7112 99.3923 18.2356 99.5547 17.7947C99.7171 17.3539 99.9673 16.9976 100.305 16.7259C100.643 16.4541 101.074 16.3182 101.598 16.3182C102.122 16.3182 102.553 16.4541 102.891 16.7259C103.229 16.9976 103.479 17.3539 103.641 17.7947C103.804 18.2356 103.885 18.7112 103.885 19.2216C103.885 19.732 103.804 20.206 103.641 20.6435C103.479 21.081 103.229 21.4339 102.891 21.7024Z" fill="#DCDCF0"/>
</svg>
