<svg width="380" height="187" viewBox="0 0 380 187" fill="none" xmlns="http://www.w3.org/2000/svg">
<path d="M42.4442 53.3322C46.3145 48.0806 48.3444 41.7117 48.2221 35.203C48.2221 27.349 46.1295 22.1338 38.2279 22.1338C30.8571 22.1338 27.3591 27.7216 27.3591 43.0569H0C0 19.8676 11.2123 0 39.446 0C60.6837 0 76.1122 12.4173 76.1122 34.1475C76.3458 47.206 71.4369 59.8385 62.4326 69.3505C55.4054 77.7321 34.3239 92.8812 32.9809 102.66H78.236V125.135H0.156122C-3.81273e-05 86.9209 29.2955 67.9846 42.4442 53.3322Z" fill="white"/>
<path d="M123.178 0C153.254 0 160.469 16.5771 160.469 33.6508V91.3911C160.469 108.434 153.254 125.197 123.178 125.197C94.6628 125.197 86.5425 108.651 86.5425 91.3911V33.6508C86.5425 16.3908 94.6628 0 123.178 0ZM113.808 33.1231V92.1051C113.808 100.145 115.213 104.522 122.772 104.522C130.33 104.522 133.047 100.083 133.047 92.1051V33.1231C133.047 25.1139 130.642 20.7058 122.772 20.7058C114.901 20.7058 113.902 25.1139 113.902 33.1231H113.808Z" fill="white"/>
<path d="M221.967 38.9281V35.5134C221.967 16.8875 232.774 0 258.727 0C279.528 0 293.614 12.4173 293.614 30.5775C293.614 42.1877 290.865 52.5871 276.436 56.5296C293.614 63.1729 296.175 72.5789 296.175 88.9697C296.175 114.58 281.933 125.166 258.384 125.166C237.271 125.166 221.967 113.556 221.967 86.9209V80.9606H248.077V85.586C248.077 94.899 250.638 103.156 258.384 103.156C266.129 103.156 268.847 98.2206 268.847 85.0583C268.847 71.896 264.38 69.009 251.325 69.009H245.298V49.6691H249.452C262.663 49.6691 267.472 47.0925 267.472 33.4335C267.472 26.9455 264.911 20.6437 258.103 20.6437C251.856 20.6437 247.984 25.2381 247.984 32.4091V38.8971L221.967 38.9281Z" fill="white"/>
<path d="M330.152 48.0861C332.648 44.8464 335.909 42.268 339.646 40.5787C343.382 38.8894 347.48 38.1413 351.577 38.4006C370.004 38.4006 379.686 52.4011 379.686 79.3776C379.686 114.456 366.819 125.166 343.332 125.166C317.253 125.166 306.291 113.587 306.291 85.2448H332.557C332.713 99.9282 335.68 104.429 342.458 104.429C349.235 104.429 352.015 99.9282 352.015 80.402C352.015 63.7939 349.235 58.9822 342.114 58.9822C335.868 58.9822 333.588 62.7695 332.557 67.9537H307.572L311.163 1.05566H375.158V21.7304H332.557L330.152 48.0861Z" fill="white"/>
<path d="M202.944 100.58H180.769V122.621H202.944V100.58Z" fill="white"/>
<path d="M18.334 170.024C16.9911 173.501 15.6794 176.512 14.3676 179.337C12.5249 183.341 10.1513 186.725 5.24789 186.725H4.34214C4.09756 186.733 3.85378 186.693 3.62501 186.607C3.39624 186.52 3.18713 186.389 3.00978 186.222C2.83242 186.054 2.69035 185.853 2.59202 185.63C2.49369 185.408 2.44105 185.168 2.43705 184.924C2.43705 184.447 2.62784 183.989 2.96755 183.651C3.30726 183.314 3.76802 183.124 4.24845 183.124H4.96682C7.49659 183.124 8.83954 181.82 10.3074 179.306L0.937884 158.289C0.820936 157.98 0.747349 157.656 0.719238 157.327C0.71917 156.838 0.912384 156.369 1.25708 156.021C1.60178 155.672 2.07035 155.473 2.5619 155.464C2.93696 155.437 3.31019 155.539 3.61777 155.754C3.92535 155.969 4.14824 156.284 4.24845 156.644L12.1189 174.991C13.3994 172.166 14.7423 168.596 15.8354 165.678C16.9285 162.76 18.0217 159.469 18.9586 156.83C19.0705 156.435 19.3131 156.088 19.6473 155.846C19.9816 155.603 20.3881 155.48 20.8014 155.496C21.0362 155.463 21.2755 155.482 21.5017 155.553C21.728 155.624 21.9355 155.744 22.1091 155.904C22.2827 156.065 22.418 156.262 22.5052 156.482C22.5923 156.701 22.6291 156.937 22.6128 157.172C22.6139 157.562 22.5506 157.95 22.4254 158.32C20.9575 162.791 19.5833 166.64 18.334 170.024Z" fill="white"/>
<path d="M53.471 157.389C53.5307 156.924 53.7587 156.497 54.1122 156.188C54.4658 155.879 54.9207 155.708 55.3917 155.708C55.8628 155.708 56.3177 155.879 56.6713 156.188C57.0249 156.497 57.2529 156.924 57.3126 157.389V184.893C57.3085 185.144 57.2542 185.392 57.1527 185.623C57.0512 185.853 56.9047 186.061 56.7215 186.234C56.5384 186.408 56.3223 186.543 56.086 186.633C55.8496 186.722 55.5977 186.764 55.3449 186.756C54.8529 186.74 54.3852 186.539 54.0371 186.193C53.689 185.847 53.4866 185.382 53.471 184.893V173.128H39.6977V184.893C39.6977 185.395 39.497 185.877 39.1397 186.232C38.7824 186.587 38.2978 186.787 37.7926 186.787C37.5452 186.787 37.3003 186.737 37.0726 186.642C36.8448 186.546 36.6389 186.405 36.467 186.228C36.295 186.052 36.1606 185.842 36.0718 185.613C35.9829 185.384 35.9414 185.139 35.9498 184.893V157.389C35.9457 157.144 35.9901 156.901 36.0805 156.674C36.1708 156.446 36.3054 156.238 36.4765 156.063C36.6476 155.887 36.8519 155.746 37.0777 155.649C37.3035 155.551 37.5465 155.499 37.7926 155.495C38.2978 155.495 38.7824 155.695 39.1397 156.05C39.497 156.405 39.6977 156.887 39.6977 157.389V169.806H53.5959L53.471 157.389Z" fill="white"/>
<path d="M77.6737 184.862C77.6737 185.107 77.6251 185.349 77.531 185.575C77.4368 185.801 77.2988 186.006 77.1247 186.179C76.9507 186.352 76.7442 186.49 76.5168 186.583C76.2895 186.677 76.0458 186.725 75.7997 186.725C75.5536 186.725 75.3099 186.677 75.0826 186.583C74.8552 186.49 74.6487 186.352 74.4747 186.179C74.3007 186.006 74.1626 185.801 74.0685 185.575C73.9743 185.349 73.9258 185.107 73.9258 184.862V157.327C73.9258 157.082 73.9743 156.84 74.0685 156.614C74.1626 156.388 74.3007 156.183 74.4747 156.01C74.6487 155.837 74.8552 155.7 75.0826 155.606C75.3099 155.513 75.5536 155.464 75.7997 155.464C76.0458 155.464 76.2895 155.513 76.5168 155.606C76.7442 155.7 76.9507 155.837 77.1247 156.01C77.2988 156.183 77.4368 156.388 77.531 156.614C77.6251 156.84 77.6737 157.082 77.6737 157.327V176.946L92.1341 159.873V157.234C92.134 156.987 92.1835 156.742 92.2796 156.514C92.3757 156.286 92.5166 156.079 92.6939 155.906C92.8712 155.732 93.0815 155.596 93.3125 155.504C93.5435 155.412 93.7905 155.367 94.0392 155.371C94.5367 155.379 95.012 155.577 95.3668 155.924C95.7215 156.27 95.9284 156.74 95.9444 157.234V184.769C95.9444 185.274 95.7447 185.759 95.3883 186.119C95.0319 186.479 94.5473 186.686 94.0392 186.694C93.7863 186.694 93.536 186.644 93.3028 186.547C93.0696 186.45 92.8582 186.308 92.6809 186.128C92.5035 185.949 92.3639 185.737 92.27 185.503C92.1761 185.27 92.1299 185.021 92.1341 184.769V165.212L77.6737 182.224V184.862Z" fill="white"/>
<path d="M123.771 186.415H114.402C114.153 186.419 113.906 186.374 113.675 186.282C113.444 186.19 113.234 186.054 113.056 185.88C112.879 185.707 112.738 185.5 112.642 185.272C112.546 185.044 112.497 184.799 112.497 184.552V157.762C112.505 157.262 112.708 156.785 113.064 156.432C113.419 156.078 113.899 155.876 114.402 155.868H122.772C129.268 155.868 131.798 159.345 131.798 163.381V164.529C131.886 165.853 131.546 167.17 130.826 168.287C130.107 169.404 129.047 170.263 127.8 170.738C129.313 171.104 130.657 171.969 131.61 173.193C132.563 174.417 133.07 175.927 133.047 177.474V178.592C133.141 183.155 130.767 186.415 123.771 186.415ZM128.113 163.784C128.113 161.27 126.613 159.438 122.834 159.438H116.401V169.31H120.898C125.146 169.31 128.019 168.254 128.019 164.995L128.113 163.784ZM129.424 177.226C129.424 174.401 127.051 172.725 123.178 172.725H116.494V182.907H123.834C128.238 182.907 129.518 180.92 129.518 178.25L129.424 177.226Z" fill="white"/>
<path d="M165.28 186.414H150.601C150.129 186.414 149.676 186.227 149.342 185.896C149.008 185.564 148.821 185.114 148.821 184.644V157.699C148.821 157.221 149.012 156.763 149.351 156.426C149.691 156.088 150.152 155.898 150.632 155.898H164.624C165.108 155.898 165.572 156.087 165.916 156.424C166.261 156.761 166.459 157.219 166.467 157.699C166.451 158.177 166.251 158.63 165.908 158.965C165.565 159.301 165.105 159.492 164.624 159.499H152.537V169.433H163.5C163.734 169.421 163.968 169.454 164.189 169.532C164.409 169.609 164.613 169.729 164.787 169.885C164.961 170.041 165.102 170.229 165.203 170.439C165.304 170.649 165.362 170.877 165.374 171.11C165.386 171.34 165.352 171.572 165.274 171.789C165.196 172.007 165.075 172.207 164.918 172.377C164.761 172.548 164.571 172.686 164.36 172.782C164.148 172.879 163.92 172.933 163.687 172.941H152.537V182.844H165.218C165.698 182.844 166.159 183.034 166.499 183.371C166.838 183.709 167.029 184.167 167.029 184.644C167.029 184.879 166.982 185.112 166.891 185.329C166.799 185.546 166.665 185.742 166.497 185.907C166.328 186.071 166.128 186.201 165.908 186.288C165.689 186.375 165.454 186.418 165.218 186.414H165.28Z" fill="white"/>
<path d="M193.047 174.308H186.488V184.894C186.488 185.396 186.287 185.877 185.93 186.233C185.573 186.588 185.088 186.787 184.583 186.787C184.078 186.787 183.593 186.588 183.236 186.233C182.879 185.877 182.678 185.396 182.678 184.894V157.762C182.693 157.265 182.899 156.792 183.253 156.44C183.607 156.088 184.083 155.884 184.583 155.868H192.734C199.918 155.868 202.416 160.121 202.416 164.126V166.268C202.323 170.986 198.981 174.308 193.047 174.308ZM198.575 164.157C198.575 161.984 197.201 159.438 192.328 159.438H186.488V170.893H192.922C196.888 170.893 198.606 168.689 198.606 166.206L198.575 164.157Z" fill="white"/>
<path d="M227.523 158.941C222.62 158.941 220.402 162.232 220.402 168.782V173.562C220.402 180.392 222.463 183.372 227.273 183.372C228.968 183.413 230.629 182.888 231.989 181.882C232.707 181.385 233.051 181.044 233.644 181.044C233.862 181.039 234.077 181.079 234.278 181.161C234.48 181.242 234.662 181.364 234.814 181.518C234.966 181.672 235.085 181.855 235.163 182.057C235.241 182.258 235.277 182.473 235.268 182.689C235.259 182.961 235.192 183.228 235.074 183.474C234.956 183.72 234.788 183.939 234.581 184.117C232.584 185.933 229.947 186.892 227.242 186.787C219.465 186.787 216.529 181.478 216.529 173.593V168.689C216.529 161.145 219.653 155.495 227.492 155.495C230.071 155.374 232.595 156.266 234.519 157.979C234.74 158.149 234.922 158.365 235.051 158.611C235.181 158.858 235.255 159.129 235.268 159.407C235.26 159.635 235.207 159.86 235.112 160.067C235.016 160.275 234.881 160.462 234.712 160.618C234.544 160.774 234.347 160.895 234.131 160.975C233.916 161.055 233.687 161.091 233.457 161.083C232.864 161.083 232.551 160.742 231.895 160.245C230.632 159.323 229.088 158.863 227.523 158.941Z" fill="white"/>
<path d="M255.007 184.862C255.007 185.107 254.959 185.349 254.864 185.575C254.77 185.801 254.632 186.006 254.458 186.179C254.284 186.352 254.078 186.489 253.85 186.583C253.623 186.677 253.379 186.725 253.133 186.725C252.887 186.725 252.643 186.677 252.416 186.583C252.189 186.489 251.982 186.352 251.808 186.179C251.634 186.006 251.496 185.801 251.402 185.575C251.308 185.349 251.259 185.107 251.259 184.862V157.327C251.259 156.833 251.457 156.359 251.808 156.01C252.16 155.66 252.636 155.464 253.133 155.464C253.63 155.464 254.107 155.66 254.458 156.01C254.81 156.359 255.007 156.833 255.007 157.327V176.946L269.468 159.872V157.234C269.476 156.737 269.68 156.263 270.036 155.915C270.393 155.566 270.873 155.371 271.373 155.371C271.87 155.379 272.346 155.577 272.7 155.923C273.055 156.27 273.262 156.739 273.278 157.234V184.769C273.27 185.272 273.068 185.752 272.713 186.111C272.358 186.469 271.878 186.678 271.373 186.694C271.12 186.694 270.87 186.644 270.636 186.547C270.403 186.45 270.192 186.307 270.014 186.128C269.837 185.949 269.697 185.737 269.603 185.503C269.51 185.27 269.463 185.02 269.468 184.769V165.212L255.007 182.223V184.862Z" fill="white"/>
<path d="M300.359 159.469V184.893C300.363 185.137 300.318 185.38 300.228 185.608C300.138 185.836 300.003 186.043 299.832 186.219C299.661 186.395 299.457 186.536 299.231 186.633C299.005 186.73 298.762 186.782 298.516 186.787C298.011 186.787 297.526 186.587 297.169 186.232C296.812 185.877 296.611 185.395 296.611 184.893V159.469H288.647C288.407 159.481 288.166 159.445 287.941 159.361C287.716 159.278 287.51 159.149 287.337 158.983C287.165 158.817 287.028 158.617 286.936 158.396C286.844 158.175 286.799 157.938 286.804 157.699C286.8 157.459 286.845 157.22 286.936 156.998C287.027 156.775 287.164 156.574 287.336 156.405C287.508 156.237 287.714 156.105 287.939 156.018C288.164 155.931 288.405 155.89 288.647 155.899H308.292C308.764 155.899 309.217 156.085 309.55 156.417C309.884 156.749 310.072 157.199 310.072 157.668C310.072 158.137 309.884 158.587 309.55 158.919C309.217 159.251 308.764 159.437 308.292 159.437H300.265L300.359 159.469Z" fill="white"/>
<path d="M340.211 186.415H325.532C325.295 186.419 325.06 186.376 324.841 186.289C324.621 186.202 324.421 186.072 324.253 185.907C324.084 185.743 323.95 185.546 323.859 185.33C323.767 185.113 323.72 184.88 323.72 184.645V157.669C323.728 157.194 323.922 156.74 324.26 156.404C324.598 156.068 325.054 155.876 325.532 155.868H339.524C340.01 155.868 340.477 156.056 340.827 156.392C341.177 156.728 341.381 157.186 341.398 157.669C341.393 157.909 341.342 158.147 341.245 158.367C341.149 158.588 341.01 158.788 340.836 158.955C340.662 159.122 340.456 159.253 340.231 159.342C340.006 159.43 339.766 159.473 339.524 159.469H327.499V169.434H338.43C338.664 169.413 338.899 169.439 339.121 169.511C339.344 169.584 339.549 169.701 339.725 169.855C339.9 170.009 340.042 170.197 340.142 170.407C340.242 170.618 340.297 170.847 340.304 171.079C340.33 171.544 340.171 171.999 339.861 172.348C339.551 172.697 339.116 172.91 338.649 172.942H327.468V182.814H340.148C340.637 182.814 341.106 183.007 341.451 183.35C341.797 183.694 341.991 184.159 341.991 184.645C341.991 184.88 341.944 185.113 341.852 185.33C341.761 185.546 341.627 185.743 341.459 185.907C341.29 186.072 341.09 186.202 340.87 186.289C340.651 186.376 340.416 186.419 340.179 186.415H340.211Z" fill="white"/>
<path d="M367.195 159.469V184.894C367.199 185.138 367.155 185.381 367.065 185.609C366.974 185.836 366.84 186.044 366.669 186.22C366.497 186.396 366.293 186.536 366.067 186.634C365.842 186.731 365.599 186.783 365.353 186.787C364.847 186.787 364.363 186.588 364.005 186.233C363.648 185.878 363.448 185.396 363.448 184.894V159.469H355.483C355.228 159.503 354.968 159.482 354.721 159.407C354.474 159.333 354.246 159.207 354.052 159.038C353.858 158.869 353.703 158.661 353.596 158.428C353.49 158.194 353.435 157.941 353.435 157.684C353.435 157.428 353.49 157.175 353.596 156.941C353.703 156.708 353.858 156.499 354.052 156.33C354.246 156.161 354.474 156.035 354.721 155.961C354.968 155.887 355.228 155.866 355.483 155.899H375.222C375.692 155.907 376.14 156.096 376.472 156.426C376.804 156.757 376.994 157.202 377.002 157.669C377.002 158.138 376.815 158.588 376.481 158.92C376.147 159.252 375.694 159.438 375.222 159.438H367.195V159.469Z" fill="white"/>
</svg>
