<svg width="340" height="160" viewBox="0 0 340 160" fill="none" xmlns="http://www.w3.org/2000/svg">
<g filter="url(#filter0_bd_308_526)">
<path fill-rule="evenodd" clip-rule="evenodd" d="M120.378 64.2076L109.258 71.7081C108.972 71.9015 108.8 72.2247 108.8 72.5704V86.19C108.8 86.7641 109.266 87.23 109.84 87.23C110.047 87.23 110.25 87.168 110.422 87.052L121.542 79.5516C121.828 79.3581 122 79.0351 122 78.6893V65.0699C122 64.4954 121.535 64.0299 120.96 64.0299C120.753 64.0299 120.55 64.0919 120.378 64.2076ZM88 60.9687V108.96C88 109.534 88.4655 110 89.0399 110C89.2472 110 89.4498 109.938 89.6216 109.822L104.342 99.8935C104.628 99.7001 104.8 99.3771 104.8 99.0313V51.04C104.8 50.4656 104.334 50 103.76 50C103.553 50 103.35 50.062 103.178 50.178L88.4584 60.1067C88.1718 60.3 88 60.6231 88 60.9687ZM67.2 60.9687V108.96C67.2 109.534 67.6655 110 68.2399 110C68.4472 110 68.6498 109.938 68.8216 109.822L83.5416 99.8935C83.8282 99.7001 84 99.3771 84 99.0313V51.04C84 50.4656 83.5344 50 82.96 50C82.7528 50 82.5502 50.062 82.3784 50.178L67.6584 60.1067C67.3718 60.3 67.2 60.6231 67.2 60.9687ZM61.5785 64.2076L50.4584 71.7081C50.1719 71.9015 50 72.2247 50 72.5704V86.19C50 86.7641 50.4655 87.23 51.0399 87.23C51.2472 87.23 51.4498 87.168 51.6216 87.052L62.7416 79.5516C63.0282 79.3581 63.2 79.0351 63.2 78.6893V65.0699C63.2 64.4954 62.7344 64.0299 62.16 64.0299C61.9528 64.0299 61.7504 64.0919 61.5785 64.2076ZM161.293 92.8412L163.824 90.3097V80L161.293 77.4318H145.92V72.2954H158.724V74.8637H163.824V69.7639L161.293 67.1589H143.315L140.784 69.7639V80.7705L143.315 82.605H158.724V87.7047H145.92V85.1732H140.784V90.3097L143.315 92.8412H161.293ZM175.029 80.0368V72.2954H187.834V80.0368H175.029ZM175.029 92.8412V85.1732H190.402L192.934 82.605V69.7639L190.402 67.1589H169.893V92.8412H175.029ZM203.772 80.0368V72.2954H216.576V80.0368H203.772ZM221.676 92.8412V87.7047L219.145 85.1732L221.676 82.605V69.7639L219.145 67.1589H198.636V92.8412H203.772V85.1732H211.44L214.008 87.7047L216.576 90.3096V92.8411L221.676 92.8412ZM232.882 92.8412V67.1589H227.745V92.8412H232.882ZM261.991 92.8412V67.1589H256.891V84.256L244.087 67.1589H238.951V92.8412H244.087V75.7075L256.891 92.8412H261.991ZM281.085 92.8412V72.2954H290V67.1589H266.959V72.2954H275.948V92.8412H281.085Z" fill="#B4C8FF"/>
</g>
<defs>
<filter id="filter0_bd_308_526" x="0" y="0" width="340" height="160" filterUnits="userSpaceOnUse" color-interpolation-filters="sRGB">
<feFlood flood-opacity="0" result="BackgroundImageFix"/>
<feGaussianBlur in="BackgroundImageFix" stdDeviation="25"/>
<feComposite in2="SourceAlpha" operator="in" result="effect1_backgroundBlur_308_526"/>
<feColorMatrix in="SourceAlpha" type="matrix" values="0 0 0 0 0 0 0 0 0 0 0 0 0 0 0 0 0 0 127 0" result="hardAlpha"/>
<feOffset/>
<feGaussianBlur stdDeviation="25"/>
<feComposite in2="hardAlpha" operator="out"/>
<feColorMatrix type="matrix" values="0 0 0 0 0.196078 0 0 0 0 0 0 0 0 0 1 0 0 0 1 0"/>
<feBlend mode="normal" in2="effect1_backgroundBlur_308_526" result="effect2_dropShadow_308_526"/>
<feBlend mode="normal" in="SourceGraphic" in2="effect2_dropShadow_308_526" result="shape"/>
</filter>
</defs>
</svg>
