<svg width="396" height="174" viewBox="0 0 396 174" fill="none" xmlns="http://www.w3.org/2000/svg">
<g filter="url(#filter0_d_1100_2906)">
<path fill-rule="evenodd" clip-rule="evenodd" d="M136.731 67.4931L123.027 76.7281C122.674 76.9662 122.462 77.3642 122.462 77.7898V94.5589C122.462 95.2658 123.037 95.8394 123.744 95.8394C123.999 95.8394 124.249 95.7631 124.461 95.6203L138.165 86.3854C138.517 86.1472 138.729 85.7495 138.729 85.3237V68.5548C138.729 67.8475 138.156 67.2743 137.448 67.2743C137.193 67.2743 136.942 67.3507 136.731 67.4931ZM96.8294 63.5052V122.595C96.8294 123.301 97.4031 123.875 98.1109 123.875C98.3664 123.875 98.6161 123.799 98.8278 123.656L116.969 111.431C117.321 111.193 117.533 110.796 117.533 110.37V51.2805C117.533 50.5733 116.959 50 116.251 50C115.996 50 115.746 50.0763 115.534 50.2192L97.3943 62.4439C97.0411 62.6819 96.8294 63.0797 96.8294 63.5052ZM71.1965 63.5052V122.595C71.1965 123.301 71.7701 123.875 72.478 123.875C72.7335 123.875 72.9831 123.799 73.1949 123.656L91.3351 111.431C91.6883 111.193 91.9 110.796 91.9 110.37V51.2805C91.9 50.5733 91.3262 50 90.6184 50C90.363 50 90.1133 50.0763 89.9016 50.2192L71.7614 62.4439C71.4082 62.6819 71.1965 63.0797 71.1965 63.5052ZM64.2688 67.4931L50.5649 76.7281C50.2118 76.9662 50 77.3642 50 77.7898V94.5589C50 95.2658 50.5737 95.8394 51.2815 95.8394C51.537 95.8394 51.7867 95.7631 51.9984 95.6203L65.7021 86.3854C66.0553 86.1472 66.2671 85.7495 66.2671 85.3237V68.5548C66.2671 67.8475 65.6933 67.2743 64.9854 67.2743C64.7301 67.2743 64.4806 67.3507 64.2688 67.4931ZM187.152 102.748L190.271 99.6313V86.9375L187.152 83.7754H168.207V77.4512H183.986V80.6134H190.271V74.3343L187.152 71.1269H164.997L161.878 74.3343V87.8862L164.997 90.1449H183.986V96.4239H168.207V93.307H161.878V99.6313L164.997 102.748H187.152ZM204.08 86.9828V77.4512H219.86V86.9828H204.08ZM204.08 102.748V93.307H223.025L226.145 90.1449V74.3343L223.025 71.1269H197.751V102.748H204.08ZM239.501 86.9828V77.4512H255.28V86.9828H239.501ZM261.565 102.748V96.4239L258.446 93.307L261.565 90.1449V74.3343L258.446 71.1269H233.172V102.748H239.501V93.307H248.951L252.116 96.4239L255.28 99.6312V102.748L261.565 102.748ZM275.375 102.748V71.1269H269.045V102.748H275.375ZM311.248 102.748V71.1269H304.963V92.1777L289.184 71.1269H282.854V102.748H289.184V81.6524L304.963 102.748H311.248ZM334.778 102.748V77.4512H345.765V71.1269H317.37V77.4512H328.448V102.748H334.778Z" fill="#B4C8FF"/>
</g>
<defs>
<filter id="filter0_d_1100_2906" x="0" y="0" width="395.765" height="173.875" filterUnits="userSpaceOnUse" color-interpolation-filters="sRGB">
<feFlood flood-opacity="0" result="BackgroundImageFix"/>
<feColorMatrix in="SourceAlpha" type="matrix" values="0 0 0 0 0 0 0 0 0 0 0 0 0 0 0 0 0 0 127 0" result="hardAlpha"/>
<feOffset/>
<feGaussianBlur stdDeviation="25"/>
<feComposite in2="hardAlpha" operator="out"/>
<feColorMatrix type="matrix" values="0 0 0 0 0.196078 0 0 0 0 0 0 0 0 0 1 0 0 0 1 0"/>
<feBlend mode="normal" in2="BackgroundImageFix" result="effect1_dropShadow_1100_2906"/>
<feBlend mode="normal" in="SourceGraphic" in2="effect1_dropShadow_1100_2906" result="shape"/>
</filter>
</defs>
</svg>
