<svg width="158" height="34" viewBox="0 0 158 34" fill="none" xmlns="http://www.w3.org/2000/svg">
<path d="M30.3013 14.1122C29.7969 13.8681 29.2329 13.7826 28.6808 13.8666C29.6665 13.5163 30.3368 12.7715 30.3723 12.1031C29.8751 11.9875 29.3575 11.9999 28.8661 12.1393C29.3432 11.7729 30.1278 11.1086 30.049 10.1262C29.5877 10.0134 28.74 10.3436 28.3812 10.5046C29.5167 9.85238 29.9228 8.31433 29.3235 7.44062C28.9686 7.65402 27.3521 9.34507 27.084 9.54236C27.7149 8.86633 28.2092 8.07008 28.5389 7.19904C28.8109 6.47833 28.8267 5.22615 27.9554 4.80741C27.2015 6.36048 26.3149 7.84255 25.3058 9.23636C25.2191 9.15583 25.1481 9.04712 25.0337 9.03101C24.7784 9.75216 24.3403 10.3912 23.7642 10.8831C23.7147 10.7636 23.6595 10.6467 23.5986 10.5328C23.0505 11.3703 21.6272 12.5178 21.1659 13.2224C21.0696 13.326 20.9959 13.4492 20.9497 13.584C20.9035 13.7187 20.8857 13.862 20.8976 14.0043C20.9096 14.1466 20.9509 14.2846 21.0189 14.4094C21.0868 14.5342 21.1799 14.6429 21.292 14.7282C21.4892 14.9336 21.8756 15.3 21.5444 15.8033C21.3454 16.1008 21.039 16.3056 20.6923 16.3728C20.3457 16.44 19.9871 16.364 19.6952 16.1616C19.6952 16.0408 19.6952 15.9281 19.6952 15.8194C19.8302 15.754 19.9481 15.657 20.0395 15.5363C20.1308 15.4157 20.1931 15.2747 20.2211 15.1249C20.2491 14.9751 20.2422 14.8206 20.2008 14.674C20.1595 14.5275 20.0849 14.3929 19.983 14.2813C19.8945 14.4675 19.7392 14.6116 19.5493 14.684C19.524 14.5743 19.491 14.4667 19.4508 14.3618L19.4271 14.3135H19.3758C19.3758 14.3135 19.1826 14.3135 18.8988 14.2652C19.0599 14.2117 19.1969 14.1011 19.2851 13.9534C19.3733 13.8058 19.4069 13.6307 19.3798 13.46C19.2201 13.5966 19.0139 13.6631 18.8063 13.645C18.5987 13.6269 18.4066 13.5256 18.2719 13.3633C18.1137 13.1661 18.0058 12.9321 17.9576 12.682C17.9095 12.432 17.9226 12.1736 17.9959 11.93C18.1802 11.2639 18.5419 10.6632 19.0407 10.1946C19.0782 10.2437 19.1269 10.2827 19.1826 10.3079C19.2383 10.3332 19.2993 10.3441 19.3601 10.3396C19.4665 10.3033 19.644 10.2107 19.7741 10.1584C19.9367 10.1097 20.1075 10.0957 20.2757 10.1172C20.4439 10.1386 20.6059 10.1951 20.7519 10.2832C20.8933 10.3489 21.009 10.4613 21.0805 10.6021C21.152 10.743 21.1751 10.9044 21.1462 11.0603C21.7967 10.6858 21.572 10.0617 20.7164 9.83225C21.2999 9.83225 21.7809 10.3758 21.8992 10.4442C22.0555 10.5443 22.2342 10.602 22.4184 10.6119C22.6026 10.6217 22.7863 10.5834 22.952 10.5006C23.4685 10.247 23.571 9.62691 23.433 9.50209C23.4062 9.62454 23.3415 9.73491 23.2484 9.81686C23.1554 9.89881 23.039 9.94797 22.9165 9.95706C22.4848 9.96233 22.0597 9.84825 21.6863 9.62691C21.3466 9.4943 20.9854 9.42871 20.6218 9.43365C21.2053 9.10349 22.1121 9.13972 22.4354 9.64704C22.5371 9.57441 22.6224 9.48044 22.6857 9.37143C22.7489 9.26241 22.7886 9.14086 22.8021 9.01491C22.9677 8.12912 22.2896 7.67012 21.5641 7.67012C21.5641 7.45673 21.434 7.35204 21.2408 7.42452C21.2446 7.38828 21.2401 7.35163 21.2278 7.31742C21.2155 7.28321 21.1957 7.25235 21.1698 7.22723H21.225C21.8826 7.22198 22.5175 6.98116 23.019 6.54678C23.6735 5.8301 22.6247 4.93626 23.019 4.2236C23.3648 4.4276 23.7401 4.57436 24.1308 4.65844C24.1881 4.79741 24.2266 4.9437 24.2452 5.09328C24.4029 5.89854 23.638 6.01933 23.8509 6.86486C23.9377 7.24736 24.2176 7.38023 24.3122 7.8352C24.3165 7.94598 24.2975 8.05641 24.2568 8.15916C24.216 8.2619 24.1542 8.3546 24.0756 8.43109C24.2028 8.44672 24.3318 8.42806 24.4497 8.37697C24.5676 8.32588 24.6704 8.24413 24.7478 8.13988C24.8251 8.03563 24.8744 7.9125 24.8907 7.78275C24.907 7.653 24.8897 7.52116 24.8405 7.40036C24.7577 7.19502 24.537 6.99773 24.537 6.75615C24.8405 7.18294 25.1165 7.16683 25.6291 7.00578C25.8538 6.93331 25.8736 7.25541 25.7316 7.51309C25.8538 7.442 25.9569 7.34124 26.0319 7.21975C26.1068 7.09826 26.1513 6.95977 26.1614 6.81654C26.1679 6.7472 26.1578 6.67728 26.1318 6.61288C26.1058 6.54847 26.0647 6.49155 26.0122 6.44707C25.9597 6.40259 25.8974 6.37191 25.8306 6.35771C25.7638 6.34351 25.6946 6.34622 25.6291 6.3656C25.4832 6.3656 25.1836 6.58704 25.1678 6.29312C25.1047 5.78581 25.8893 5.80191 25.7316 4.98457C25.6488 4.58194 25.1993 4.35244 24.5054 4.26386C24.3823 4.14608 24.2689 4.01814 24.1663 3.88136C23.7721 3.23313 23.3778 3.0761 23.153 3.19689C22.9283 3.31768 22.7272 3.46263 22.5025 3.59952C22.319 3.66449 22.1491 3.76421 22.0017 3.89344C21.6981 4.27594 22.0017 4.87184 22.1437 5.23823C22.3448 5.55378 22.4313 5.9313 22.3881 6.3052C22.2659 6.74004 21.5601 7.01786 21.1343 7.11046H21.0594V6.94136C21.1818 6.70607 21.2885 6.46259 21.3788 6.2126C21.6666 5.42747 21.2368 5.10939 20.5902 4.95639C20.5511 4.92835 20.5059 4.91041 20.4586 4.9041C20.4112 4.89779 20.363 4.9033 20.3182 4.92015H20.2985V5.05302L20.2117 5.02886V4.86781H20.1723C20.2071 4.84142 20.235 4.80668 20.2536 4.76665C20.2722 4.72663 20.2808 4.68255 20.2787 4.63831C20.2789 4.55801 20.2556 4.47949 20.2117 4.41284H20.2945L20.259 4.3766C20.2335 4.3283 20.1987 4.28582 20.1565 4.25178C20.1397 4.23257 20.1288 4.20879 20.125 4.18334C20.1434 4.20552 20.1662 4.22338 20.192 4.23568C20.23 4.26641 20.2644 4.30154 20.2945 4.34036L20.3497 4.3766V3.62368L20.2945 3.66797C20.2945 3.66797 20.2275 3.72031 20.192 3.75655C20.1565 3.79278 20.1407 3.79278 20.125 3.81292C20.1092 3.83305 20.125 3.77668 20.1565 3.74044C20.2004 3.71172 20.2358 3.67136 20.259 3.62368L20.2945 3.57134H19.5809L19.6164 3.62368C19.6564 3.66058 19.6946 3.69955 19.7307 3.74044C19.7439 3.76723 19.7612 3.7917 19.7819 3.81292C19.7819 3.81292 19.7307 3.81292 19.711 3.75655C19.6913 3.70018 19.6164 3.6881 19.5809 3.66797L19.5493 3.62368V4.35244L19.5809 4.3162C19.6225 4.28212 19.6674 4.25244 19.7149 4.22763C19.7149 4.22763 19.7701 4.19139 19.7859 4.17528C19.8017 4.15918 19.7504 4.22763 19.7346 4.24373C19.7016 4.28989 19.6632 4.3318 19.6203 4.36855L19.5848 4.40478H19.7149C19.6861 4.43398 19.6641 4.46939 19.6505 4.5084C19.6368 4.54741 19.6319 4.58905 19.6361 4.63026C19.6354 4.67311 19.6435 4.71563 19.6598 4.75513C19.6761 4.79464 19.7002 4.83026 19.7307 4.85976V5.02081L19.6361 5.04497V4.9121H19.6164C19.5735 4.89522 19.5272 4.88969 19.4817 4.89603C19.4362 4.90236 19.393 4.92036 19.3561 4.94834C18.7095 5.10134 18.2837 5.41941 18.5676 6.20454C18.6542 6.45669 18.7624 6.70055 18.8909 6.93331V7.05007C18.0953 6.75606 17.3725 6.28738 16.7736 5.6771L16.6947 5.57241V5.10134C16.9262 4.68895 17.1215 4.25645 17.2783 3.80889C17.6726 2.6775 17.0851 2.19837 16.1309 2.01315C16.076 1.96888 16.0106 1.94033 15.9413 1.93042C15.872 1.92051 15.8014 1.92961 15.7366 1.95679L15.7051 2.13797H15.504V1.90847C15.4703 1.91626 15.4353 1.91626 15.4015 1.90847C15.4712 1.86783 15.5294 1.80932 15.5702 1.7387C15.611 1.66809 15.633 1.58782 15.6341 1.50584C15.6351 1.43833 15.6206 1.37153 15.5918 1.31073C15.5631 1.24993 15.5209 1.1968 15.4685 1.15555H15.6341C15.512 1.044 15.4151 0.9066 15.3503 0.75292C15.5003 0.821832 15.6346 0.921937 15.7445 1.04684V0.10871C15.6578 0.177158 15.4725 0.358342 15.3503 0.374447C15.4228 0.231472 15.5219 0.104289 15.642 0H14.7352C14.8061 0.0885788 14.9836 0.269763 14.9993 0.374447C14.8929 0.374447 14.7194 0.177158 14.6248 0.10871V1.03476C14.7275 0.917036 14.8488 0.81769 14.9836 0.740841C14.9836 0.86163 14.7904 1.05087 14.7194 1.14347H14.8771C14.8265 1.18575 14.7859 1.23928 14.7586 1.29998C14.7312 1.36069 14.7179 1.42697 14.7194 1.49376C14.7189 1.5756 14.7399 1.65608 14.7801 1.72687C14.8203 1.79767 14.8783 1.85619 14.9481 1.89639C14.9076 1.9033 14.8663 1.9033 14.8259 1.89639V2.12589H14.6287V1.94471C14.564 1.91754 14.4934 1.90843 14.4241 1.91834C14.3548 1.92825 14.2894 1.9568 14.2344 2.00108C13.2842 2.19837 12.681 2.66542 13.091 3.79681C13.2345 4.24981 13.4304 4.6837 13.6746 5.08926V5.57644C13.6544 5.60759 13.632 5.63719 13.6075 5.66502C13.3039 6.10389 12.1329 6.8246 11.4903 7.03799V6.92123C11.6236 6.69291 11.737 6.45309 11.8293 6.20454C12.1172 5.41941 11.6874 5.10134 11.0408 4.94834C11.0032 4.92035 10.9593 4.90238 10.9132 4.89605C10.8671 4.88972 10.8201 4.89524 10.7766 4.9121L10.7569 5.04497L10.6702 5.02081V4.85976C10.7263 4.79709 10.7572 4.71516 10.7569 4.63026C10.7613 4.58969 10.7572 4.54864 10.745 4.50978C10.7328 4.47093 10.7126 4.43515 10.6859 4.40478H10.7924L10.7569 4.36855C10.7169 4.33235 10.6823 4.29029 10.6544 4.24373C10.6544 4.24373 10.611 4.19139 10.5913 4.17528C10.5716 4.15918 10.6544 4.21152 10.6702 4.22763C10.7132 4.25967 10.754 4.29465 10.7924 4.33231L10.8279 4.36855V3.62368L10.7924 3.66797C10.7569 3.66797 10.7214 3.72031 10.6702 3.75655C10.6189 3.79278 10.611 3.79278 10.5913 3.81292C10.6128 3.79756 10.6315 3.77848 10.6465 3.75655C10.6781 3.70916 10.7137 3.6647 10.753 3.62368L10.7884 3.57134H10.0748L10.1103 3.62368C10.1378 3.66584 10.1695 3.70497 10.2049 3.74044C10.2404 3.77668 10.2562 3.79278 10.2562 3.81292C10.2562 3.83305 10.2246 3.81292 10.1891 3.75655C10.1537 3.70018 10.0906 3.6881 10.0748 3.66797L10.0235 3.62368V4.35244L10.0748 4.3162C10.1075 4.27556 10.146 4.24025 10.1891 4.21152C10.2149 4.19922 10.2378 4.18136 10.2562 4.15918C10.254 4.1741 10.2482 4.18822 10.2392 4.2002C10.2303 4.21217 10.2185 4.22162 10.2049 4.22763C10.1694 4.28399 10.1261 4.3162 10.1103 4.35244L10.0748 4.38868H10.1694C10.1177 4.45187 10.0898 4.53181 10.0906 4.61415C10.089 4.65917 10.0987 4.70384 10.1187 4.74399C10.1387 4.78413 10.1684 4.81843 10.2049 4.84365H10.1694L10.1891 5.0047L10.0906 5.02886V4.89599C10.0471 4.87876 10.0001 4.87305 9.95392 4.87939C9.90773 4.88573 9.86386 4.9039 9.82641 4.93223C9.18373 5.08523 8.75397 5.40331 9.03785 6.18844C9.12445 6.44058 9.23264 6.68445 9.36116 6.9172V7.08631H9.29019C8.86437 6.99773 8.15072 6.71991 8.0285 6.28104C7.98404 5.91715 8.0604 5.54854 8.24535 5.2342C8.41095 4.86781 8.69088 4.27191 8.39517 3.88942C8.2438 3.75979 8.07176 3.65765 7.88655 3.58744C7.66182 3.46263 7.51988 3.33781 7.23599 3.18481C6.95211 3.03181 6.61698 3.22105 6.2227 3.86928C6.12238 4.00796 6.0088 4.13609 5.88362 4.25178C5.19363 4.34036 4.75204 4.56181 4.65741 4.97249C4.49576 5.77776 5.28037 5.77776 5.22912 6.28104C5.22912 6.57497 4.90975 6.36962 4.76781 6.35352C4.7018 6.3325 4.63172 6.32854 4.56384 6.34198C4.49596 6.35542 4.43241 6.38585 4.37888 6.43054C4.32535 6.47523 4.28351 6.53278 4.25712 6.59804C4.23073 6.6633 4.2206 6.73423 4.22765 6.80446C4.23872 6.94742 4.28361 7.0855 4.35847 7.20682C4.43333 7.32815 4.53591 7.42911 4.65741 7.50102C4.51547 7.24333 4.53124 6.92123 4.76781 6.9937C5.2646 7.15475 5.55637 7.17086 5.8639 6.73199C5.8639 6.97357 5.65888 7.17086 5.56425 7.3762C5.51384 7.49697 5.49559 7.6292 5.51133 7.75949C5.52708 7.88979 5.57626 8.01352 5.65391 8.11815C5.73156 8.22278 5.83491 8.3046 5.95349 8.35531C6.07206 8.40603 6.20166 8.42383 6.32915 8.40694C6.2469 8.33372 6.18317 8.24132 6.14336 8.13758C6.10355 8.03384 6.08883 7.92183 6.10047 7.81104C6.18721 7.35607 6.46715 7.2232 6.56178 6.8407C6.75497 5.99518 5.99007 5.86231 6.1675 5.06912C6.18702 4.92058 6.22273 4.77473 6.27395 4.63428C6.66658 4.5523 7.04347 4.40542 7.38976 4.19944C7.74856 4.90002 6.71555 5.80997 7.37005 6.52262C7.87394 6.95551 8.50951 7.19605 9.16796 7.20307H9.22316C9.19582 7.22719 9.17469 7.25778 9.16163 7.29218C9.14857 7.32658 9.14398 7.36372 9.14825 7.40036C8.95899 7.32788 8.80917 7.43257 8.83677 7.64596C8.08764 7.64596 7.42525 8.10496 7.59085 8.99075C7.59644 9.12336 7.63168 9.25289 7.69387 9.36944C7.75607 9.48599 7.84355 9.58646 7.94964 9.66315C8.26112 9.15583 9.16796 9.11959 9.75938 9.44975C9.39441 9.44411 9.03175 9.50971 8.69088 9.64301C8.32302 9.84953 7.90797 9.95236 7.48833 9.94096C7.3648 9.93227 7.24723 9.88342 7.15287 9.80154C7.0585 9.71967 6.99229 9.60908 6.96394 9.48599C6.82594 9.6108 6.92846 10.2309 7.4489 10.4845C7.61388 10.5674 7.79689 10.6057 7.98049 10.5958C8.16408 10.5859 8.34214 10.5282 8.49769 10.4281C8.61991 10.3597 9.09699 9.81614 9.68052 9.81614C8.83282 10.0456 8.59626 10.6697 9.25865 11.0442C9.22318 10.8913 9.24027 10.7307 9.30703 10.5892C9.3738 10.4477 9.48618 10.334 9.62533 10.2671C9.77135 10.1793 9.93343 10.1229 10.1016 10.1014C10.2698 10.0799 10.4404 10.0939 10.6031 10.1423C10.7332 10.1946 10.9067 10.2872 10.9974 10.3235C11.0583 10.3283 11.1193 10.3177 11.1751 10.2923C11.2309 10.267 11.2796 10.2279 11.3168 10.1785C11.8129 10.65 12.1753 11.2496 12.3656 11.9139C12.4412 12.1575 12.4552 12.4167 12.4062 12.6673C12.3573 12.918 12.247 13.1519 12.0856 13.3472C11.951 13.5083 11.7597 13.6088 11.5531 13.6269C11.3464 13.645 11.1411 13.5792 10.9816 13.4438C10.9545 13.6146 10.9881 13.7896 11.0763 13.9373C11.1645 14.085 11.3016 14.1956 11.4627 14.2491L10.9738 14.2974H10.9225L10.9028 14.3457C10.8625 14.4506 10.8296 14.5582 10.8042 14.6678C10.6173 14.5938 10.4651 14.4498 10.3784 14.2652C10.2763 14.3759 10.2012 14.5096 10.1593 14.6555C10.1173 14.8014 10.1097 14.9553 10.1369 15.1048C10.1642 15.2543 10.2257 15.3951 10.3163 15.5157C10.4069 15.6364 10.5241 15.7335 10.6583 15.7992C10.6583 15.912 10.6583 16.0287 10.6583 16.1495C10.3684 16.3484 10.0132 16.4219 9.67036 16.354C9.32752 16.2861 9.02496 16.0823 8.82888 15.7872C8.4898 15.2839 8.88014 14.9175 9.07333 14.7121C9.18266 14.6273 9.27357 14.5202 9.34034 14.3977C9.4071 14.2751 9.44826 14.1398 9.46123 14.0002C9.4742 13.8606 9.45869 13.7197 9.41567 13.5866C9.37266 13.4534 9.30308 13.3308 9.21133 13.2264C8.75003 12.5218 7.33062 11.3743 6.78257 10.5369C6.71646 10.6467 6.66351 10.7644 6.62486 10.8871C6.04413 10.397 5.60181 9.75773 5.34346 9.03504C5.237 9.03504 5.16209 9.15986 5.07535 9.24038C4.06769 7.84558 3.18114 6.36365 2.42579 4.81144C1.57809 5.2342 1.57809 6.47833 1.85014 7.19904C2.18584 8.06603 2.67802 8.86092 3.30109 9.54236C3.04087 9.34507 1.42432 7.64999 1.06553 7.44062C0.462283 8.31433 0.872333 9.85641 2.00391 10.5046C1.65695 10.3436 0.789534 10.0134 0.340056 10.1262C0.253315 11.1086 1.03004 11.7729 1.52289 12.1393C1.02658 11.9972 0.503239 11.9847 0.000976562 12.1031C0.0364617 12.7715 0.714621 13.5163 1.67272 13.8666C1.1258 13.7847 0.567364 13.8701 0.068004 14.1122C0.138974 14.8088 0.907818 15.4047 1.83043 15.5496C1.27768 15.5936 0.763197 15.8548 0.395255 16.2784C0.574354 16.5316 0.812181 16.7355 1.08743 16.8719C1.36267 17.0082 1.66673 17.0727 1.97237 17.0595C1.76728 17.1387 1.58062 17.2608 1.42432 17.4178C1.39961 17.3946 1.36725 17.3816 1.33364 17.3816C1.31638 17.3917 1.30329 17.4079 1.29677 17.4272C1.29025 17.4464 1.29074 17.4674 1.29815 17.4863V17.5144C1.26689 17.5337 1.23989 17.5595 1.21885 17.5899C1.19782 17.6204 1.1832 17.6551 1.17593 17.6916C1.10365 17.7944 1.04281 17.9052 0.994559 18.0218C1.01314 18.0315 1.03037 18.0437 1.04582 18.058C1.03878 18.1267 1.05706 18.1956 1.09707 18.2513C1.06544 18.2945 1.04265 18.3438 1.03004 18.3962L0.584509 18.215C0.56056 18.3857 0.572056 18.5595 0.618249 18.7253C0.664442 18.8911 0.744297 19.0451 0.852619 19.1773C1.01427 19.3666 1.19564 19.3384 1.14044 19.4028L1.62146 19.7007C1.63641 19.738 1.65901 19.7716 1.68775 19.7993C1.71649 19.8269 1.7507 19.8479 1.78807 19.8609C1.82544 19.8739 1.8651 19.8785 1.90438 19.8745C1.94365 19.8705 1.98163 19.8579 2.01574 19.8376V19.8739C2.02138 19.9642 2.05328 20.0508 2.10736 20.1225C2.16145 20.1942 2.23525 20.2478 2.31934 20.2765C2.28779 20.4375 2.35482 20.5422 2.57562 20.6147L4.38536 25.1C4.34693 25.1835 4.3419 25.279 4.37135 25.3662C4.40081 25.4535 4.46241 25.5255 4.54307 25.5671C4.49762 25.6299 4.47402 25.7064 4.47604 25.7845C4.54307 25.7321 4.64953 25.712 4.70078 25.865C4.75204 26.018 4.54307 26.316 4.83484 26.5495C4.81658 26.6536 4.83407 26.7609 4.88436 26.8533C4.93464 26.9458 5.01464 27.0176 5.11083 27.0568C5.11083 27.1615 5.20546 27.5118 5.22123 27.6326C5.09506 27.8218 4.79541 28.1077 4.82695 28.4378C4.82777 28.5214 4.8575 28.602 4.91089 28.6654C4.96429 28.7288 5.0379 28.7708 5.11872 28.7841C5.05169 29.1867 5.26854 29.3639 5.59974 29.384C5.61152 29.4958 5.66373 29.599 5.74614 29.6734C5.82856 29.7479 5.93523 29.7883 6.04527 29.7866C6.17808 29.8931 6.32069 29.9861 6.47109 30.0645C6.29761 30.2738 6.41984 30.5516 6.7392 30.6402C6.76053 30.7109 6.80051 30.7742 6.85476 30.8232C6.90901 30.8722 6.97544 30.905 7.04674 30.918C7.08681 30.9837 7.14871 31.0325 7.22111 31.0555C7.29351 31.0784 7.37158 31.0739 7.44102 31.0429C7.49815 30.9958 7.53814 30.9306 7.55459 30.8576C7.57104 30.7845 7.56298 30.708 7.5317 30.6402C7.55708 30.5819 7.56852 30.5183 7.5651 30.4546C7.56167 30.3909 7.54347 30.3289 7.51199 30.2738C7.55967 30.1887 7.57275 30.0879 7.54842 29.993C7.5241 29.8982 7.4643 29.8168 7.38188 29.7665C7.38545 29.6366 7.36123 29.5074 7.31091 29.388L7.99301 28.9492C8.60022 28.4525 9.33041 28.1375 10.1024 28.0392C10.3649 28.0208 10.6284 28.0208 10.891 28.0392C11.2143 28.0755 11.6559 28.1721 11.9161 27.9667C11.9562 27.9451 11.9889 27.9117 12.01 27.8707C12.0311 27.8297 12.0396 27.7832 12.0344 27.7373C11.9989 27.5319 11.7781 27.3346 11.7111 27.1655C11.6913 27.1091 11.6559 27.0286 11.6243 26.9561C11.8137 26.9929 12.0094 26.9734 12.1881 26.8998C12.328 26.8396 12.4471 26.738 12.53 26.6081C12.6129 26.4782 12.6559 26.326 12.6534 26.171C12.3853 26.3039 11.7308 26.481 11.6598 25.8046C11.5888 25.2087 12.1053 24.7014 12.9097 24.9229C13.4577 25.0678 14.2581 26.2596 13.5247 26.775C13.1699 27.0246 12.6218 27.2621 12.6889 27.9144C12.8005 27.768 12.9476 27.6539 13.1156 27.5833C13.2836 27.5127 13.4668 27.488 13.647 27.5118C13.0437 27.9627 12.5864 28.0151 11.9555 28.3654C11.4075 28.6915 11.0014 29.235 10.5716 29.2552C10.2404 29.2552 10.059 28.8525 10.3784 28.5586C10.1961 28.5403 10.0128 28.5825 9.85585 28.679C9.69888 28.7754 9.57656 28.921 9.50704 29.0941C9.42806 29.2644 9.41005 29.4576 9.45616 29.64C9.50226 29.8225 9.60956 29.9826 9.75938 30.0926C9.54594 30.1985 9.37527 30.377 9.2767 30.5974C9.17812 30.8179 9.1578 31.0665 9.21922 31.3005C9.35327 31.7917 9.83035 31.7917 9.64898 32.4158C9.77434 32.3842 9.88896 32.3185 9.98061 32.2256C10.0723 32.1327 10.1375 32.0162 10.1694 31.8884C10.1834 31.7205 10.2375 31.5587 10.3271 31.4173C10.3119 31.6622 10.3678 31.9063 10.4877 32.119C10.6076 32.3317 10.7863 32.5036 11.0014 32.6131C11.2062 32.7271 11.4419 32.7696 11.6726 32.734C11.9033 32.6983 12.1162 32.5866 12.2788 32.4158C12.3851 32.6823 12.5677 32.9097 12.8027 33.0685C13.0376 33.2272 13.314 33.3099 13.5957 33.3056C13.8562 33.2926 14.1089 33.2108 14.3291 33.0681C14.5015 33.4617 14.8026 33.782 15.1807 33.974C15.5641 33.7827 15.8717 33.463 16.0521 33.0681C16.2691 33.2113 16.5194 33.2933 16.7775 33.3056C17.0587 33.3072 17.3339 33.2234 17.5683 33.065C17.8028 32.9066 17.9859 32.6806 18.0944 32.4158C18.2571 32.5866 18.47 32.6983 18.7007 32.734C18.9313 32.7696 19.1671 32.7271 19.3719 32.6131C19.5831 32.5041 19.7591 32.3353 19.8786 32.1267C19.9982 31.9182 20.0564 31.6789 20.0461 31.4374C20.1404 31.5771 20.1974 31.7395 20.2117 31.9085C20.2392 32.0371 20.3021 32.155 20.3929 32.2484C20.4836 32.3418 20.5986 32.4069 20.7243 32.436C20.5429 31.8119 21.0318 31.8119 21.1501 31.3207C21.2129 31.0875 21.1941 30.8393 21.0969 30.6188C20.9998 30.3984 20.8303 30.2194 20.6178 30.1128C20.7708 30.0054 20.8801 29.8447 20.9251 29.6608C20.9702 29.4769 20.9478 29.2825 20.8623 29.1142C20.7925 28.9419 20.6699 28.7973 20.5127 28.7021C20.3556 28.607 20.1725 28.5666 19.9909 28.5868C20.3142 28.8968 20.1407 29.2995 19.8017 29.2834C19.3719 29.2834 18.9658 28.7197 18.4138 28.3935C17.7869 28.0432 17.3256 27.9909 16.7263 27.54C16.906 27.5153 17.0888 27.5395 17.2564 27.6102C17.4239 27.6809 17.5702 27.7956 17.6804 27.9426C17.7514 27.2903 17.2034 27.0528 16.8446 26.8031C16.123 26.2878 16.9155 25.096 17.4754 24.951C18.264 24.7296 18.7884 25.2369 18.7095 25.8328C18.6228 26.5092 17.988 26.3321 17.7002 26.1992C17.7092 26.3489 17.759 26.4931 17.844 26.6155C17.929 26.7378 18.0458 26.8335 18.1812 26.8917C18.2973 26.9413 18.422 26.9669 18.5479 26.9669C18.6738 26.9669 18.7984 26.9413 18.9145 26.8917C18.9145 26.9561 18.9145 27.0286 18.9145 27.0488C18.8593 27.6285 18.5557 27.6809 18.6622 27.9184C18.7687 28.156 19.7859 28.0634 20.0461 28.1157C20.5074 28.1801 20.9017 28.3573 21.3472 28.4459C21.8451 28.4984 22.3374 28.5967 22.8179 28.7398C23.1057 28.8646 23.429 29.1022 23.709 29.2471C24.1308 29.3196 24.0638 29.4967 24.3359 29.4967C24.6079 29.4967 24.6749 29.2834 24.9864 29.1948C25.2033 29.1384 25.4477 29.227 25.6646 29.1585C25.8223 29.1223 25.8933 28.9532 26.0589 28.8646C26.2245 28.776 26.4768 28.7559 26.6424 28.6029C26.6809 28.5576 26.7091 28.5041 26.7248 28.4463C26.7405 28.3885 26.7433 28.3278 26.7331 28.2687V28.2929C27.0686 28.0481 27.3219 27.7037 27.4586 27.3064C27.5014 27.2973 27.5399 27.2736 27.5678 27.2393C27.5958 27.2049 27.6115 27.1619 27.6123 27.1172V27.085C27.6554 27.0512 27.6906 27.008 27.7151 26.9585C27.7397 26.9091 27.7531 26.8546 27.7543 26.7991C27.7546 26.737 27.7421 26.6755 27.7177 26.6186C27.6932 26.5617 27.6573 26.5108 27.6123 26.469V26.4327C27.6076 26.3706 27.5842 26.3116 27.5453 26.2636C27.4807 25.8799 27.3085 25.5235 27.0496 25.2376C26.7907 24.9517 26.4561 24.7487 26.0865 24.6531V24.6169C26.0865 24.5806 26.0865 24.5605 26.0431 24.5605C25.9321 24.4578 25.8493 24.3273 25.8026 24.182C25.9563 24.2674 26.0992 24.3715 26.2284 24.492V23.4774C26.0992 23.5979 25.9563 23.702 25.8026 23.7874C25.8512 23.6239 25.9378 23.4747 26.0549 23.3526H25.0377C25.1719 23.4703 25.2761 23.6195 25.3413 23.7874C25.1865 23.7039 25.0433 23.5996 24.9155 23.4774V24.5001C25.0433 24.3779 25.1865 24.2736 25.3413 24.1901C25.2761 24.358 25.1719 24.5072 25.0377 24.6249H25.0732C24.6967 24.7172 24.3542 24.9181 24.0865 25.2037C23.8188 25.4892 23.6371 25.8474 23.5631 26.2354C23.5376 26.2556 23.5166 26.2812 23.5017 26.3103C23.4867 26.3395 23.4781 26.3717 23.4763 26.4045V26.4408C23.4326 26.4834 23.3978 26.5346 23.3741 26.5914C23.3504 26.6481 23.3382 26.7092 23.3383 26.7709C23.3396 26.826 23.3526 26.8801 23.3764 26.9294C23.4003 26.9788 23.4344 27.0223 23.4763 27.0568V27.089C23.4741 27.1351 23.4891 27.1804 23.5184 27.2156C23.5477 27.2508 23.5891 27.2732 23.6341 27.2783C23.67 27.3756 23.7108 27.471 23.7563 27.5641C23.7193 27.6781 23.6547 27.7806 23.5686 27.8623C23.4824 27.9439 23.3775 28.002 23.2634 28.0312C22.6405 28.1238 21.9544 27.854 21.3275 27.6285C21.0088 27.5398 20.7224 27.3579 20.5035 27.1051C20.4479 27.0359 20.4092 26.9541 20.3907 26.8666C20.3722 26.7791 20.3743 26.6883 20.397 26.6018C20.4938 26.714 20.6101 26.8068 20.74 26.8756C20.7466 26.7882 20.7625 26.7018 20.7874 26.6179C20.8663 26.7353 20.9743 26.8292 21.1004 26.89C21.2264 26.9508 21.366 26.9764 21.5049 26.9642C21.4021 26.834 21.3319 26.6801 21.3003 26.516C21.2687 26.3519 21.2767 26.1823 21.3236 26.022C21.4112 26.1417 21.5296 26.2342 21.6657 26.289C21.8018 26.3439 21.9502 26.359 22.0942 26.3327C22.2382 26.3064 22.3722 26.2396 22.4812 26.14C22.5902 26.0403 22.6699 25.9117 22.7114 25.7684C22.6566 25.8061 22.5942 25.8307 22.5287 25.8403C22.4633 25.8499 22.3965 25.8442 22.3336 25.8237C22.2706 25.8031 22.213 25.7683 22.165 25.7217C22.1171 25.6752 22.0802 25.6182 22.0569 25.555C21.9505 25.2409 22.3014 24.484 21.986 23.9002C21.8691 23.6717 21.6969 23.4778 21.4856 23.3368C21.2744 23.1958 21.0312 23.1125 20.7795 23.0949C20.8285 23.0104 20.8569 22.9151 20.8623 22.8171C20.6165 22.9437 20.332 22.967 20.0696 22.882C19.8072 22.7969 19.5879 22.6103 19.4586 22.3621C19.6134 22.4156 19.7764 22.4401 19.9397 22.4346C19.3916 21.9796 19.4232 20.6912 19.8174 20.0188C19.8726 19.9826 19.8884 19.9463 19.9397 19.9302C20.0619 20.1799 20.4207 20.1799 20.602 20.3852C20.673 20.3127 20.7085 20.2966 20.7795 20.2322C20.782 20.7366 20.8096 21.2405 20.8623 21.7421C20.9332 22.2333 21.3946 22.1809 21.6508 22.3943C21.9308 22.0803 22.4394 22.0964 22.3566 21.5569C22.2738 21.0173 22.1831 20.5261 22.1634 20.1597C22.3211 20.4899 22.6247 21.726 22.7469 22.0803C22.948 22.6077 23.4448 22.4467 23.7247 22.652C23.9061 22.2856 24.3674 22.1809 24.186 21.6293C24.1308 21.4844 23.3975 19.8578 23.2634 19.5437C23.5315 19.9463 24.2649 21.3797 24.4896 21.7783C24.7144 22.1769 25.2033 21.9917 25.5345 22.0964C25.5976 21.7984 26.0431 21.4482 25.7198 20.9247C25.3255 20.2322 24.3516 19.0203 24.3004 18.8512C24.4896 19.0364 25.98 20.9247 26.0944 21.0334C26.4413 21.3435 26.946 21.1019 27.2456 21.1019C27.2456 20.7556 27.5138 20.3651 27.1234 19.9624C26.7331 19.5598 25.9406 19.0203 25.775 18.8149C26.3191 19.2176 26.9578 19.8135 27.3521 19.9101C27.5516 19.9702 27.7618 19.9829 27.9668 19.9474C28.1718 19.9118 28.3661 19.8288 28.5349 19.7048C28.326 19.0726 28.6059 18.7827 27.1668 18.1667C28.4127 18.6217 28.9608 18.3962 29.4063 18.0419C29.3101 17.8167 29.1704 17.6137 28.9956 17.4449C28.8209 17.2761 28.6146 17.145 28.3891 17.0595C28.6948 17.0734 28.9991 17.0092 29.2745 16.8729C29.5498 16.7365 29.7876 16.5322 29.9662 16.2784C29.7795 16.0637 29.5532 15.8887 29.3001 15.7637C29.047 15.6386 28.7723 15.5659 28.4916 15.5496C29.4654 15.4047 30.2146 14.8088 30.3013 14.1122ZM1.45587 18.7787C1.45587 18.7787 1.45587 18.7787 1.42432 18.8109C1.31787 18.8109 1.31787 18.67 1.33364 18.5653C1.35592 18.5672 1.37834 18.5642 1.39942 18.5566C1.42049 18.549 1.43973 18.5368 1.45587 18.521V18.5412L1.40855 18.5774C1.44009 18.6378 1.44009 18.7062 1.45587 18.7787ZM1.79495 19.5236L1.62146 19.4189C1.63249 19.4021 1.64677 19.3877 1.66342 19.3767C1.68007 19.3657 1.69875 19.3582 1.71831 19.3548C1.73787 19.3514 1.7579 19.3522 1.77718 19.3569C1.79646 19.3617 1.81458 19.3705 1.83043 19.3827C1.83437 19.4074 1.83326 19.4327 1.82715 19.4569C1.82104 19.4812 1.81008 19.5039 1.79495 19.5236ZM2.30751 18.4123H2.24048C2.27199 18.4143 2.30359 18.4143 2.33511 18.4123C2.32593 18.4132 2.31669 18.4132 2.30751 18.4123ZM12.1921 31.4052C11.7663 31.4052 11.4587 31.1314 11.6795 30.7489C11.7434 30.8303 11.8236 30.8969 11.9147 30.9441C12.0058 30.9913 12.1058 31.0181 12.2079 31.0227C12.1954 31.1498 12.1901 31.2775 12.1921 31.4052ZM18.6937 30.7489C18.9106 31.1516 18.607 31.4052 18.1812 31.4052C18.1873 31.27 18.1754 31.1345 18.1457 31.0026C18.2488 31.0031 18.3508 30.9814 18.4452 30.9391C18.5396 30.8968 18.6243 30.8348 18.6937 30.757V30.7489ZM12.1724 7.19904C13.0701 7.0055 13.903 6.57674 14.5893 5.95491C14.9925 5.97704 15.3965 5.97704 15.7997 5.95491C16.4772 6.57767 17.3045 7.00561 18.1969 7.19502C17.6292 7.19502 16.6198 7.14267 16.5134 7.00175C16.5489 7.36412 17.3019 7.77481 17.8027 7.89157C17.424 7.94811 17.0375 7.8951 16.6869 7.73857C16.8519 8.00526 17.1008 8.20683 17.3926 8.3103C17.1672 8.55025 16.8904 8.73364 16.5839 8.8461C16.2775 8.95857 15.9497 8.99705 15.6263 8.95854C15.7238 9.07089 15.8463 9.15768 15.9836 9.21163C16.1208 9.26558 16.2687 9.2851 16.4148 9.26857C15.7535 10.2628 15.3356 11.4048 15.1965 12.5983C15.0585 11.4007 14.6377 10.2553 13.9703 9.26051C14.1129 9.27683 14.2572 9.25709 14.3906 9.20302C14.524 9.14896 14.6423 9.06224 14.7352 8.95049C14.4129 8.98865 14.0864 8.94998 13.7813 8.8375C13.4762 8.72502 13.2008 8.5418 12.9767 8.30225C13.2692 8.19993 13.5183 7.99808 13.6825 7.73052C13.3321 7.88789 12.9453 7.94093 12.5666 7.88352C13.0634 7.76675 13.8323 7.35607 13.8638 6.9937C13.7337 7.1467 12.7441 7.19904 12.1724 7.19904ZM3.23406 18.1466L2.95413 18.2674V18.2432L3.23406 18.1466ZM9.50704 22.809C9.51545 22.9071 9.54508 23.002 9.59378 23.0869C9.34543 23.1058 9.10607 23.1899 8.89885 23.3309C8.69163 23.472 8.52358 23.6653 8.41095 23.8921C8.06792 24.4759 8.41095 25.2329 8.32815 25.5469C8.30539 25.61 8.26886 25.667 8.22132 25.7136C8.17379 25.7601 8.1165 25.795 8.0538 25.8156C7.9911 25.8361 7.92464 25.8418 7.85945 25.8323C7.79427 25.8227 7.73207 25.7981 7.67759 25.7603C7.71908 25.903 7.79846 26.0311 7.90693 26.1304C8.01539 26.2298 8.1487 26.2965 8.29205 26.3232C8.43539 26.3499 8.58318 26.3355 8.71901 26.2816C8.85483 26.2278 8.97338 26.1365 9.06151 26.018C9.10702 26.1816 9.11359 26.3539 9.08067 26.5206C9.04775 26.6873 8.97629 26.8435 8.87225 26.9763C9.00953 26.9888 9.14758 26.9633 9.27181 26.9024C9.39604 26.8414 9.50183 26.7473 9.57801 26.63C9.60606 26.7133 9.62329 26.7999 9.62927 26.8877C9.76026 26.8224 9.87592 26.729 9.96835 26.6139C10.0062 26.7645 10.0062 26.9224 9.96835 27.0729C9.80901 27.1791 9.64306 27.2746 9.47156 27.3588C9.03254 27.5818 8.56749 27.7469 8.08764 27.85C7.88678 27.8776 7.68258 27.8375 7.50609 27.7357C7.32959 27.634 7.19046 27.4762 7.10983 27.2863C6.9876 26.8837 6.64852 26.7387 6.37647 26.9924C6.32528 26.9545 6.26204 26.9376 6.19925 26.9451C6.13646 26.9525 6.0787 26.9838 6.03739 27.0326C5.98966 26.9243 5.92434 26.8249 5.84419 26.7387C5.89117 26.6413 5.90147 26.5296 5.87312 26.425C5.84477 26.3203 5.77975 26.2299 5.69042 26.171C5.69042 25.7684 5.42231 25.7684 5.33557 25.6073C5.24883 25.4463 5.28037 25.41 5.40654 25.3939C5.38487 25.3664 5.35799 25.3437 5.3275 25.3271C5.29701 25.3105 5.26354 25.3004 5.22912 25.2973C5.25117 25.2008 5.23763 25.0995 5.19107 25.0125C5.14452 24.9256 5.06822 24.8593 4.97678 24.8262L2.91075 20.4698C2.93553 20.4391 2.95315 20.4031 2.96229 20.3645C2.97142 20.3259 2.97182 20.2857 2.96346 20.2469C2.9551 20.2081 2.9382 20.1717 2.91404 20.1406C2.88988 20.1094 2.85909 20.0843 2.82401 20.0671V20.0309C2.82692 20.0028 2.82692 19.9744 2.82401 19.9463L3.00538 19.9061C3.39966 19.8094 4.05022 19.1934 4.60221 18.8109C4.40901 19.0163 3.60469 19.6162 3.24983 19.9584C2.89498 20.3007 3.07635 20.6187 3.13155 20.9368L3.20646 21.1019C3.51006 21.1019 3.96348 21.3072 4.30256 21.0254C4.40901 20.9167 5.89939 19.0122 6.10047 18.8431C6.02162 19.0122 5.08323 20.2242 4.65741 20.9167C4.33804 21.4401 4.80329 21.7904 4.85455 22.0883C5.19363 21.9837 5.64311 22.189 5.89939 21.7703C6.15567 21.3515 6.86143 19.9383 7.12954 19.5357C7.02308 19.8497 6.25818 21.4763 6.20693 21.6213C6.02162 22.1729 6.48292 22.2776 6.66823 22.644C6.94817 22.4386 7.45679 22.5997 7.6421 22.0722C7.76433 21.7179 8.07187 20.4818 8.22958 20.1517C8.20986 20.5181 8.10735 21.0053 8.03638 21.5488C7.96541 22.0924 8.4622 22.0722 8.72243 22.3863C8.97476 22.1729 9.44001 22.2252 9.51098 21.734C9.58195 21.2428 9.59772 20.2403 9.59772 20.2403C9.6687 20.3047 9.70418 20.3208 9.78304 20.3933C9.95652 20.1879 10.3153 20.1879 10.4336 19.9383C10.4888 19.9383 10.5046 19.9906 10.5558 20.0269C10.9501 20.6952 10.9816 21.9837 10.4336 22.4427C10.5968 22.4469 10.7596 22.4224 10.9146 22.3702C10.6662 22.8614 10.1261 23.0385 9.50704 22.809ZM13.367 28.9049C13.0384 29.3094 12.7725 29.7629 12.5785 30.2497C12.1842 30.2134 12.2709 29.7424 12.3932 29.5008C12.6455 29.0297 13.6746 28.4177 14.1911 27.8017C13.9435 28.1897 13.6681 28.5585 13.367 28.9049ZM14.4828 29.7424C14.2646 30.5961 14.1689 31.4777 14.199 32.3595C13.4735 31.9568 13.8835 30.4872 14.1635 29.847C14.5261 28.9944 14.778 28.097 14.9126 27.1776C15.1373 27.705 14.6366 29.1827 14.4828 29.7424ZM16.1664 32.3595C16.2008 31.4772 16.1038 30.5948 15.8786 29.7424C15.7288 29.1827 15.228 27.705 15.4528 27.1776C15.5855 28.0974 15.8374 28.9951 16.2019 29.847C16.4897 30.4872 16.8958 31.9729 16.1664 32.3595ZM17.9604 29.5008C18.0865 29.7424 18.1536 30.2134 17.779 30.2497C17.5792 29.7659 17.3137 29.3132 16.9905 28.9049C16.6854 28.5619 16.4097 28.1928 16.1664 27.8017C16.6869 28.4177 17.7159 29.0297 17.9683 29.5008H17.9604ZM17.8736 23.1352C17.1859 24.4199 16.2716 25.5638 15.1768 26.5092C14.0837 25.5631 13.1708 24.4193 12.4838 23.1352C11.5893 21.1793 11.0547 19.072 10.9067 16.9186C10.8492 16.2383 10.9284 15.5533 11.1394 14.9054C11.8608 14.8568 12.5741 14.7217 13.2645 14.5028C13.9619 14.2063 14.6086 13.7986 15.1807 13.2949C15.7543 13.7984 16.4024 14.2061 17.1009 14.5028C17.79 14.7216 18.502 14.8567 19.2221 14.9054C19.436 15.5526 19.5166 16.238 19.4586 16.9186C19.3088 19.0717 18.7743 21.1786 17.8815 23.1352H17.8736Z" fill="white"/>
<path d="M62.7149 6.50657L62.9515 4.07065H62.8647L61.95 6.18044L57.7983 12.9165H57.1714L52.7949 6.15628L51.9196 4.09078H51.817L52.1561 6.48241V16.3106H50.1532V1.09118H51.7303L56.7968 8.85793L57.5854 10.5087H57.6287L58.3739 8.81364L63.1644 1.09118H64.844V16.3106H62.7149V6.50657Z" fill="white"/>
<path d="M75.3091 9.78789L75.6087 7.52511H75.3761L74.3194 9.66308L69.0834 16.3105H67.5694V4.89593H69.5408V11.636L69.391 13.6491H69.6275L70.5777 11.7004L75.7034 4.89593H77.2371V16.3105H75.2657L75.3091 9.78789Z" fill="white"/>
<path d="M87.5305 11.33H81.9199V16.3105H79.9485V4.89593H81.9199V9.55034H87.5305V4.89593H89.5019V16.3105H87.5305V11.33Z" fill="white"/>
<path d="M103.302 19.1813H101.985L101.622 16.3105H92.2029V4.89593H94.1743V14.6154H99.5601V4.89593H101.532V14.6154H103.302V19.1813Z" fill="white"/>
<path d="M112.3 9.78789L112.599 7.52511H112.371L111.322 9.66308L106.082 16.3105H104.572V4.89593H106.543V11.636L106.393 13.6491H106.626L107.608 11.7125L112.733 4.90801H114.267V16.3105H112.296L112.3 9.78789Z" fill="white"/>
<path d="M122.646 16.3751C122.334 16.486 122.009 16.555 121.68 16.5804C121.372 16.6046 121.1 16.6126 120.86 16.6126C119.383 16.6126 118.243 16.1174 117.441 15.1269C116.64 14.1364 116.239 12.6319 116.239 10.6134C116.239 8.71567 116.679 7.25143 117.56 6.2207C118.44 5.18996 119.718 4.67594 121.392 4.67862C121.589 4.67862 121.786 4.67862 121.999 4.69875C122.217 4.71693 122.434 4.75329 122.646 4.80746V1.09118H124.617V4.83162C124.919 4.76878 125.225 4.72441 125.532 4.69875C125.772 4.69875 125.985 4.67862 126.171 4.67862C127.777 4.67862 128.987 5.12823 129.802 6.02744C130.617 6.92665 131.024 8.37612 131.024 10.3759C131.033 11.2342 130.923 12.0895 130.697 12.9165C130.499 13.635 130.167 14.3077 129.719 14.8974C129.303 15.4365 128.771 15.8716 128.166 16.1697C127.51 16.4833 126.792 16.639 126.068 16.6247C125.84 16.6203 125.612 16.6028 125.386 16.5723C125.119 16.542 124.855 16.4868 124.598 16.4073V20.659H122.626L122.646 16.3751ZM121.412 15.0061C121.597 15.0061 121.786 15.0061 121.976 14.9819C122.216 14.9628 122.454 14.9265 122.689 14.8732V6.44215C122.433 6.38578 122.22 6.34551 122.05 6.32538C121.853 6.30106 121.654 6.2903 121.455 6.29317C121.008 6.26957 120.562 6.35218 120.151 6.53453C119.741 6.71687 119.377 6.99397 119.089 7.34404C118.53 8.04864 118.246 9.13977 118.246 10.6174C118.243 11.2023 118.304 11.7857 118.427 12.3568C118.534 12.8532 118.729 13.3254 119.003 13.7499C119.265 14.1548 119.626 14.4835 120.049 14.7043C120.472 14.9251 120.945 15.0305 121.42 15.0101L121.412 15.0061ZM125.749 6.28915C125.524 6.28915 125.331 6.28915 125.173 6.30928C124.971 6.33389 124.772 6.37701 124.578 6.43812V14.9175C124.786 14.9606 124.997 14.9862 125.209 14.994C125.414 14.994 125.634 14.994 125.879 14.994C126.342 15.0211 126.804 14.9239 127.219 14.712C127.634 14.5001 127.988 14.1809 128.245 13.7861C128.77 12.9809 129.033 11.8361 129.033 10.3517C129.037 9.78205 128.98 9.21364 128.864 8.65662C128.767 8.1903 128.578 7.74912 128.308 7.36015C128.047 7.0057 127.698 6.72792 127.298 6.55488C126.801 6.3553 126.267 6.26476 125.733 6.28915H125.749Z" fill="white"/>
<path d="M132.952 4.89598H134.269L134.663 6.3535H134.845C135.223 5.79157 135.736 5.33822 136.335 5.0369C136.976 4.72008 137.681 4.56017 138.393 4.56985C140.01 4.56985 141.216 5.03019 142.013 5.95087C142.809 6.87155 143.203 8.33847 143.196 10.3516C143.208 11.2351 143.074 12.1143 142.801 12.9526C142.564 13.6843 142.18 14.3576 141.674 14.9295C141.178 15.4774 140.567 15.904 139.888 16.1777C139.134 16.4778 138.331 16.6255 137.522 16.6125C137.238 16.6125 136.978 16.6125 136.733 16.5803C136.514 16.5624 136.296 16.5261 136.083 16.4716C135.886 16.4233 135.689 16.3629 135.487 16.2985C135.286 16.2341 135.093 16.1576 134.872 16.069V20.659H132.901L132.952 4.89598ZM137.932 6.26492C137.219 6.2264 136.516 6.45872 135.961 6.91719C135.422 7.464 135.061 8.16689 134.928 8.93034V14.1806C135.253 14.4116 135.609 14.5946 135.984 14.7242C136.458 14.8665 136.95 14.9317 137.443 14.9175C137.947 14.9436 138.449 14.8536 138.914 14.6543C139.379 14.4549 139.794 14.1513 140.128 13.7659C140.775 12.9983 141.098 11.8534 141.098 10.3315C141.145 9.29405 140.89 8.26572 140.365 7.37618C139.889 6.63534 139.078 6.26492 137.932 6.26492Z" fill="white"/>
<path d="M147.28 9.26061C147.734 9.18814 148.156 9.14385 148.546 9.11969C148.936 9.09553 149.287 9.08748 149.599 9.08748C150.3 9.07212 151 9.16027 151.677 9.34919C152.172 9.48739 152.633 9.7317 153.029 10.0659C153.364 10.3532 153.62 10.7253 153.77 11.1449C153.915 11.575 153.987 12.027 153.983 12.4817C153.983 13.8613 153.572 14.8652 152.749 15.4933C151.926 16.1214 150.585 16.4368 148.724 16.4395C148.128 16.4395 147.541 16.4395 147.001 16.4395C146.46 16.4395 145.893 16.3952 145.341 16.3509V4.89609H147.312L147.28 9.26061ZM147.28 14.6116C147.881 14.6977 148.487 14.7407 149.094 14.7404C150.109 14.7404 150.818 14.5592 151.223 14.1969C151.431 14.0027 151.594 13.7634 151.7 13.4966C151.806 13.2297 151.852 12.9421 151.834 12.6548C151.84 12.3825 151.79 12.112 151.687 11.8609C151.583 11.6098 151.43 11.3837 151.235 11.1973C150.833 10.8081 150.14 10.6121 149.157 10.6094C148.889 10.6094 148.589 10.6094 148.258 10.6416C147.929 10.6646 147.603 10.7117 147.28 10.7826V14.6116ZM156.03 4.89207H158.001V16.3107H156.03V4.89207Z" fill="white"/>
<path d="M50.1528 18.6137C50.795 18.477 51.4459 18.3869 52.1006 18.3439C52.8063 18.2916 53.4963 18.2674 54.1784 18.2674C54.9171 18.2686 55.6544 18.3332 56.3824 18.4607C57.0947 18.5805 57.7815 18.8243 58.413 19.1814C59.0821 19.5492 59.6343 20.1047 60.0045 20.7824C60.3748 21.4601 60.5476 22.2317 60.5026 23.0064C60.5263 23.8187 60.3429 24.6234 59.9704 25.3416C59.627 25.9756 59.1404 26.5167 58.551 26.9199C57.9364 27.339 57.2524 27.6405 56.5323 27.8097C55.7578 28.0018 54.9635 28.0978 54.1666 28.0956H53.7723L53.2203 28.0715C53.0271 28.0715 52.826 28.0715 52.6644 28.0392C52.5027 28.007 52.3568 28.0111 52.2701 27.999V33.6801H50.141L50.1528 18.6137ZM54.2415 20.1799C53.8472 20.1799 53.4845 20.1799 53.1257 20.2C52.8415 20.2055 52.5586 20.242 52.2819 20.3087V26.0744C52.3959 26.1088 52.514 26.1264 52.6328 26.1268L53.1454 26.159C53.3228 26.159 53.4924 26.159 53.658 26.159H54.0168C54.5224 26.1607 55.0273 26.1217 55.5268 26.0422C56.0006 25.972 56.4585 25.8166 56.8792 25.5832C57.2841 25.355 57.6228 25.0216 57.861 24.6169C58.1279 24.1254 58.2562 23.5679 58.2316 23.0064C58.2526 22.5087 58.1262 22.0162 57.8689 21.5931C57.6331 21.2252 57.3122 20.9223 56.9344 20.7114C56.532 20.4918 56.0961 20.3434 55.6451 20.2725C55.1803 20.2046 54.711 20.1736 54.2415 20.1799Z" fill="white"/>
<path d="M60.992 27.9869C60.9787 27.127 61.1012 26.2705 61.3548 25.4503C61.5726 24.7465 61.9356 24.0984 62.4193 23.5499C62.8905 23.0175 63.4763 22.6041 64.1305 22.342C64.8687 22.0595 65.6528 21.9229 66.441 21.9394C67.2587 21.9216 68.0711 22.0779 68.8264 22.3984C69.4828 22.6824 70.0658 23.1179 70.5296 23.6707C70.9928 24.2295 71.3366 24.8809 71.539 25.5832C71.7676 26.3669 71.8792 27.1813 71.8702 27.999C71.8806 28.8475 71.7554 29.692 71.4996 30.4993C71.2745 31.1963 70.9122 31.8389 70.435 32.3877C69.9675 32.9207 69.3841 33.3344 68.7317 33.5956C68.0006 33.8789 67.2228 34.0156 66.441 33.9982C65.6103 34.0189 64.7844 33.8625 64.0162 33.5392C63.363 33.259 62.7826 32.8276 62.3208 32.279C61.8627 31.723 61.523 31.0758 61.3232 30.3785C61.0957 29.6029 60.9841 28.7966 60.992 27.9869ZM63.1211 27.9869C63.1206 28.5169 63.1801 29.0452 63.2986 29.5612C63.4063 30.0535 63.6014 30.5216 63.8742 30.9422C64.1364 31.3471 64.4891 31.6824 64.9033 31.9206C65.3804 32.1808 65.9161 32.3085 66.4567 32.291C68.6463 32.291 69.7398 30.8563 69.7371 27.9869C69.7392 27.4382 69.6797 26.8911 69.5597 26.3563C69.4581 25.8608 69.2683 25.3887 68.9998 24.9632C68.7379 24.5631 68.3883 24.2308 67.9787 23.9928C67.3245 23.661 66.5838 23.5508 65.8641 23.6782C65.1444 23.8056 64.4833 24.1641 63.9767 24.7014C63.4063 25.4262 63.1211 26.5213 63.1211 27.9869Z" fill="white"/>
<path d="M82.6022 32.899C82.0719 33.2721 81.4803 33.5449 80.8555 33.7043C80.1671 33.8888 79.4579 33.9809 78.7461 33.9781C77.9278 34.0002 77.1135 33.8523 76.3529 33.5432C75.7273 33.2822 75.1747 32.8673 74.7442 32.3353C74.3172 31.7769 74.012 31.1317 73.8492 30.443C73.6572 29.6392 73.5645 28.8141 73.5732 27.9869C73.5732 26.057 74.0306 24.5672 74.9453 23.5177C75.864 22.4668 77.1769 21.9394 78.8881 21.9394C80.076 21.9174 81.254 22.1635 82.338 22.6601L81.8294 24.2706C81.4365 24.062 81.021 23.9012 80.5914 23.7915C80.1181 23.6719 79.6319 23.6138 79.1444 23.6184C76.8444 23.6184 75.6944 25.0678 75.6944 27.9668C75.6917 28.5096 75.7553 29.0506 75.8837 29.5773C75.997 30.0721 76.2032 30.5397 76.4909 30.9543C76.7812 31.3619 77.1623 31.6931 77.6027 31.9206C78.1248 32.1818 78.7013 32.309 79.2824 32.291C79.8118 32.3011 80.3388 32.2166 80.8398 32.0414C81.237 31.8976 81.6115 31.6955 81.9516 31.4415L82.6022 32.899Z" fill="white"/>
<path d="M92.5229 32.899C91.993 33.2728 91.4012 33.5456 90.7762 33.7043C90.0878 33.8891 89.3786 33.9812 88.6668 33.9781C87.8484 34.0002 87.0342 33.8523 86.2735 33.5432C85.6491 33.2802 85.0969 32.8656 84.6649 32.3353C84.2378 31.7769 83.9327 31.1317 83.7699 30.443C83.5798 29.6389 83.4871 28.814 83.4939 27.9869C83.4939 26.057 83.9526 24.5672 84.8699 23.5177C85.7873 22.4682 87.1015 21.9421 88.8127 21.9394C90.0006 21.9174 91.1786 22.1635 92.2626 22.6601L91.754 24.2706C91.3614 24.0614 90.9458 23.9006 90.516 23.7915C90.0427 23.6717 89.5565 23.6135 89.069 23.6184C86.7717 23.6184 85.6217 25.0678 85.619 27.9668C85.6156 28.5098 85.6805 29.0511 85.8122 29.5773C85.9288 30.0704 86.1362 30.5363 86.4234 30.9503C86.7155 31.3561 87.0962 31.687 87.5352 31.9166C88.0586 32.1781 88.6365 32.3053 89.2188 32.287C89.7469 32.2967 90.2726 32.2123 90.7723 32.0374C91.1703 31.8955 91.5451 31.6933 91.8841 31.4375L92.5229 32.899Z" fill="white"/>
<path d="M102.23 27.1574L102.53 24.8986H102.293L101.252 27.0286L96.0122 33.68H94.5021V22.2654H96.4735V28.9894L96.3237 31.0025H96.5563L97.5381 29.0699L102.664 22.2614H104.197V33.68H102.226L102.23 27.1574Z" fill="white"/>
<path d="M114.812 27.1574L115.111 24.8986H114.875L113.834 27.0286L108.598 33.68H107.084V22.2654H109.055V28.9894L108.905 31.0025H109.142L110.12 29.0699L115.245 22.2614H116.779V33.68H114.808L114.812 27.1574Z" fill="white"/>
<path d="M41.1627 1.07324H39.0967V9.0542H41.1627V1.07324Z" fill="#60C4EE"/>
<path d="M41.1627 9.05469H39.0967V17.0356H41.1627V9.05469Z" fill="#2888C3"/>
<path d="M41.1627 17.0352H39.0967V25.0161H41.1627V17.0352Z" fill="#065D89"/>
<path d="M41.1627 25.0205H39.0967V33.0015H41.1627V25.0205Z" fill="white"/>
</svg>
