<svg width="114" height="34" viewBox="0 0 114 34" fill="none" xmlns="http://www.w3.org/2000/svg">
<path d="M55.5481 0.277584H56.71V6.15253H59.6514V0.277584H60.8133V6.14503H61.6222L61.5303 8.7432H60.464V7.10107H55.5481V0.277584Z" fill="white"/>
<path d="M66.6781 0.277632H67.8437V7.10112H66.6781V2.2272L63.7367 7.10112H62.5822V0.277632H63.7441V5.15155L66.6781 0.277632Z" fill="white"/>
<path d="M72.8801 0.926044H72.983C73.4719 0.918859 73.9544 1.04023 74.3839 1.27847C74.799 1.50803 75.141 1.85412 75.3692 2.27574C75.6049 2.71848 75.7252 3.21548 75.7185 3.71917C75.7258 4.21936 75.6054 4.71288 75.3692 5.15136C75.1418 5.5678 74.8042 5.91074 74.3949 6.14114C73.9674 6.37765 73.4877 6.49896 73.0014 6.49356H72.8801V7.38211H71.777V6.49356H71.663C71.1706 6.50066 70.6846 6.37935 70.2511 6.14114C69.8385 5.91455 69.4979 5.57244 69.2694 5.1551C69.035 4.71881 68.9159 4.22784 68.9238 3.73042C68.9167 3.22667 69.037 2.72954 69.2731 2.28699C69.4985 1.86477 69.8379 1.51734 70.2511 1.28596C70.6816 1.03752 71.1684 0.908272 71.663 0.911047H71.7697V0H72.8727L72.8801 0.926044ZM71.663 1.88208C71.4391 1.86949 71.2151 1.90692 71.0068 1.99175C70.7985 2.07658 70.6109 2.20677 70.457 2.37322C70.148 2.75287 69.9917 3.23787 70.0195 3.73042C69.9936 4.21181 70.1488 4.68514 70.4534 5.05388C70.6098 5.22083 70.8 5.35094 71.0109 5.43513C71.2217 5.51931 71.4481 5.55554 71.6741 5.54127H71.7697V1.88208H71.663ZM72.8874 1.88208V5.54127H72.9977C73.2215 5.55413 73.4453 5.51643 73.6531 5.43088C73.861 5.34533 74.0477 5.21404 74.2 5.04638C74.5029 4.67538 74.6566 4.20113 74.6302 3.71917C74.6576 3.23136 74.5041 2.75089 74.2 2.37322C74.0447 2.20568 73.8552 2.07489 73.6449 1.99004C73.4347 1.90518 73.2087 1.86833 72.983 1.88208H72.8874Z" fill="white"/>
<path d="M77.8867 4.57017V7.10086H76.7248V0.277378H79.2986C79.9441 0.241112 80.5794 0.453925 81.0781 0.873495C81.2956 1.0697 81.4675 1.31281 81.5813 1.58517C81.6951 1.85753 81.7481 2.15232 81.7363 2.44815C81.7525 2.74145 81.703 3.03467 81.5915 3.30555C81.48 3.57644 81.3095 3.81787 81.0928 4.01155C80.5708 4.41567 79.9232 4.61403 79.2692 4.57017H77.8867ZM77.8867 3.61414H79.2839C79.624 3.63862 79.9609 3.53303 80.2288 3.31795C80.3412 3.20768 80.4288 3.07375 80.4853 2.92547C80.5418 2.7772 80.5659 2.61815 80.556 2.45939C80.5637 2.29661 80.5383 2.13397 80.4814 1.98169C80.4244 1.82942 80.3372 1.69081 80.2251 1.57459C80.1029 1.46021 79.9598 1.37154 79.804 1.31364C79.6482 1.25574 79.4827 1.22975 79.317 1.23716H77.8867V3.61414Z" fill="white"/>
<path d="M88.0759 3.86934C88.0876 4.47337 87.9723 5.07295 87.7376 5.6277C87.5332 6.10514 87.194 6.50973 86.7633 6.78995C86.324 7.05482 85.8231 7.19456 85.3128 7.19456C84.8025 7.19456 84.3015 7.05482 83.8623 6.78995C83.4299 6.51286 83.0882 6.1109 82.8805 5.6352C82.6352 5.09355 82.5096 4.50348 82.5129 3.90684V3.53192C82.5006 2.92587 82.6186 2.32443 82.8585 1.76981C83.0661 1.29125 83.4059 0.884766 83.8365 0.60007C84.2725 0.329345 84.7748 0.190243 85.2852 0.19891C85.7959 0.184475 86.3 0.319803 86.7375 0.588823C87.1666 0.866045 87.5056 1.26652 87.7119 1.73982C87.9519 2.28925 88.0711 2.88555 88.0612 3.48693L88.0759 3.86934ZM86.914 3.51317C86.9513 2.9033 86.8051 2.29635 86.4949 1.77356C86.3582 1.58371 86.1797 1.42933 85.9737 1.32292C85.7677 1.21651 85.54 1.16106 85.3091 1.16106C85.0782 1.16106 84.8505 1.21651 84.6445 1.32292C84.4385 1.42933 84.2599 1.58371 84.1233 1.77356C83.8112 2.28365 83.6598 2.87897 83.6895 3.47943V3.87309C83.6528 4.4832 83.8032 5.08983 84.1196 5.60896C84.2514 5.80543 84.4296 5.9648 84.6379 6.07228C84.8461 6.17977 85.0776 6.23189 85.3109 6.22382C85.5426 6.23537 85.7733 6.18632 85.9812 6.08133C86.1891 5.97633 86.3672 5.81889 86.4985 5.62395C86.8097 5.09753 86.9547 4.48634 86.914 3.87309V3.51317Z" fill="white"/>
<path d="M89.2355 7.10114V0.277658H91.5188C92.1279 0.236932 92.7334 0.400173 93.2432 0.742555C93.4441 0.90748 93.6031 1.11929 93.7068 1.36008C93.8105 1.60088 93.8558 1.86358 93.8389 2.126C93.8403 2.42637 93.7532 2.72025 93.5888 2.96956C93.4043 3.23205 93.1488 3.43399 92.8535 3.55068C93.1889 3.63213 93.4857 3.83118 93.6918 4.11306C93.8914 4.40508 93.9945 4.75446 93.9859 5.11033C94.002 5.38652 93.956 5.6628 93.8515 5.91814C93.747 6.17347 93.5868 6.40112 93.3829 6.58376C92.885 6.9592 92.2728 7.14252 91.6548 7.10114H89.2355ZM90.4157 3.14952H91.5556C91.858 3.16713 92.1573 3.07992 92.4049 2.90207C92.5065 2.81561 92.5869 2.70623 92.6399 2.5826C92.6928 2.45897 92.7169 2.32447 92.7101 2.18973C92.7252 2.05077 92.7074 1.91014 92.6581 1.77966C92.6088 1.64918 92.5296 1.53266 92.427 1.4399C92.1654 1.27086 91.8569 1.19321 91.5482 1.2187H90.4157V3.14952ZM90.4157 4.02308V6.1526H91.7063C92.0152 6.17197 92.3202 6.07452 92.563 5.87891C92.6641 5.78394 92.7438 5.6677 92.7965 5.53822C92.8492 5.40875 92.8736 5.26915 92.8682 5.12908C92.8682 4.41674 92.5005 4.05682 91.8019 4.04182L90.4157 4.02308Z" fill="white"/>
<path d="M98.9154 5.51147H96.3233L95.7828 7.10112H94.5731L97.0991 0.277632H98.1359L100.666 7.10112H99.4522L98.9154 5.51147ZM96.6652 4.57043H98.6029L97.6322 1.74356L96.6652 4.57043Z" fill="white"/>
<path d="M104.73 7.10114V4.57046H103.436L102.145 7.11989H100.899L102.392 4.19554C102.035 4.0484 101.732 3.79262 101.523 3.46315C101.315 3.13367 101.211 2.74657 101.226 2.3547C101.209 2.06672 101.257 1.77852 101.366 1.51255C101.476 1.24658 101.644 1.01002 101.858 0.82129C102.361 0.427022 102.986 0.228914 103.62 0.262664H105.892V7.08615L104.73 7.10114ZM102.384 2.41094C102.375 2.57489 102.398 2.73906 102.452 2.89366C102.507 3.04826 102.591 3.19011 102.7 3.31074C102.83 3.42588 102.981 3.51365 103.145 3.56899C103.308 3.62433 103.481 3.64614 103.653 3.63317H104.73V1.23745H103.653C103.481 1.22265 103.308 1.24252 103.144 1.29591C102.98 1.34931 102.828 1.43519 102.697 1.54863C102.589 1.66288 102.506 1.79837 102.453 1.9467C102.399 2.09503 102.376 2.25304 102.384 2.41094Z" fill="white"/>
<path d="M56.5296 14.6929C56.5489 15.0865 56.7054 15.4601 56.9709 15.7464C57.2617 15.9766 57.6258 16.0888 57.993 16.0613C58.2057 16.0699 58.4173 16.0255 58.6095 15.9321C58.8016 15.8387 58.9686 15.6991 59.0961 15.5252C59.3957 15.0638 59.5474 14.5187 59.5299 13.9656H57.1694V13.0095H59.5299C59.5427 12.46 59.3872 11.92 59.085 11.4649C58.951 11.289 58.7775 11.1485 58.5792 11.0552C58.3808 10.9619 58.1634 10.9185 57.9452 10.9287C57.5873 10.9049 57.2342 11.0232 56.9598 11.2587C56.6987 11.5525 56.5476 11.9309 56.5333 12.3272H55.3751C55.3835 11.9974 55.4579 11.6728 55.5937 11.3734C55.7294 11.0739 55.9238 10.8059 56.1648 10.5858C56.4058 10.3657 56.6884 10.1981 56.9952 10.0933C57.3019 9.98852 57.6265 9.94875 57.9489 9.97644C58.4558 9.95809 58.9572 10.0882 59.3939 10.3514C59.8173 10.6205 60.1526 11.012 60.3572 11.4761C60.5908 12.0089 60.7075 12.5872 60.6991 13.1707V13.7444C60.711 14.3291 60.5994 14.9096 60.3719 15.4465C60.1742 15.9092 59.8451 16.301 59.427 16.5712C58.9973 16.8316 58.5037 16.9616 58.004 16.9461C57.3383 16.9802 56.6837 16.7626 56.1656 16.335C55.7058 15.9109 55.4229 15.3232 55.3751 14.6929H56.5296Z" fill="white"/>
<path d="M63.7833 13.9657H62.9927V16.89H61.8382V10.0703H62.9927V12.9347H63.6325L65.5996 10.0703H67.0225L64.7245 13.3358L67.2247 16.89H65.8276L63.7833 13.9657Z" fill="white"/>
<path d="M73.2059 13.6583C73.2183 14.2628 73.1017 14.8628 72.864 15.4167C72.6605 15.8936 72.3227 16.2981 71.8933 16.5789C71.4541 16.8438 70.9531 16.9835 70.4428 16.9835C69.9325 16.9835 69.4316 16.8438 68.9923 16.5789C68.5627 16.3059 68.2203 15.9111 68.007 15.4429C67.7616 14.9013 67.636 14.3112 67.6393 13.7146V13.3396C67.6335 12.7331 67.7591 12.1327 68.007 11.5813C68.2134 11.102 68.5535 10.6952 68.985 10.4115C69.4243 10.1489 69.9244 10.0104 70.4336 10.0104C70.9429 10.0104 71.443 10.1489 71.8823 10.4115C72.3124 10.6902 72.6525 11.0918 72.8603 11.5663C73.0988 12.1162 73.218 12.7122 73.2096 13.3134L73.2059 13.6583ZM72.0441 13.2834C72.0814 12.6735 71.9352 12.0666 71.6249 11.5438C71.4911 11.3495 71.3116 11.1928 71.1027 11.0879C70.8939 10.9831 70.6625 10.9336 70.43 10.9439C70.1999 10.9358 69.9716 10.9868 69.766 11.0923C69.5603 11.1978 69.3841 11.3543 69.2534 11.5475C68.9396 12.0555 68.788 12.6502 68.8195 13.2497V13.6433C68.7829 14.2534 68.9332 14.8601 69.2497 15.3792C69.3862 15.5705 69.565 15.7262 69.7718 15.8335C69.9785 15.9409 70.2072 15.9968 70.4392 15.9968C70.6711 15.9968 70.8998 15.9409 71.1066 15.8335C71.3133 15.7262 71.4922 15.5705 71.6286 15.3792C71.9269 14.8589 72.0664 14.2598 72.0294 13.6583L72.0441 13.2834Z" fill="white"/>
<path d="M79.6743 16.89H78.5161V13.8645H75.5269V16.89H74.365V10.0703H75.5269V12.9084H78.5161V10.0703H79.6743V16.89Z" fill="white"/>
<path d="M86.3705 13.6583C86.3841 14.2625 86.2686 14.8624 86.0322 15.4166C85.8274 15.8927 85.4899 16.2969 85.0615 16.5789C84.6217 16.8441 84.1201 16.984 83.6092 16.984C83.0982 16.984 82.5966 16.8441 82.1568 16.5789C81.7345 16.3024 81.3989 15.9081 81.1898 15.4429C80.9445 14.9012 80.8189 14.3112 80.8222 13.7145V13.3396C80.8164 12.733 80.942 12.1327 81.1898 11.5812C81.3941 11.1005 81.7347 10.6931 82.1679 10.4115C82.6026 10.1375 83.1056 9.99696 83.6165 10.0066C84.1266 9.99659 84.6289 10.1344 85.0652 10.404C85.4953 10.6827 85.8355 11.0843 86.0433 11.5587C86.282 12.1085 86.3999 12.7048 86.3889 13.3059L86.3705 13.6583ZM85.2086 13.2834C85.2459 12.6735 85.0997 12.0665 84.7895 11.5437C84.6528 11.3539 84.4743 11.1995 84.2683 11.0931C84.0623 10.9867 83.8346 10.9312 83.6037 10.9312C83.3728 10.9312 83.1451 10.9867 82.9391 11.0931C82.733 11.1995 82.5545 11.3539 82.4179 11.5437C82.1059 12.0525 81.9544 12.6466 81.984 13.2459V13.6395C81.9474 14.2496 82.0977 14.8563 82.4142 15.3754C82.546 15.5719 82.7242 15.7312 82.9325 15.8387C83.1407 15.9462 83.3722 15.9983 83.6055 15.9903C83.8372 16.0018 84.0679 15.9528 84.2758 15.8478C84.4837 15.7428 84.6618 15.5853 84.7931 15.3904C85.1043 14.864 85.2493 14.2528 85.2086 13.6395V13.2834Z" fill="white"/>
<path d="M89.05 10.0703L90.9804 15.2966L92.9033 10.0703H94.4071V16.89H93.2489V14.6405L93.3629 11.6412L91.3885 16.89H90.5575L88.5868 11.6412L88.7007 14.6405V16.89H87.5425V10.0703H89.05Z" fill="white"/>
<path d="M99.8792 10.0703H101.041V16.89H99.8792V12.0161L96.9378 16.89H95.7832V10.0703H96.9451V14.9442L99.8792 10.0703Z" fill="white"/>
<path d="M104.413 13.9657H103.622V16.89H102.468V10.0703H103.622V12.9347H104.262L106.225 10.0703H107.648L105.35 13.3358L107.851 16.89H106.453L104.413 13.9657Z" fill="white"/>
<path d="M112.24 15.3004H109.648L109.107 16.89H107.898L110.427 10.0703H111.468L114.001 16.89H112.788L112.24 15.3004ZM109.975 14.3443H111.916L110.946 11.5175L109.975 14.3443Z" fill="white"/>
<path d="M38.4482 4.12404V3.47168C38.4482 3.168 38.3342 3.06677 38.1246 3.06677H37.8157V4.49895H38.1246C38.3342 4.49895 38.4482 4.41647 38.4482 4.12404Z" fill="white"/>
<path d="M34.0382 11.7122H33.7293V13.1556H34.0382C34.2478 13.1556 34.3618 13.0581 34.3618 12.7545V12.1134C34.3618 11.8097 34.2478 11.7122 34.0382 11.7122Z" fill="white"/>
<path d="M33.6421 7.62941V6.99205C33.6421 6.68462 33.528 6.58714 33.3184 6.58714H33.0058V8.03432H33.3184C33.528 8.03432 33.6421 7.93684 33.6421 7.62941Z" fill="white"/>
<path d="M36.4218 11.6634C36.2122 11.6634 36.0798 11.7796 36.0798 12.0833V14.3891C36.0798 14.6927 36.2122 14.809 36.4218 14.809C36.6314 14.809 36.7638 14.6927 36.7638 14.3891V12.0833C36.7675 11.7796 36.6314 11.6634 36.4218 11.6634Z" fill="white"/>
<path d="M19.2981 3.77143H19.9344L19.6144 1.61191L19.2981 3.77143Z" fill="white"/>
<path d="M27.6085 1.4133C27.3988 1.4133 27.2664 1.52952 27.2664 1.83695V4.14269C27.2664 4.44637 27.3988 4.5626 27.6085 4.5626C27.8181 4.5626 27.9468 4.44637 27.9468 4.14269V1.83695C27.9431 1.52952 27.8144 1.4133 27.6085 1.4133Z" fill="white"/>
<path d="M35.7003 6.53836C35.4907 6.53836 35.3583 6.65458 35.3583 6.95826V9.264C35.3583 9.57143 35.4907 9.68766 35.7003 9.68766C35.9099 9.68766 36.0386 9.57143 36.0386 9.264V6.95826C36.0313 6.65458 35.9099 6.53836 35.7003 6.53836Z" fill="white"/>
<path d="M32.3995 3.77143H33.0357L32.7195 1.61191L32.3995 3.77143Z" fill="white"/>
<path d="M45.7156 9.2341V8.59299C45.7156 8.28931 45.6016 8.19183 45.3919 8.19183H45.083V9.63901H45.3919C45.5905 9.63901 45.7156 9.54153 45.7156 9.2341Z" fill="white"/>
<path d="M47.974 3.2451e-10H15.5776C15.4999 0.00280631 15.4245 0.0273858 15.3597 0.0710384C15.2948 0.114691 15.243 0.175728 15.2099 0.247445L0.039399 33.3938C0.00487324 33.4703 -0.00674329 33.5554 0.00600652 33.6386C0.0187563 33.7218 0.0553048 33.7992 0.111068 33.8613C0.16683 33.9234 0.239325 33.9673 0.319457 33.9875C0.39959 34.0077 0.483794 34.0033 0.561506 33.975L48.1174 16.3276C48.1977 16.2975 48.267 16.2428 48.3157 16.171C48.3644 16.0992 48.3902 16.0138 48.3894 15.9265V0.427405C48.3899 0.371455 48.3795 0.315961 48.3589 0.264127C48.3382 0.212294 48.3077 0.165147 48.2691 0.125409C48.2304 0.0856705 48.1845 0.0541285 48.1338 0.0326037C48.0832 0.011079 48.0288 -2.19066e-06 47.974 3.2451e-10ZM44.4883 0.85481H45.1465V5.12511H44.4883V0.85481ZM44.4148 5.97617H45.073V7.58082H45.3818C46.04 7.58082 46.3635 7.95573 46.3635 8.63808V9.19296C46.3635 9.87531 46.04 10.2465 45.3818 10.2465H44.4148V5.97617ZM42.172 0.85481H42.8301V2.45945H43.1426C43.8008 2.45945 44.1243 2.83437 44.1243 3.51672V4.06785C44.1243 4.75394 43.8008 5.12511 43.1426 5.12511H42.172V0.85481ZM39.5724 0.85481H40.2306V2.6844H40.966V0.85481H41.6388V5.12511H40.966V3.29552H40.2306V5.12511H39.5724V0.85481ZM37.1568 0.85481H37.8149V2.45945H38.1238C38.7819 2.45945 39.1055 2.83437 39.1055 3.51672V4.06785C39.1055 4.75394 38.7819 5.12511 38.1238 5.12511H37.1568V0.85481ZM38.7525 7.77577V8.38689H37.848V9.63911H38.9731V10.2465H37.1788V5.97617H38.9731V6.58729H37.837V7.77577H38.7525ZM34.2448 4.5215C34.5426 4.5215 34.6382 4.47651 34.6529 4.08284L34.7595 0.85481H36.62V5.12511H35.9508V1.46592H35.3772L35.2963 4.04535C35.2706 4.82518 34.9985 5.12886 34.3403 5.12886H34.2374L34.2448 4.5215ZM36.6972 7.00344V9.22295C36.6972 9.9053 36.3295 10.2952 35.7008 10.2952C35.562 10.3072 35.4223 10.2872 35.2921 10.2367C35.1619 10.1863 35.0444 10.1066 34.9485 10.0037C34.8525 9.9008 34.7804 9.77721 34.7375 9.64207C34.6946 9.50694 34.682 9.36371 34.7007 9.22295V7.00344C34.682 6.86269 34.6946 6.71946 34.7375 6.58432C34.7804 6.44919 34.8525 6.3256 34.9485 6.22268C35.0444 6.11975 35.1619 6.04013 35.2921 5.98968C35.4223 5.93923 35.562 5.91924 35.7008 5.93118C36.3479 5.93118 36.6972 6.3211 36.6972 7.00344ZM18.0778 5.12886H17.4086V3.29552H16.6733V5.12511H16.0041V0.85481H16.6623V2.6844H17.3976V0.85481H18.0668L18.0778 5.12886ZM20.1368 5.12886L20.0229 4.35278H19.214L19.1184 5.12511H18.497L19.1662 0.85481H20.1295L20.7987 5.12511L20.1368 5.12886ZM23.5783 5.70248H22.9386V5.12511H21.2178V0.85481H21.876V4.499H22.6113V0.85481H23.2805V4.52525H23.5673L23.5783 5.70248ZM26.1043 5.12511H25.527V2.12578L25.2586 3.17554L24.7071 5.13261H24.0343V0.85481H24.6336V3.55796L24.8579 2.62442L25.3947 0.862309H26.13L26.1043 5.12511ZM28.5898 4.09784C28.5898 4.78394 28.2221 5.17385 27.5934 5.17385C26.9647 5.17385 26.5933 4.79893 26.5933 4.09784V1.87458C26.5746 1.73383 26.5872 1.5906 26.6301 1.45546C26.673 1.32033 26.7451 1.19674 26.8411 1.09381C26.9371 0.990893 27.0545 0.911268 27.1847 0.860816C27.3149 0.810365 27.4546 0.790375 27.5934 0.802322C28.2368 0.802322 28.5898 1.17724 28.5898 1.87458V4.09784ZM29.0825 0.85481H29.7407V2.6844H30.476V0.85481H31.1489V5.12511H30.5165V3.29552H29.7811V5.12511H29.0972L29.0825 0.85481ZM31.807 10.2277H31.1526V6.58729H30.4172V10.2465H29.748V5.97617H31.8217L31.807 10.2277ZM32.1747 5.10637H31.6195L32.2703 0.85481H33.2299L33.9028 5.12511H33.2373L33.1233 4.34903H32.3181L32.1747 5.10637ZM32.9763 10.2277H32.3549V5.97617H33.3256C33.9837 5.97617 34.3073 6.35109 34.3073 7.03344V7.58832C34.3073 8.27066 33.9837 8.64183 33.3256 8.64183H33.013L32.9763 10.2277ZM34.9911 12.6909C34.9911 13.377 34.6676 13.7482 34.0094 13.7482H33.7006V15.3716H33.0902V11.1013H34.0572C34.7154 11.1013 35.0389 11.4762 35.0389 12.1548L34.9911 12.6909ZM37.3921 14.3293C37.3921 14.5998 37.2867 14.8592 37.0992 15.0504C36.9116 15.2417 36.6572 15.3491 36.392 15.3491C36.1268 15.3491 35.8724 15.2417 35.6848 15.0504C35.4973 14.8592 35.3919 14.5998 35.3919 14.3293V12.1248C35.3919 11.8543 35.4973 11.595 35.6848 11.4037C35.8724 11.2125 36.1268 11.105 36.392 11.105C36.6572 11.105 36.9116 11.2125 37.0992 11.4037C37.2867 11.595 37.3921 11.8543 37.3921 12.1248V14.3293ZM39.8078 12.5222H39.1864V12.0836C39.1864 11.7799 39.054 11.6637 38.8444 11.6637C38.6349 11.6637 38.5062 11.7799 38.5062 12.0836V14.3893C38.5062 14.693 38.6349 14.8055 38.8444 14.8055C39.054 14.8055 39.1864 14.693 39.1864 14.3893V13.7819H39.8078V14.3481C39.8078 15.0304 39.4732 15.4203 38.8297 15.4203C38.1863 15.4203 37.848 15.0454 37.848 14.3481V12.1248C37.848 11.4425 38.1826 11.0525 38.8297 11.0525C39.4768 11.0525 39.8078 11.4275 39.8078 12.1248V12.5222ZM40.0872 10.2277H39.4291V5.97617H40.0872V7.85076L40.9476 5.97617H41.6057L40.7196 7.87325L41.6351 10.239H40.9586L40.3188 8.53685L40.1166 8.93052L40.0872 10.2277ZM42.2161 12.5222H41.5947V12.0836C41.5947 11.7799 41.4623 11.6637 41.2527 11.6637C41.0432 11.6637 40.9108 11.7799 40.9108 12.0836V14.3893C40.9108 14.693 41.0432 14.8055 41.2527 14.8055C41.4623 14.8055 41.5947 14.693 41.5947 14.3893V13.7819H42.2161V14.3481C42.2161 15.0304 41.8815 15.4203 41.2344 15.4203C40.5872 15.4203 40.2527 15.0454 40.2527 14.3481V12.1248C40.2527 11.4425 40.5872 11.0525 41.2344 11.0525C41.8815 11.0525 42.2161 11.4275 42.2161 12.1248V12.5222ZM41.944 6.56854V5.97617H43.9773V6.58729H43.2897V10.2465H42.6499V6.58729L41.944 6.56854ZM44.8009 15.3716H44.2089V12.3723L43.9405 13.422L43.3853 15.3716H42.7124V11.1013H43.2971V13.8044L43.536 12.8634L44.0729 11.1013H44.8082L44.8009 15.3716ZM47.4077 15.3716H46.8158V12.3723L46.5474 13.422L45.9958 15.3716H45.323V11.1013H45.9076V13.8044L46.1466 12.8634L46.6834 11.1013H47.4188L47.4077 15.3716ZM47.4077 10.2465H46.7496V5.97617H47.4077V10.2465ZM47.4813 1.46592H46.3451V2.65441H47.2496V3.26552H46.3451V4.499H47.4813V5.11012H45.687V0.85481H47.4813V1.46592Z" fill="white"/>
<path d="M43.4664 4.12404V3.47168C43.4664 3.168 43.3524 3.06677 43.1427 3.06677H42.8301V4.49895H43.1427C43.3524 4.49895 43.4664 4.41647 43.4664 4.12404Z" fill="white"/>
</svg>
