<svg width="409" height="291" viewBox="0 0 409 291" fill="none" xmlns="http://www.w3.org/2000/svg">
<path d="M390.086 238.812V267.348C390.086 268.512 389.623 269.628 388.8 270.451C387.976 271.274 386.859 271.736 385.695 271.736H23.9101C22.7497 271.73 21.6391 271.265 20.8209 270.442C20.0026 269.62 19.5434 268.507 19.5434 267.348V23.7195C19.5434 22.5556 20.006 21.4393 20.8295 20.6162C21.653 19.7932 22.7699 19.3308 23.9345 19.3308H385.695C386.859 19.3308 387.976 19.7932 388.8 20.6162C389.623 21.4393 390.086 22.5556 390.086 23.7195V56.4971H409.018V9.96757C409.018 8.65707 408.76 7.35943 408.257 6.14892C407.755 4.9384 407.019 3.83878 406.091 2.91296C405.163 1.98715 404.061 1.25333 402.849 0.753489C401.637 0.253651 400.338 -0.00239071 399.027 1.68216e-05H9.99155C8.68031 -0.00239071 7.38146 0.253651 6.16933 0.753489C4.95721 1.25333 3.85561 1.98715 2.92757 2.91296C1.99952 3.83878 1.26326 4.9384 0.760916 6.14892C0.258569 7.35943 -2.2127e-06 8.65707 0 9.96757L0 281.039C0.00161911 283.681 1.05308 286.215 2.92325 288.083C4.79342 289.951 7.32922 291 9.97323 291H399.009C401.653 291 404.188 289.951 406.058 288.083C407.929 286.215 408.98 283.681 408.982 281.039V238.812H390.086Z" fill="white"/>
<path d="M104.637 126.575H98.6452V99.0164C98.6452 98.7655 98.5455 98.5248 98.368 98.3474C98.1904 98.17 97.9497 98.0703 97.6986 98.0703H91.292C91.041 98.0703 90.8002 98.17 90.6227 98.3474C90.4451 98.5248 90.3454 98.7655 90.3454 99.0164V126.575H76.3414V99.0164C76.3414 98.7655 76.2416 98.5248 76.0641 98.3474C75.8866 98.17 75.6458 98.0703 75.3947 98.0703H68.976C68.7249 98.0703 68.4841 98.17 68.3066 98.3474C68.1291 98.5248 68.0293 98.7655 68.0293 99.0164V133.198C68.0285 133.322 68.0524 133.446 68.0997 133.561C68.147 133.676 68.2167 133.781 68.3048 133.869C68.3928 133.957 68.4975 134.026 68.6127 134.074C68.728 134.121 68.8514 134.145 68.976 134.144H97.0696V142.219C97.0687 142.344 97.0927 142.467 97.14 142.582C97.1872 142.697 97.2569 142.802 97.345 142.89C97.4331 142.978 97.5378 143.048 97.653 143.095C97.7682 143.142 97.8916 143.166 98.0162 143.165H103.067C103.302 143.167 103.529 143.08 103.704 142.924C103.879 142.767 103.989 142.551 104.014 142.317L105.559 127.625C105.571 127.493 105.556 127.359 105.514 127.233C105.472 127.107 105.404 126.991 105.314 126.893C105.23 126.796 105.126 126.717 105.009 126.663C104.892 126.608 104.765 126.578 104.637 126.575Z" fill="white"/>
<path d="M138.874 98.0701H132.529C132.363 98.0712 132.201 98.1151 132.057 98.1974C131.914 98.2798 131.794 98.3978 131.71 98.5401C127.316 106.277 122.505 113.769 117.297 120.984V99.0101C117.297 98.7591 117.197 98.5185 117.02 98.3411C116.842 98.1636 116.601 98.064 116.35 98.064H109.931C109.681 98.0656 109.441 98.1658 109.264 98.3428C109.087 98.5199 108.986 98.7596 108.985 99.0101V133.191C108.985 133.442 109.085 133.683 109.262 133.86C109.44 134.038 109.68 134.138 109.931 134.138H116.344C116.489 134.139 116.633 134.107 116.763 134.043C116.893 133.98 117.007 133.886 117.095 133.771C122.312 127.07 127.146 120.08 131.576 112.835V133.191C131.576 133.442 131.676 133.683 131.853 133.86C132.031 134.038 132.271 134.138 132.522 134.138H138.862C139.113 134.138 139.354 134.038 139.531 133.86C139.709 133.683 139.808 133.442 139.808 133.191V99.0101C139.805 98.7628 139.706 98.5264 139.532 98.351C139.357 98.1756 139.121 98.0748 138.874 98.0701Z" fill="white"/>
<path d="M173.832 97.1973H167.462C152.298 97.6978 146.661 102.776 146.661 115.93C146.661 128.992 152.072 134.241 166.546 134.968V146.119C166.545 146.244 166.569 146.367 166.617 146.482C166.664 146.598 166.734 146.702 166.822 146.79C166.91 146.878 167.014 146.948 167.13 146.995C167.245 147.042 167.368 147.066 167.493 147.066H173.832C173.957 147.066 174.081 147.042 174.196 146.995C174.312 146.948 174.417 146.879 174.506 146.791C174.594 146.703 174.664 146.598 174.712 146.483C174.76 146.368 174.785 146.244 174.785 146.119V134.962C189.259 134.15 194.676 128.919 194.676 115.93C194.676 102.776 189.027 97.6978 173.832 97.1973ZM166.546 104.65V127.607C157.648 127.1 155.303 124.555 155.303 116.064C155.303 107.324 157.44 105.028 166.546 104.65ZM186.022 116.064C186.022 124.579 183.689 127.094 174.785 127.607V104.65C183.891 105.096 186.022 107.385 186.022 116.064Z" fill="white"/>
<path d="M216.889 97.124C211.917 97.124 205.688 98.2654 202.079 99.8341C201.914 99.9131 201.775 100.038 201.68 100.194C201.584 100.35 201.536 100.53 201.541 100.713V146.126C201.541 146.25 201.566 146.374 201.614 146.489C201.662 146.604 201.732 146.709 201.821 146.797C201.909 146.885 202.014 146.954 202.13 147.001C202.245 147.049 202.369 147.072 202.494 147.072H208.87C208.995 147.072 209.118 147.049 209.234 147.001C209.35 146.954 209.455 146.885 209.543 146.797C209.632 146.709 209.702 146.604 209.75 146.489C209.798 146.374 209.823 146.25 209.823 146.126V133.405C212.256 134.568 214.931 135.139 217.628 135.072C228.932 135.072 233.757 129.371 233.757 115.997C233.757 102.416 229.024 97.124 216.889 97.124ZM209.823 105.627C212.12 104.971 214.5 104.653 216.889 104.681C222.904 104.681 225.176 105.669 225.176 116.198C225.176 125.861 223.008 127.582 216.889 127.582C214.757 127.582 209.823 127.216 209.823 123.816V105.627Z" fill="white"/>
<path d="M256.452 97.124C244.311 97.124 239.583 102.398 239.583 115.93C239.583 129.706 244.311 135.072 256.452 135.072C268.593 135.072 273.308 129.706 273.308 115.93C273.308 102.398 268.581 97.124 256.452 97.124ZM256.452 127.723C250.283 127.723 248.231 126.038 248.231 116.064C248.231 105.431 250.357 104.467 256.452 104.467C262.547 104.467 264.666 105.419 264.666 116.064C264.666 126.038 262.614 127.723 256.452 127.723Z" fill="white"/>
<path d="M306.898 114.838C310.153 113.293 310.703 110.296 310.703 107.171C310.703 103.271 309.64 98.0703 300.455 98.0703H281.101C280.85 98.0703 280.609 98.17 280.432 98.3474C280.254 98.5248 280.154 98.7655 280.154 99.0164V133.198C280.154 133.322 280.177 133.446 280.225 133.561C280.272 133.676 280.342 133.781 280.43 133.869C280.518 133.957 280.623 134.026 280.738 134.074C280.853 134.121 280.976 134.145 281.101 134.144H300.925C307.894 134.144 311.583 130.537 311.583 123.694C311.583 119.11 310.037 116.193 306.898 114.838ZM288.466 118.561H299.166C300.999 118.561 302.867 119.104 302.867 123.139C302.867 126.081 302.055 126.978 299.38 126.978H288.466V118.561ZM298.904 111.7H288.466V105.218H298.904C301.524 105.218 302.128 105.828 302.128 108.313C302.128 110.797 301.261 111.7 298.904 111.7Z" fill="white"/>
<path d="M359.232 98.0703H352.819C352.567 98.0703 352.326 98.1698 352.147 98.347C351.969 98.5243 351.868 98.7649 351.866 99.0164V133.198C351.866 133.323 351.891 133.446 351.939 133.561C351.987 133.677 352.057 133.781 352.146 133.869C352.234 133.957 352.339 134.026 352.455 134.074C352.57 134.121 352.694 134.145 352.819 134.144H359.232C359.356 134.145 359.48 134.121 359.595 134.074C359.71 134.026 359.815 133.957 359.903 133.869C359.991 133.781 360.061 133.676 360.108 133.561C360.155 133.446 360.179 133.322 360.178 133.198V99.0164C360.178 98.7655 360.078 98.5248 359.901 98.3474C359.723 98.17 359.483 98.0703 359.232 98.0703Z" fill="white"/>
<path d="M338.192 111.09H326.539V99.0164C326.539 98.8917 326.514 98.7681 326.466 98.653C326.419 98.5378 326.348 98.4332 326.26 98.3453C326.171 98.2573 326.066 98.1878 325.95 98.1406C325.835 98.0934 325.711 98.0695 325.586 98.0703H319.18C319.055 98.0695 318.931 98.0934 318.816 98.1406C318.7 98.1878 318.595 98.2573 318.506 98.3453C318.418 98.4332 318.348 98.5378 318.3 98.653C318.252 98.7681 318.227 98.8917 318.227 99.0164V133.198C318.227 133.323 318.252 133.446 318.3 133.561C318.348 133.677 318.418 133.781 318.506 133.869C318.595 133.957 318.7 134.027 318.816 134.074C318.931 134.121 319.055 134.145 319.18 134.144H338.192C346.131 134.144 349.655 130.53 349.655 122.419C349.655 114.886 345.795 111.09 338.192 111.09ZM326.539 118.17H337.123C339.603 118.17 340.946 118.854 340.946 122.48C340.946 126.404 339.682 127.125 337.184 127.125H326.539V118.17Z" fill="white"/>
<path d="M383.606 97.124C372.13 97.124 367.012 102.923 367.012 115.93C367.012 129.169 372.319 135.072 384.223 135.072C388.248 134.947 392.239 134.296 396.095 133.137C396.32 133.063 396.509 132.911 396.629 132.707C396.748 132.503 396.789 132.263 396.743 132.032L395.6 126.709C395.568 126.582 395.51 126.462 395.43 126.357C395.351 126.252 395.251 126.164 395.136 126.099C395.023 126.029 394.895 125.987 394.763 125.974C394.631 125.961 394.497 125.979 394.373 126.026C391.317 126.949 388.153 127.469 384.962 127.57C378.75 127.57 376.002 126.264 375.746 118.347H398.104C398.229 118.348 398.353 118.324 398.469 118.277C398.584 118.23 398.689 118.16 398.778 118.072C398.866 117.984 398.937 117.88 398.985 117.764C399.033 117.649 399.057 117.526 399.057 117.401V115.851C399.057 102.025 395.008 97.124 383.606 97.124ZM375.898 111.279C376.509 105.871 378.341 104.345 383.746 104.345C388.406 104.345 390.055 105.334 390.464 111.279H375.898Z" fill="white"/>
<path d="M97.7169 169.76H69.0126C68.7615 169.76 68.5207 169.859 68.3432 170.037C68.1657 170.214 68.0659 170.455 68.0659 170.706V204.887C68.0651 205.012 68.0891 205.135 68.1363 205.25C68.1836 205.365 68.2533 205.47 68.3414 205.558C68.4295 205.646 68.5341 205.716 68.6494 205.763C68.7646 205.81 68.888 205.834 69.0126 205.833H75.4191C75.5437 205.834 75.6671 205.81 75.7823 205.763C75.8976 205.716 76.0022 205.646 76.0903 205.558C76.1784 205.47 76.2481 205.365 76.2954 205.25C76.3426 205.135 76.3666 205.012 76.3658 204.887V177.316H90.4126V204.869C90.4117 204.993 90.4357 205.117 90.483 205.232C90.5302 205.347 90.5999 205.452 90.688 205.54C90.7761 205.628 90.8808 205.697 90.996 205.745C91.1112 205.792 91.2346 205.816 91.3592 205.815H97.7169C97.8414 205.816 97.9649 205.792 98.0801 205.745C98.1953 205.697 98.3 205.628 98.3881 205.54C98.4761 205.452 98.5458 205.347 98.5931 205.232C98.6404 205.117 98.6643 204.993 98.6635 204.869V170.688C98.6587 170.44 98.5569 170.204 98.3799 170.03C98.2029 169.857 97.9648 169.76 97.7169 169.76Z" fill="white"/>
<path d="M121.877 168.819C116.894 168.819 110.67 169.955 107.067 171.517C106.899 171.593 106.756 171.716 106.657 171.87C106.557 172.025 106.504 172.206 106.505 172.39V217.809C106.504 217.933 106.528 218.057 106.576 218.172C106.623 218.287 106.693 218.391 106.781 218.479C106.869 218.567 106.973 218.637 107.089 218.684C107.204 218.732 107.327 218.756 107.452 218.755H113.858C113.983 218.756 114.106 218.732 114.222 218.684C114.337 218.637 114.441 218.567 114.53 218.479C114.618 218.391 114.687 218.287 114.735 218.172C114.782 218.057 114.806 217.933 114.805 217.809V205.088C117.243 206.246 119.918 206.814 122.616 206.749C133.915 206.749 138.739 201.048 138.739 187.68C138.739 174.105 134.012 168.819 121.877 168.819ZM114.817 177.316C117.114 176.673 119.492 176.365 121.877 176.4C127.893 176.4 130.171 177.395 130.171 187.918C130.171 197.581 127.997 199.302 121.877 199.302C119.752 199.302 114.805 198.936 114.805 195.536L114.817 177.316Z" fill="white"/>
<path d="M161.434 168.819C149.299 168.819 144.578 174.087 144.578 187.619C144.578 201.395 149.299 206.755 161.434 206.755C173.569 206.755 178.297 201.395 178.297 187.619C178.297 174.087 173.563 168.819 161.434 168.819ZM161.434 199.412C155.272 199.412 153.22 197.727 153.22 187.76C153.22 177.121 155.351 176.162 161.434 176.162C167.517 176.162 169.655 177.114 169.655 187.76C169.655 197.727 167.603 199.412 161.434 199.412Z" fill="white"/>
<path d="M211.313 168.887H204.937C189.766 169.387 184.123 174.466 184.123 187.619C184.123 200.682 189.534 205.931 204.015 206.657V217.809C204.015 217.934 204.039 218.057 204.087 218.172C204.135 218.288 204.205 218.392 204.294 218.48C204.382 218.568 204.488 218.638 204.603 218.685C204.719 218.732 204.842 218.756 204.967 218.755H211.313C211.438 218.756 211.561 218.732 211.677 218.685C211.792 218.638 211.898 218.568 211.986 218.48C212.075 218.392 212.145 218.288 212.193 218.172C212.241 218.057 212.265 217.934 212.265 217.809V206.651C226.746 205.839 232.157 200.608 232.157 187.619C232.145 174.466 226.502 169.387 211.313 168.887ZM204.015 176.339V199.296C195.11 198.783 192.771 196.244 192.771 187.76C192.771 179.007 194.896 176.718 204.015 176.339ZM223.527 187.76C223.527 196.268 221.188 198.777 212.284 199.296V176.346C221.359 176.785 223.527 179.074 223.527 187.76Z" fill="white"/>
<path d="M254.558 168.819C243.083 168.819 237.965 174.612 237.965 187.619C237.965 200.858 243.272 206.755 255.169 206.755C259.196 206.634 263.189 205.987 267.048 204.832C267.273 204.76 267.464 204.607 267.583 204.403C267.703 204.2 267.743 203.959 267.695 203.727L266.553 198.405C266.521 198.276 266.463 198.155 266.382 198.05C266.301 197.945 266.199 197.858 266.083 197.794C265.97 197.728 265.843 197.687 265.712 197.674C265.582 197.661 265.45 197.677 265.326 197.721C262.264 198.648 259.094 199.17 255.896 199.271C249.685 199.271 246.936 197.965 246.68 190.048H269.039C269.164 190.049 269.287 190.025 269.403 189.978C269.519 189.931 269.624 189.861 269.712 189.774C269.801 189.686 269.871 189.581 269.919 189.466C269.967 189.351 269.992 189.227 269.992 189.102V187.552C270.01 173.715 265.961 168.819 254.558 168.819ZM246.845 182.968C247.456 177.554 249.288 176.028 254.693 176.028C259.359 176.028 261.008 177.017 261.441 182.968H246.845Z" fill="white"/>
<path d="M301.97 198.125C301.931 198 301.867 197.884 301.782 197.784C301.697 197.684 301.592 197.603 301.475 197.545C301.352 197.492 301.22 197.465 301.087 197.465C300.954 197.465 300.822 197.492 300.699 197.545C298.227 198.572 295.583 199.121 292.906 199.162C286.604 199.162 283.611 197.453 283.611 187.779C283.611 177.579 286.579 176.456 292.906 176.456C295.569 176.433 298.211 176.933 300.681 177.927C300.804 177.981 300.937 178.01 301.072 178.01C301.206 178.01 301.34 177.981 301.463 177.927C301.587 177.868 301.696 177.783 301.784 177.678C301.871 177.572 301.935 177.449 301.97 177.317L303.661 171.658C303.729 171.427 303.707 171.178 303.6 170.962C303.492 170.746 303.307 170.578 303.081 170.493C299.701 169.417 296.179 168.856 292.632 168.826C280.246 168.826 274.957 174.448 274.957 187.626C274.957 200.804 280.417 206.761 292.632 206.761C295.685 206.761 300.266 206.114 303.136 204.869C303.348 204.776 303.519 204.609 303.616 204.398C303.712 204.188 303.729 203.949 303.661 203.728L301.97 198.125Z" fill="white"/>
<path d="M333.508 198.124C333.469 197.999 333.405 197.883 333.32 197.784C333.235 197.684 333.13 197.603 333.013 197.544C332.891 197.492 332.759 197.465 332.625 197.465C332.492 197.465 332.36 197.492 332.237 197.544C329.766 198.572 327.121 199.12 324.444 199.162C318.142 199.162 315.149 197.453 315.149 187.778C315.149 177.579 318.117 176.456 324.444 176.456C327.112 176.425 329.76 176.918 332.237 177.908C332.36 177.963 332.494 177.991 332.628 177.991C332.763 177.991 332.896 177.963 333.019 177.908C333.143 177.85 333.253 177.765 333.34 177.659C333.428 177.554 333.491 177.431 333.526 177.298L335.218 171.64C335.284 171.404 335.258 171.152 335.144 170.936C335.031 170.719 334.839 170.554 334.607 170.474C331.227 169.399 327.704 168.837 324.157 168.808C311.772 168.808 306.483 174.429 306.483 187.607C306.483 200.786 311.943 206.743 324.157 206.743C327.211 206.743 331.792 206.096 334.662 204.851C334.874 204.758 335.045 204.59 335.142 204.38C335.238 204.169 335.255 203.931 335.187 203.709L333.508 198.124Z" fill="white"/>
<path d="M368.924 169.76H362.591C362.424 169.761 362.26 169.805 362.115 169.889C361.97 169.972 361.85 170.092 361.766 170.236C357.375 177.97 352.567 185.46 347.365 192.674V170.7C347.363 170.449 347.262 170.208 347.084 170.031C346.905 169.853 346.664 169.754 346.412 169.754H340C339.748 169.754 339.507 169.853 339.328 170.031C339.15 170.208 339.048 170.449 339.047 170.7V204.881C339.047 205.006 339.072 205.13 339.119 205.245C339.167 205.36 339.238 205.465 339.326 205.553C339.415 205.641 339.52 205.71 339.635 205.757C339.751 205.804 339.875 205.828 340 205.828H346.412C346.557 205.829 346.699 205.797 346.83 205.735C346.96 205.672 347.074 205.581 347.163 205.467C352.379 198.763 357.211 191.769 361.638 184.519V204.881C361.638 205.006 361.662 205.13 361.71 205.245C361.758 205.36 361.829 205.465 361.917 205.553C362.006 205.641 362.111 205.71 362.226 205.757C362.342 205.804 362.466 205.828 362.591 205.828H368.924C369.049 205.828 369.172 205.804 369.288 205.757C369.403 205.71 369.509 205.641 369.597 205.553C369.686 205.465 369.756 205.36 369.804 205.245C369.852 205.13 369.877 205.006 369.877 204.881V170.7C369.876 170.576 369.85 170.453 369.802 170.338C369.754 170.224 369.683 170.12 369.595 170.033C369.506 169.946 369.402 169.877 369.287 169.83C369.171 169.783 369.048 169.759 368.924 169.76Z" fill="white"/>
<path d="M407.602 169.76H401.25C401.083 169.761 400.919 169.805 400.774 169.889C400.63 169.972 400.51 170.092 400.425 170.236C396.035 177.971 391.225 185.462 386.018 192.674V170.7C386.018 170.576 385.994 170.453 385.946 170.338C385.899 170.223 385.829 170.119 385.741 170.031C385.653 169.943 385.549 169.873 385.434 169.826C385.319 169.778 385.196 169.754 385.072 169.754H378.653C378.401 169.754 378.16 169.853 377.981 170.031C377.803 170.208 377.702 170.449 377.7 170.7V204.881C377.7 205.006 377.725 205.13 377.773 205.245C377.821 205.36 377.891 205.465 377.98 205.553C378.068 205.641 378.173 205.71 378.289 205.757C378.404 205.804 378.528 205.828 378.653 205.828H385.066C385.209 205.829 385.351 205.798 385.481 205.735C385.61 205.673 385.723 205.581 385.811 205.467C391.03 198.764 395.865 191.77 400.291 184.519V204.881C400.291 205.006 400.316 205.13 400.364 205.245C400.412 205.36 400.482 205.465 400.571 205.553C400.659 205.641 400.764 205.71 400.88 205.757C400.995 205.804 401.119 205.828 401.244 205.828H407.602C407.726 205.828 407.85 205.804 407.966 205.757C408.081 205.71 408.186 205.641 408.275 205.553C408.363 205.465 408.434 205.36 408.482 205.245C408.53 205.13 408.554 205.006 408.554 204.881V170.7C408.553 170.576 408.528 170.453 408.48 170.338C408.432 170.224 408.361 170.12 408.273 170.033C408.184 169.946 408.079 169.877 407.964 169.83C407.849 169.783 407.726 169.759 407.602 169.76Z" fill="white"/>
</svg>
