<svg width="30" height="30" viewBox="0 0 30 30" fill="none" xmlns="http://www.w3.org/2000/svg">
<path d="M1 6.25C1 3.35051 3.35051 1 6.25 1H23.75C26.6495 1 29 3.35051 29 6.25V23.75C29 26.6495 26.6495 29 23.75 29H6.25C3.35051 29 1 26.6495 1 23.75V6.25Z" stroke="#DCDCF0" stroke-width="1.5" stroke-linecap="round" stroke-linejoin="round"/>
<path fill-rule="evenodd" clip-rule="evenodd" d="M15 23.75C11.6459 23.75 8.78154 23.2281 8.78154 21.1377C8.78154 19.0474 11.6277 17.1177 15 17.1177C18.3541 17.1177 21.2185 19.0287 21.2185 21.119C21.2185 23.2085 18.3723 23.75 15 23.75Z" stroke="#DCDCF0" stroke-width="1.5" stroke-linecap="round" stroke-linejoin="round"/>
<path fill-rule="evenodd" clip-rule="evenodd" d="M14.9934 14.2211C17.1945 14.2211 18.9786 12.4371 18.9786 10.236C18.9786 8.03485 17.1945 6.25 14.9934 6.25C12.7923 6.25 11.0074 8.03485 11.0074 10.236C11 12.4296 12.7717 14.2137 14.9653 14.2211C14.9753 14.2211 14.9843 14.2211 14.9934 14.2211Z" stroke="#DCDCF0" stroke-width="1.5" stroke-linecap="round" stroke-linejoin="round"/>
</svg>
